<?xml version="1.0" encoding="utf-8"?>
<!-- Generator: Adobe Illustrator 23.1.1, SVG Export Plug-In . SVG Version: 6.00 Build 0)  -->
<svg version="1.1" id="Layer_1" xmlns="http://www.w3.org/2000/svg" xmlns:xlink="http://www.w3.org/1999/xlink" x="0px" y="0px"
	 viewBox="0 0 53 53" style="enable-background:new 0 0 53 53;" xml:space="preserve">
<style type="text/css">
	.st0{fill:#FFFFFF;}
	.st1{fill:none;stroke:#FFFFFF;stroke-miterlimit:10;}
</style>
<g>
	<path class="st0" d="M8.6,9.8c-0.3,0.4-0.4,1-1,1.1C7.9,10.5,8.2,10.1,8.6,9.8z"/>
	<g>
		<path class="st0" d="M18.9,29.8c-0.1-0.1-0.1-0.2,0-0.4c0.1-0.1,0.2-0.2,0.3-0.2c1.6-0.6,3.2-1.3,4.8-1.8c0.1,0,0.1,0,0.2-0.1
			c-1.6,0.5-3.2,0.7-4.8,1.1c-0.1,0-0.3,0.1-0.4,0c-0.1-0.1-0.1-0.2,0-0.3c0.1-0.1,0.2-0.1,0.3-0.1c1.5-0.3,3-0.7,4.6-0.9
			c0,0,0.1,0,0.1,0c0,0,0,0,0,0c-0.3,0-0.6,0.1-0.9,0.1c-1.2,0.2-2.4,0.2-3.6,0.3c-0.1,0-0.3,0-0.4-0.1c0-0.1,0-0.2,0-0.3
			c-0.1-0.1-0.1-0.3,0.1-0.4c0.2,0.1,0.3,0.2,0.5,0.2c0.8-0.1,1.6-0.1,2.4-0.2c0.6-0.1,1.1,0,1.6,0c-0.5,0-1,0-1.6,0
			c-0.9,0-1.8-0.1-2.7-0.1c-0.1,0-0.3,0-0.4-0.1c-0.1-0.1-0.1-0.2,0.1-0.3c1.7,0,3.3,0,5,0.2c0,0,0-0.1,0,0c0,0,0,0.1,0,0.1
			c-1.4-0.2-2.8-0.4-4.2-0.6c-0.3,0-0.6,0-0.8-0.2c-0.1-0.2-0.1-0.4,0-0.6c0.3,0.3,0.6,0.4,1,0.5c1.3,0.2,2.5,0.4,3.8,0.7
			c0.1,0,0.3,0,0.3,0.1c-0.7-0.2-1.5-0.4-2.2-0.7c-0.7-0.3-1.5-0.5-2.2-0.8c-0.2-0.1-0.4-0.1-0.6-0.1c-0.2-0.2-0.2-0.4,0-0.6
			c0.7,0.1,1.4,0.5,2.1,0.7c1.1,0.4,2.1,0.7,3.2,1.1c-1.6-1.2-3.2-2.3-4.8-3.5c-0.1-0.1-0.2-0.2-0.3-0.3c0-0.2-0.1-0.3,0.1-0.4
			c0.2-0.1,0.3,0.1,0.5,0.2c1.7,1.2,3.4,2.5,5.1,3.8c0.1,0,0.1,0.1,0.2,0.1c-0.4-1.1-0.9-2.3-1.3-3.4c-0.3-0.8-0.6-1.5-0.9-2.3
			c-0.1-0.3-0.3-0.4-0.6-0.3c-0.4,0.1-0.8,0.2-1.1,0.3c-0.1,0-0.3,0.1-0.3-0.1c-0.1-0.1,0-0.2,0.1-0.3c0.5-0.4,1-0.9,1.3-1.4
			c0.2-0.3,0.4-0.1,0.6,0c0.6,0.3,1.2,0.6,1.8,0.9c0.2,0.1,0.5,0.1,0.8,0.3c0,0.2-0.3,0.2-0.4,0.2c-0.4,0-0.9,0-1.3,0
			c-0.2,0-0.3,0-0.2,0.2c0.8,1.9,1.4,3.9,2.2,5.8c0,0,0,0,0.1,0c0.1-0.2,0.2-0.5,0.3-0.8c0.8-1.8,1.7-3.6,2.5-5.4
			c-0.5,0-0.9,0.1-1.4,0.1c-0.2,0-0.4,0.1-0.5-0.1c0-0.2,0.2-0.2,0.4-0.3c0.7-0.3,1.5-0.7,2.2-1.1c0.1-0.1,0.3-0.2,0.5-0.2
			c0.1,0,0.2,0.1,0.2,0.2c0.3,0.5,0.7,0.9,1.2,1.3c0.1,0.1,0.2,0.1,0.2,0.2c0,0.1-0.2,0.1-0.3,0.1c-0.4,0-0.7-0.1-1.1-0.2
			c-0.5-0.1-0.5-0.1-0.8,0.4c-0.3,0.7-0.6,1.4-1,2.1c-0.6,1.2-1.1,2.4-1.7,3.7c0.9-0.7,1.8-1.3,2.6-1.9c1.5-1.1,3-2.2,4.4-3.3
			c0.2-0.2,0.4-0.3,0.7-0.5c-0.3,0-0.5,0-0.8,0c-0.2,0-0.4-0.1-0.6-0.1c-0.1,0-0.3,0-0.3-0.2c0-0.1,0.2-0.1,0.3-0.2
			c0.2-0.1,0.4-0.1,0.6-0.1c0,0,0.1,0,0.1,0c0.9-0.2,1.7-0.5,2.5-0.7c0.5-0.2,0.7-0.1,0.5,0.5c-0.1,0.4,0,0.7,0.1,1
			c0.1,0.4,0,0.4-0.4,0.3c-0.2-0.1-0.4-0.1-0.6-0.2c-0.4-0.2-0.7-0.1-1,0.1c-0.3,0.3-0.7,0.5-1,0.8c-2.2,1.6-4.3,3.2-6.3,4.6
			c1.9-0.8,4.1-1.6,6.2-2.5c1.8-0.7,3.6-1.4,5.5-2.1c-0.4-0.1-0.8-0.1-1.2-0.2c-0.1,0-0.3,0-0.3-0.2c0-0.1,0.1-0.1,0.2-0.1
			c1.4-0.1,2.7-0.3,4.1-0.6c0.1,0,0.2-0.1,0.3,0.1c0.1,0.1,0,0.2-0.1,0.3c-0.4,0.4-0.8,0.8-1,1.4c-0.1,0.2-0.3,0.2-0.4,0.1
			c0,0-0.1,0-0.1,0c-0.5-0.6-1.1-0.4-1.7-0.2c-1.8,0.7-3.6,1.4-5.4,2.1c-1.9,0.7-3.8,1.5-5.3,2.1c1.5-0.4,3.4-0.7,5.3-1.1
			c3-0.7,6-1.3,9-1.9c-0.3-0.1-0.6-0.2-0.9-0.3c-0.1,0-0.2-0.1-0.1-0.2c0-0.1,0.1-0.1,0.2-0.1c0.1,0,0.3,0,0.4,0c1.3,0,2.6,0,3.9,0
			c0.1,0,0.3,0,0.3,0.1c0,0.1-0.1,0.2-0.2,0.2c-0.8,0.4-1.6,0.8-2.3,1.3c-0.2,0.2-0.4,0.1-0.5-0.2c-0.1-0.4-0.4-0.4-0.7-0.3
			c-3.1,0.7-6.1,1.3-9.2,2c-1.8,0.3-3.5,0.8-5.2,1c1.6-0.3,3.4-0.3,5.2-0.5c1.4-0.2,2.7-0.2,4.1-0.3c1.6-0.1,3.1-0.3,4.7-0.4
			c0.7-0.1,1.5-0.1,2.2-0.2c-0.1-0.1-0.3-0.2-0.4-0.3c-0.1-0.1-0.2-0.2-0.2-0.3c0.1-0.1,0.2-0.1,0.3-0.1c0.4,0,0.8,0.1,1.2,0.2
			c0.8,0.1,1.7,0.2,2.5,0.2c0.1,0,0.2,0,0.3,0c0.1,0,0.1,0,0.2,0.1c0,0.1-0.1,0.1-0.1,0.2c-0.2,0.1-0.4,0.2-0.6,0.2
			c-0.9,0.2-1.7,0.5-2.6,0.8c-0.2,0.1-0.4,0.2-0.5,0.1c-0.1-0.1,0-0.3,0.1-0.5c0-0.1,0-0.1,0-0.2c-0.7,0-1.4,0.1-2.1,0.1
			c-1.6,0.1-3.2,0.3-4.8,0.4c-1.2,0.1-2.4,0.2-3.7,0.3c-0.2,0-0.4,0-0.6,0c-1.8,0.2-3.5,0.4-5.3,0.3c-0.1,0,0,0.1,0,0c0,0,0,0,0,0
			c1.1-0.1,2.2-0.1,3.3,0c0.6,0,1.3,0,1.9,0.1c1.9,0.1,3.8,0.1,5.7,0.2c0.8,0.1,1.7,0,2.5,0.1c1.5,0.1,3,0.1,4.6,0.2
			c0.3,0,0.3-0.1,0.2-0.3c-0.1-0.4,0-0.5,0.4-0.4c1.1,0.3,2.2,0.6,3.3,0.9c0.1,0,0.2,0.1,0.2,0.1c0.1,0,0.1,0,0.2,0.1
			c0,0.1-0.1,0.1-0.2,0.1c-0.1,0.1-0.3,0.2-0.5,0.2c-1.3,0.1-2.5,0.3-3.7,0.6c-0.1,0-0.1,0-0.2,0c-0.1,0-0.3,0.1-0.3-0.1
			c0-0.1,0.1-0.2,0.2-0.3c0.2-0.1,0.3-0.3,0.5-0.4c-1.9-0.1-3.7-0.1-5.5-0.2c-2-0.1-3.9-0.1-5.9-0.2c-0.5,0-0.9,0-1.4,0
			c-1.7-0.1-3.3-0.1-5-0.2c-0.1,0,0,0.1,0,0c0,0,0,0,0,0c1.7,0.1,3.3,0.5,4.9,0.8c1.7,0.2,3.3,0.6,5,0.8c1.9,0.3,3.7,0.6,5.6,0.9
			c0.4,0.1,0.6,0.2,0.8-0.4c0.1-0.3,0.3-0.4,0.6-0.2c0.8,0.5,1.6,0.9,2.4,1.3c0.1,0,0.2,0.1,0.2,0.2c0,0-0.1,0-0.1,0
			c-0.2,0.1-0.4,0.1-0.6,0.1c-1.4,0-2.8,0-4.2,0.1c-0.1,0-0.3,0-0.4-0.1c0-0.1,0.2-0.2,0.3-0.2c0.3-0.1,0.6-0.2,1-0.4
			c-1.9-0.3-3.8-0.6-5.6-0.9c-1.6-0.3-3.3-0.6-4.9-0.8c-1.6-0.3-3.3-0.5-4.9-0.9c-0.2,0-0.4-0.1-0.4-0.1c1.7,0.5,3.4,1.2,5.1,1.8
			c1.7,0.6,3.4,1.2,5.1,1.8c0.6,0.2,1.3,0.4,1.9,0.7c0.3,0.1,0.5,0.1,0.7-0.1c0.8-0.6,0.8-0.6,1.3,0.2c0.2,0.3,0.4,0.5,0.7,0.8
			c0.1,0.1,0.3,0.2,0.2,0.4l0,0c-0.6,0.2-1.2,0-1.8-0.1c-0.7,0-1.4-0.1-2.1-0.1c-0.3,0-0.7,0-1.1-0.3c0.6-0.3,1.2-0.4,1.7-0.4
			c-2.2-0.7-4.4-1.6-6.6-2.4c-0.1,0-0.2-0.1-0.2-0.1c-1.8-0.7-3.7-1.3-5.5-2c1.7,1.3,3.5,2.6,5.2,3.9c0.1,0,0.1,0.1,0.1,0.1
			c0.7,0.5,1.4,1,2,1.5c0.2,0.2,0.4,0.2,0.7,0.1c0.3-0.2,0.7-0.3,1-0.4c0.1,0,0.4-0.1,0.3,0.1c-0.2,0.6-0.2,1.2-0.3,1.8
			c-0.1,0-0.2,0-0.2,0c-0.1,0-0.3,0-0.4,0c-1.2-0.3-2.4-0.6-3.6-0.8c0,0-0.1,0-0.1-0.1c0,0,0-0.1,0-0.1c0,0,0.1-0.1,0.2-0.1
			c0.6,0,1.2-0.1,2-0.1c-0.6-0.4-1.2-0.9-1.7-1.3c-0.1,0-0.1-0.1-0.2-0.1c-2-1.5-3.9-3-6-4.4c0.4,0.9,0.7,1.8,1,2.7
			c0.4,1.1,0.9,2.3,1.3,3.4c0.1,0.3,0.3,0.4,0.6,0.3c0.4-0.1,0.8-0.2,1.3-0.3c0.1,0,0.3-0.1,0.4,0.1c0.1,0.1-0.1,0.2-0.2,0.3
			c-0.5,0.4-1,0.9-1.4,1.5c-0.1,0.1-0.2,0.2-0.4,0.2c-0.1,0-0.1-0.1-0.2-0.1c-0.9-0.6-1.9-0.9-2.9-1.3c0.1-0.2,0.3-0.2,0.5-0.2
			c0.4,0,0.8,0.1,1.2,0.1c0.5,0,0.6,0,0.4-0.5c-0.2-0.5-0.4-1.1-0.6-1.6c-0.6-1.3-1-2.7-1.5-4.1c0-0.1,0-0.2-0.1-0.3
			c-0.4,0.7-0.7,1.4-1,2.2c-0.7,1.5-1.4,2.9-2,4.4c0.5-0.1,0.9-0.1,1.4-0.1c0.2,0,0.6-0.1,0.6,0.1c0.1,0.2-0.3,0.3-0.5,0.3
			c-0.8,0.4-1.6,0.7-2.3,1.2c-0.2,0.2-0.4,0.3-0.6,0c-0.3-0.6-0.8-1-1.3-1.4c-0.1-0.1-0.3-0.1-0.2-0.3c0.1-0.1,0.2-0.1,0.3-0.1
			c0.4,0.1,0.9,0.2,1.3,0.2c0.3,0,0.4,0,0.5-0.3c0.1-0.3,0.2-0.5,0.3-0.8c0.9-1.8,1.7-3.6,2.6-5.5c-1.6,1.1-3.1,2.3-4.6,3.3
			c-0.5,0.4-1.1,0.8-1.6,1.2c-0.1,0.1-0.2,0.2-0.4,0.2c-0.2-0.2,0-0.4,0-0.5c0.2-0.3,0.6-0.5,0.9-0.7c1.5-1.1,3.1-2.3,4.6-3.4
			c0.1-0.1,0.3-0.2,0.5-0.3c-1.6,0.7-3.3,1.3-4.9,1.9C19.5,29.6,19.2,29.8,18.9,29.8z"/>
		<g>
			<path class="st0" d="M1.7,25.4c0.2-0.4,0.1-0.8,0.1-1.2c0.2-1.6,0.5-3.1,0.9-4.5c0.6-2.1,1.5-4.1,2.7-5.9c0.5-0.7,1-1.5,1.5-2.1
				c0.2-0.2,0.4-0.4,0.5-0.6c0.5-0.3,0.7-0.8,1-1.1l0,0c0.6-0.5,1.2-0.9,1.8-1.4C12.4,7,14.6,6,17,5.7c2-0.2,3.9,0.1,5.6,1.1
				c0.2,0.1,0.5,0.2,0.7,0.4c0.1,0.1,0.3,0.1,0.3,0.3c0,0.3-0.2,0.6-0.3,0.8c-0.3,0.8-0.6,1.5-0.9,2.3c-0.1,0.1-0.1,0.3-0.3,0.4
				c-0.6-0.3-1-0.8-1.5-1.2c-1.3-1-2.7-1.6-4.4-1.8c-2.2-0.3-4.1,0.5-5.9,1.7c-2.3,1.6-4,3.8-5.3,6.2c-1.1,2-1.9,4.1-2.1,6.4
				c-0.3,2.6-0.1,5.1,1,7.5c0.1,0.3,0.3,0.7,0.4,1c0.1,0.2,0.1,0.4-0.1,0.5c-0.5-0.1-0.8-0.4-1.1-0.7C3,30.3,2.7,30,2.5,29.8
				c-0.5-0.6-0.8-1.2-0.8-2C1.7,27,1.7,26.2,1.7,25.4z"/>
			<path class="st0" d="M1.7,27.8c0.2,1.1,0.8,1.9,1.5,2.7c-0.1,1,0.1,2,0.3,2.9c0.7,3.3,2.1,6.3,4.3,8.9c1.6,1.9,3.4,3.4,5.6,4.6
				c2.1,1.2,4.4,1.9,6.8,2.3c0.5,0.1,0.9,0.1,1.4,0.2c0.3,0.2,0.6,0.5,0.6,0.9c-0.1,0.1-0.3,0.1-0.4,0.1c-2.4-0.3-4.6-0.9-6.7-1.9
				c-0.2-0.1-0.3-0.2-0.5-0.2c-1.5-0.8-2.9-1.8-4.2-2.9c-1.7-1.4-3.1-3.1-4.3-4.8c-1.7-2.4-2.9-5.1-3.6-8c-0.3-1.3-0.6-2.6-0.6-3.9
				c0-0.1-0.1-0.1-0.1-0.2C1.7,28.4,1.7,28.1,1.7,27.8z"/>
			<path class="st0" d="M22.2,50.3c-0.2-0.3-0.4-0.5-0.6-0.8c-0.5-0.5-0.7-1.2-0.9-1.8c-0.1-0.1-0.1-0.2,0-0.4
				c0.1-0.1,0.1-0.2,0-0.4c-0.1-0.4,0.1-0.5,0.4-0.6c1.3-0.3,2.6-0.8,3.8-1.4c1.4-0.8,2.8-1.7,4-2.8c2.2-1.9,4-4,5.5-6.5
				c0.2-0.3,0.4-0.5,0.8-0.5c0.5,0,0.9-0.2,1.3-0.5c0.1-0.1,0.3-0.1,0.5-0.2c0.1,0,0.2,0,0.3,0c2.1-0.4,4.2-1,6.3-1.7
				c0,0,0.1,0,0.1,0c1.6-0.6,3.2-1.3,4.6-2.4c0.1,0,0.1-0.1,0.2-0.1c1-0.8,1.8-1.6,2.3-2.7c0.1-0.1,0.1-0.1,0.2-0.2
				c0.1-0.1,0.1-0.3,0.3-0.3c0,0.3,0,0.5,0,0.8c-0.2,4.9-1.7,9.3-4.5,13.3c-3.6,5-8.5,8.2-14.5,9.7c-2.3,0.6-4.7,0.7-7.1,0.6
				c-0.5,0-1.1-0.1-1.6-0.3C22.9,51.1,22.4,50.8,22.2,50.3z"/>
			<path class="st0" d="M29.3,2.4c1.3,0.1,2.5,0.4,3.7,0.7c3.1,0.9,5.9,2.3,8.4,4.2c2.2,1.7,4,3.6,5.6,5.9c1.9,2.8,3.2,6,3.7,9.3
				c0.2,1,0.3,1.9,0.3,2.9c0,0-0.1,0-0.1-0.1c-0.2-0.5-0.5-1-0.8-1.5c0.1-0.3,0-0.6,0-0.9c-0.3-2.4-1.1-4.7-2.1-6.8
				c-0.9-1.8-2.1-3.4-3.4-4.9c-1.9-2.1-4.1-3.8-6.7-5.1c-2.1-1.1-4.3-1.9-6.7-2.1c-0.2,0-0.3-0.2-0.4-0.3c-0.4-0.5-0.8-1-1.4-1.3
				C29.4,2.5,29.3,2.5,29.3,2.4z"/>
			<path class="st0" d="M23.6,7.5c-0.6-0.4-1.2-0.7-1.8-1c-1.2-0.6-2.4-0.7-3.7-0.8c-1,0-2,0.2-2.9,0.4c-2.3,0.6-4.3,1.9-6.1,3.4
				C8.9,9.7,8.8,9.8,8.6,9.8C10.2,8,12,6.6,14,5.5c0.3-0.2,0.7-0.4,1.1-0.5c1.1-0.4,2.1-0.7,3.3-0.8c2-0.3,3.9-0.2,5.7,0.6
				c0.4,0.2,0.7,0,1.1,0c0.2,0.1,0.1,0.2,0,0.3c-0.6,0.8-1,1.7-1.4,2.5C23.7,7.5,23.7,7.5,23.6,7.5z"/>
			<path class="st0" d="M25.2,4.8c-0.1,0-0.2,0-0.3,0c-0.3,0.4-0.6,0.1-0.9,0c-1.5-0.6-3-0.8-4.6-0.7c-1.3,0.1-2.5,0.4-3.7,0.8
				c-0.2,0.1-0.4,0.1-0.6,0.1c1.3-0.8,2.7-1.3,4.1-1.7c1.4-0.4,2.8-0.7,4.2-0.9c1.6-0.2,3.2-0.1,4.8-0.1c0.4,0,0.8,0.1,1.2,0.2
				c0.8,0.4,1.4,1,1.9,1.7c0.2,0.1,0.3,0.3,0.3,0.6c0,0.1-0.1,0.1-0.1,0.1C31.1,4.6,31,4.3,30.8,4c-0.7-0.9-1.5-1.4-2.6-1.5
				c-0.4,0-0.8,0.2-1.1,0.4c-0.5,0.3-1,0.7-1.2,1.3C25.7,4.4,25.5,4.7,25.2,4.8z"/>
			<path class="st0" d="M22.2,50.3c0.4,0.4,0.7,0.7,1.2,0.9c-1,0-2-0.3-2.9-0.5c-2.1-0.5-4.1-1.3-6-2.3c0.1-0.2,0.3,0,0.4,0
				c1.8,0.8,3.7,1.4,5.6,1.8c0.4,0.1,0.9,0.1,1.4,0.2C22,50.4,22.1,50.4,22.2,50.3z"/>
			<path class="st0" d="M50.3,23.9c0.4,0.5,0.6,1,0.8,1.6c0.1,0.8,0.2,1.6,0,2.4c0-0.2,0-0.5,0-0.8c-0.1,0.2-0.2,0.3-0.3,0.4
				c-0.1,0.1-0.2,0-0.2-0.1c0-0.3,0.2-0.6,0.2-1c0.1-1-0.4-1.9-1-2.6c-1-1.1-2.2-1.9-3.5-2.5c-3.3-1.6-6.9-2.3-10.5-2.8
				c-0.6-0.1-1.2-0.1-1.7-0.3c0-0.3,0.2-0.2,0.4-0.2c0.8,0,1.6,0.2,2.4,0.3c2.5,0.4,5,0.9,7.4,1.7c1.8,0.6,3.4,1.4,4.9,2.5
				c0.4,0.3,0.7,0.6,1,0.9C50.2,23.7,50.3,23.8,50.3,23.9z"/>
			<path class="st0" d="M4.2,31.2c0.2-0.1,0.1-0.3,0-0.5c-0.5-1-0.9-2-1.2-3.1c-0.2-0.8-0.2-1.7-0.3-2.5c-0.2-2.3,0.3-4.5,1.1-6.6
				c0.8-2.1,1.9-4,3.2-5.7c1-1.2,2.1-2.3,3.4-3.2C11.6,8.7,13,8.1,14.5,8c2.5-0.3,4.7,0.5,6.6,2.1c0.4,0.3,0.7,0.6,1.1,0.9
				c0,0.1,0,0.2,0,0.3c-0.2,0.8-0.6,1.6-0.7,2.5c0,0.1,0,0.3-0.2,0.4c-0.3-0.1-0.4-0.3-0.5-0.5c-0.9-1.2-2-2.3-3.4-3.1
				c-2.1-1.1-4.1-1.1-6.1,0c-2.3,1.2-3.9,3.2-5.2,5.3c-1.2,1.9-2,4-2.2,6.3c-0.2,2.1,0,4.2,0.9,6.2c0.9,2,2.4,3.3,4.6,3.8
				c1.6,0.3,3.1,0,4.6-0.7c1.6-0.7,2.9-1.9,4.2-3.2c0.2-0.3,0.6-0.4,0.5-0.9c0-0.2,0.1-0.3,0.3-0.2c0.1,0.1,0.1,0.2,0.1,0.3
				c0,0.2,0,0.4,0,0.6c0,0.1,0,0.3,0,0.4c0,0.3,0,0.6-0.1,0.9c0,0.2,0,0.3,0,0.5c-0.1,0.7,0,1.3-0.1,2c0,0.2-0.1,0.4,0,0.6
				c0,0.2,0,0.5,0,0.7c0,0.2,0,0.4,0.2,0.6c0,0,0.1,0.1,0,0.2c-0.3,0.3-0.2,0.7-0.2,1c0,0.4-0.2,0.6-0.5,0.5c-0.8,0-1.6-0.2-2.4-0.3
				c-2.2-0.3-4.3-0.8-6.4-1.4c-0.6-0.3-1.3-0.5-1.9-0.7c-0.5-0.3-1-0.5-1.5-0.7c-0.6-0.3-1.1-0.6-1.6-1C4.3,31.5,4.2,31.4,4.2,31.2z
				"/>
			<path class="st0" d="M29.5,35.7c0.2,0,0.2-0.1,0.3-0.2c0.9-0.2,1.7-0.2,2.6-0.3c0.1,0,0.2,0,0.2,0c1-0.1,2.1-0.3,3.1-0.5
				c0.2,0,0.5-0.1,0.7,0c-0.4,0.3-0.8,0.5-1.3,0.6c-0.3,0-0.5,0.1-0.7,0.4c-0.7,1.3-1.6,2.5-2.6,3.6c-0.8,1-1.7,1.9-2.7,2.8
				c-0.9,0.8-1.9,1.5-2.9,2.2c-1.6,1-3.2,1.8-5.1,2.2c-0.4,0.1-0.6,0.2-0.4,0.6c0.1,0.2,0,0.3-0.2,0.3c-0.2,0-0.3-0.2-0.3-0.4
				c-0.1-0.3-0.2-0.7-0.3-1c-0.2-0.5-0.4-1.1-0.5-1.6c0-0.4-0.1-0.7-0.2-1.1c0-0.2-0.1-0.4,0-0.6c0.1-0.3,0.3-0.4,0.6-0.5
				c1.6-0.7,3.1-1.5,4.5-2.6c1.2-1,2.3-2,3.3-3.2C28.2,35.8,28.8,35.6,29.5,35.7z"/>
			<path class="st0" d="M19.1,26.3c-0.1,0.1-0.1,0.2-0.1,0.3c0.1,0.1,0.1,0.2,0,0.2C19,27,19,27.1,19,27.2c-0.3,0-0.3,0.2-0.2,0.4
				c0.2,0.2,0,0.2-0.1,0.4c-0.3,0.3-0.6,0.6-0.9,0.9c-0.9,0.9-1.9,1.7-3,2.4c-1.3,0.7-2.6,1.2-4.1,1.2c-2.5,0-4.4-1.2-5.7-3.3
				c-0.9-1.5-1.2-3-1.3-4.7c-0.1-1.8,0.1-3.5,0.7-5.2c0.7-2.1,1.8-3.9,3.2-5.6c1-1.3,2.2-2.3,3.7-3.1c1.7-0.9,3.4-1.1,5.3-0.5
				c1.6,0.6,2.8,1.7,3.8,3c0.3,0.4,0.6,0.8,0.9,1.1c0.1,0.2,0,0.4,0,0.6c-0.3,1.2-0.6,2.4-0.8,3.6c-0.2,1-0.4,2-0.5,3
				c0,0.1,0,0.3-0.2,0.3c-0.1,0.1-0.1,0.3-0.1,0.5c0.2,0.4,0,0.9,0,1.3c0,0.2,0,0.5-0.2,0.7c-0.1,0.2-0.2,0.3-0.1,0.5
				c0.1,0.2,0.1,0.3-0.1,0.4c-0.1,0.2-0.1,0.4-0.1,0.6C19.3,25.9,19.3,26.1,19.1,26.3z"/>
			<path class="st0" d="M19.2,41.7c-0.1-1.2-0.2-2.3-0.3-3.5c-0.1-0.8-0.1-1.6-0.1-2.4c0-0.4,0.3-0.3,0.5-0.3
				c0.9,0.1,1.7,0.2,2.6,0.2c0.2,0.3,0.3,0.1,0.5,0c1.2-0.1,2.4,0,3.5,0c1,0,2-0.1,3-0.1c0.2,0,0.4,0,0.6,0.1c0,0,0.1,0.1,0.1,0.1
				c-0.2,0.1-0.4,0.1-0.6,0.1c-0.4,0-0.6,0.1-0.8,0.4c-0.7,0.9-1.4,1.6-2.2,2.4c-1.7,1.7-3.7,2.9-5.9,3.8c-0.2,0.1-0.4,0.2-0.5,0.4
				c-0.1,0-0.1-0.2-0.2-0.3C19.3,42.3,19.3,42,19.2,41.7z"/>
		</g>
	</g>
	<path class="st0" d="M33.1,31.5c0.1-0.7,0.2-1.4,0.3-2.1c0.1,0,0.1,0,0.2,0.1c-0.1,0.7-0.1,1.4-0.3,2.1
		C33.2,31.6,33.2,31.5,33.1,31.5z"/>
	<path class="st0" d="M33.2,32.1c-0.1,0.5-0.2,1-0.3,1.5c-0.1,0-0.1,0-0.2,0c0-0.4,0.2-0.9,0.2-1.3c0.1-0.1,0.1-0.2,0.1-0.3
		C33.1,32,33.2,32.1,33.2,32.1z"/>
	<path class="st0" d="M32.5,35.4c0.1-0.6,0.2-1.1,0.3-1.7c0,0,0.1,0,0.1,0c-0.1,0.5-0.2,1.1-0.3,1.6C32.6,35.4,32.5,35.4,32.5,35.4z
		"/>
	<path class="st0" d="M28.1,2.4"/>
</g>
<g>
	
		<ellipse transform="matrix(8.891738e-02 -0.996 0.996 8.891738e-02 -2.4635 50.9224)" class="st1" cx="26.6" cy="26.8" rx="24.2" ry="7.5"/>
	<ellipse class="st1" cx="26.3" cy="26.6" rx="24.2" ry="9.1"/>
</g>
</svg>
