<?xml version="1.0" encoding="utf-8"?>
<!-- Generator: Adobe Illustrator 25.0.1, SVG Export Plug-In . SVG Version: 6.00 Build 0)  -->
<svg version="1.1" id="Layer_1" focusable="false" xmlns="http://www.w3.org/2000/svg" xmlns:xlink="http://www.w3.org/1999/xlink"
	 x="0px" y="0px" viewBox="0 0 504 504" style="enable-background:new 0 0 504 504;" xml:space="preserve">
<style type="text/css">
	.st0{fill:#FFFFFF;}
</style>
<g>
	<path class="st0" d="M234.1,496c-4.1-1.5-9.2-4.7-13.3-6.5c-12.5-7.3-15.9-12.1-21.1-25.2c-0.1-0.2-0.6-1.3-0.8-1.4
		c-0.1-0.4-0.4-1-0.5-1.4c-0.1-0.5-0.4-0.8-0.5-1.3c-0.8-2.6-0.9-1.8-1-1.8c0-0.3-0.4-0.5-0.5-0.8c0-0.3-0.2-0.6-0.3-0.9h0.3
		c1.3,0.1,0.9-0.1,2.2-0.4c27.2-6.3,52.1-17.7,74.7-34c10.1-7.3,19.7-15.4,28.6-24.1c7.5-7.5,14.3-15.6,20.8-24
		c10.4-13.5,19.9-27.6,27.3-43c1.7-0.3,2.3-0.4,5.2-0.9c1.8,0.2,3.4-0.7,5-1.3c18.9-3.8,37.6-8.8,55.8-15.2c1.5-0.5,3.5-0.5,4.3-2.3
		c0.2,0,0.3,0.1,0.5,0.1c1.5,0.1,2.8-0.6,4.1-1.1c15.1-5.7,29.4-13,42.7-22.1c1-0.1,1.7-0.5,2.1-1.5c8.8-7,16.8-14.8,21.9-25.1
		c1.7-0.5,2.7-1.6,3-3.4c0.8-1.4,0.2-3.6,2.5-4.2c-0.9,51.3-15.6,98.2-45.8,139.8c-35.8,49.4-83.6,81.3-142.9,95.9
		c-11.6,2.9-23.4,5.1-35.4,5.4"/>
	<path class="st0" d="M6.8,261.8c-0.5-12.1,0.2-24,1.4-36.1c3-30.8,12-59.7,26-87.1c5.7-11.2,12.2-21.9,20.2-31.5
		c1.9,0.1,2-1.2,1.9-2.6l0,0c2,0,2.9-1.5,4-2.8c3.1-3.5,5.9-7.3,9.2-10.6c15.3-15.5,32.7-28.1,52.7-36.9c12.9-5.7,26.4-8.8,40.4-9.4
		c12-0.4,23.8,1.8,34.9,6.4c5.1,2.1,10.7,3.9,14.2,8.3c2.7,3.5,5.5,5.6,9.9,4.9c-0.2,2.5-2.4,4.1-3.2,6.4
		c-3.9,11.2-7.8,22.4-11.8,33.6c-0.4,1.1-0.3,2.7-2.1,2.9c-0.3-0.8-0.4-1.7-1-2.3c-5.9-6-11-12.5-17.6-17.9
		c-17.6-14.2-37.7-18.2-59.3-13.7c-20.3,4.1-37.3,15-52.3,28.9c-8.3,7.8-15.7,16.3-22.4,25.6C33,154.3,22.4,183.7,20.4,216
		c-0.9,14.3,0.4,28.6,4.3,42.5c3.6,12.7,8.9,24.5,17.2,34.9c3.1,3.9,6.9,7.2,10.2,10.9c0.8,0.9,3.7,0.1,0.8,0.9
		c-6.6-2.1-11.7-7.3-17.8-10.4C22.5,285.8,10.2,278.1,6.8,261.8z"/>
	<path class="st0" d="M208.2,86.3c-4.5,0.7-7.2-1.4-9.9-4.9c-3.5-4.5-9.1-6.3-14.2-8.3c-11.1-4.5-22.9-6.8-34.9-6.4
		c-14,0.5-27.5,3.6-40.4,9.4C88.8,85,71.4,97.5,56.1,113c-3.3,3.3,7.3-14.7,4.2-11.2c-1.1,1.3-15.4,24.6-17.4,24.6
		c3.6-6.5,22.1-33.7,27.1-39c14.6-15.5,30.4-29.6,48.4-41.1c16.6-10.6,34.1-19.4,52.7-25.9c0.8-0.3,1.6-0.3,2.4-0.5
		c1.6,0.9,3.1,0.8,4.9,0.4c15.7-3.4,31.4-3.5,47.3-0.7c6.7,1.2,13,4,19.9,3.8c-0.1,1.7-0.6,3.3-1.8,4.7c-3.5,3.8-6.1,8.1-9,12.3
		C229.6,48,213,78.5,208.2,86.3z"/>
	<path class="st0" d="M217.6,44.7c-6.9,0.2-13.3-2.6-19.9-3.8c-15.9-2.8-31.6-2.8-47.3,0.7c-1.8,0.4-13.4-4.2-15-5.1
		c10.1-4,58.8-22.8,69.4-25.1c18.9-4.1,38.1-4.7,57.3-4.3c6.6,0.1,7.9,0.1,14.5,0.7c1.7,1.1,8.5,4.1,10.2,5.2c-0.3,0.3-0.7,0.7-1,1
		c-0.6-0.3-1.3-0.5-1.9-0.8c-7.9-3.3-15.6-5.9-24.1-1.3C254.2,15,222.3,40.9,217.6,44.7z"/>
	<path class="st0" d="M56.3,104.5c0.1,1.4,0,2.6-1.9,2.6"/>
	<path class="st0" d="M449.9,241.9c0.3-2.7,2.7-4.5,2.8-7.4c-7.6,0.6-29.3,2.2-36.8,2.8c-15.4,1.3-30.8,2.7-46.2,4
		c-14.6,1.3-29.1,2.5-43.7,3.8c-17.2,1.3-34.3,2.7-51.5,4c16,1.4,31.9,2,47.9,2.5c0.8,0,1.7,0.1,2.2-0.9c0.8,0.7,1.7,0.9,2.8,1
		c11.5,0.5,23.1,1.1,34.6,1.5c13.3,0.5,26.5,0.3,39.8,1.2c10.1,0.7,20.2,0.3,30.3,1.2c8.1,0.7,16.3,0.1,24.6,0.1
		c-1.1-2.4-2.3-5.1-3.8-8.3c13.6,4.5,26.6,8.7,40.2,10.4c0.6,0.2,1.2,0.4,1.8,0.6c-0.3,1.8-1.3,2.9-3,3.4c-0.3-1,0.8-2.6-1.7-2.2
		c-8.6,1.4-17.2,2.4-25.7,3.8c-6.4,1-12.8,2.4-20.2,3.8c4.2-3,7.9-5.1,11.5-8.7c-7.8-0.2-14.9-0.5-21.9-0.8
		c-21.9-0.9-43.9-1.1-65.8-2.2c-10.1-0.5-20.2-0.2-30.3-1.1c-4-0.4-8.4-1.5-12.4,0.7c-1.7-0.7-3.4-1.2-5.3-1.3
		c-15.4-0.5-30.8-1-46.2-1.6c-3.3-1.4-6.6-0.3-9.9-0.2c3.4-0.1,6.6,0.7,9.9,1.1c6.4,1,12.9,2.1,19.3,3.1c10.2,1.5,20.3,4,30.7,4.8
		c5.5,1.9,11.4,2.3,17.1,3.3c29.7,5.1,59.4,10,89.1,15c5.9,1,6.1,1.2,7.8-4.5c1-3.2,2-3.5,4.8-1.5c8.4,6,17.4,10.6,27.3,13.6
		c-0.4,0.9-1.1,1.4-2.1,1.5c-0.6-0.8-1.4-0.9-2.3-0.9c-11,0.2-22-0.4-32.9,0.7c-5.1,0.5-10.3,0.6-15.5,0.9c0-0.1-0.1-0.3-0.1-0.4
		c4.9-1.9,9.8-3.8,14.8-5.8c-1.1-1.1-2.1-1.1-3.1-1.3c-26.6-4.5-53.3-9.1-79.9-13.4c-8.1-1.3-16.1-3.4-24.4-3.6
		c-0.8-0.3-1.5-0.8-2.4-0.9c-10.1-1.7-20.2-3.4-30.3-5.1c-7.3-1.2-14.7-2.4-22-3.6c16.7,6.8,33.5,12.8,50.3,18.8
		c0.8,0.3,1.7,0.1,2.5,0.1c1,1.6,2.8,1.9,4.4,2.4c21.3,7.6,42.6,15,63.8,22.9c4.5,1.7,7.6,1.3,10.8-2c1.6-1.6,3.6-4,5.3-3.9
		c2.5,0.1,2.3,3.7,3.5,5.6c2.9,4.8,7.4,8.2,10.6,12.7c-0.2,0-0.3,0-0.5-0.1c-15.4-2.1-31-3.3-46.6-4.8c5.8-1.3,11.7-2.5,18.5-4
		c-17.3-6.2-33.4-12-49.6-17.7c-6.7-2.3-13.1-5.3-20.1-6.7c-0.5-0.3-1.1-0.6-1.6-0.9c-18.7-7.2-37.6-13.8-56.7-19.7
		c16.9,13.2,34.1,25.9,51.3,38.5c1.1,0.8,2.1,2,3.8,1.6c0.9,1.7,2.3,2.9,3.8,4c5.9,4.3,11.8,8.4,17.5,12.9c2.2,1.7,3.8,1.7,6.1,0.6
		c4.3-1.9,8.5-4.2,13.8-5.5c-2.2,4.2-3.1,8.1-3.2,12c-0.1,2.6-1.4,6.3,3.1,7.1c-1.6,0.6-3.2,1.5-5,1.3c-0.2-0.9-0.7-1.4-1.6-1.7
		c-12.2-3.5-24.5-6.7-37.2-8.2c-0.7-0.5-0.6-1,0.2-1.2c6.8,0.3,13.4-1,20.2-1.2c0.1-0.4,0.1-0.8,0.2-1.3
		c-5.9-4.2-11.9-8.5-17.8-12.7c-0.5-0.4-1.1-0.8-1.6-1.1c-0.6-0.6-1.2-1.2-1.8-1.7c-6.3-4.6-12.9-8.9-19-13.6
		c-13-10.2-26.3-19.8-39.7-29.4c-0.3-0.1-0.6-0.2-0.9-0.2c0.1,0.3,0.2,0.6,0.2,0.9c8.1,21.5,16.3,43.1,24.4,64.6
		c0.9,2.3,2.4,1.8,4.2,1.4c5.7-1.4,11.4-2.7,17.1-4c-6.1,5.7-12.5,10.6-16.3,18c-0.8,0.6-1.6,1.1-2.5,1.7c-0.3-0.3-0.6-0.6-0.9-0.8
		c-1.3,0-2.6,0-3.9-0.1c0.6-1,2-0.1,2.5-1.3c-8.7-5.4-18-9.3-28.6-13c7-0.6,13,0.2,18.9,0.6c3.6,0.3,4.8-0.3,3.2-4.2
		c-5.5-13.8-10.6-27.8-15.9-41.7c-2.8-7.4-5.6-14.7-8.7-23.1c-11,23.8-21.4,46.5-32.2,69.8c7.8,0,14.8-1.9,21.8-1.3
		c-9.9,3.9-19.3,8.5-28.2,14.2c-1.7,0.5-3.4,2.9-5.1,0c-4-6.5-9.5-11.5-15.5-16.2c5.9,0.6,11.7,1.3,17.3,2.7
		c3.1,0.8,4.2-0.2,5.4-2.8c9.4-20.4,18.9-40.7,28.3-61.1c0.5-1.1,1.7-2.3,0.7-4c-22.2,16.3-44.2,32.4-66.2,48.6
		c0-1.7-0.1-3.4-0.1-5.1c0.6-0.3,1.3-0.4,1.9-0.8c18.8-13.7,37.5-27.5,56.2-41.3c0.7-0.5,1.9-0.9,1.7-2.2c0.4-0.1,1.1,0.5,1.1-0.5
		c-0.3,0.2-0.7,0.4-1,0.6c-19.9,7.2-39.5,15.2-59.1,23.2c-0.3,0-0.5-0.1-0.8-0.2c0.3-1.7-0.5-3.5,0.8-5.1c0.9,3.4,2.9,0.8,3.9,0.4
		c15.6-5.9,31-12.1,46.5-18.1c1.1-0.4,2.3-0.6,3.4-2.1c-17.2,3.7-33.9,7.2-50.6,10.7c-1.9,0.4-2.4,1.7-3,3.1
		c0.2-2.3-0.8-4.7,0.6-6.8c0.2,2.4,1.8,1.5,3.1,1.3c3.3-0.7,6.7-1.4,10-2.1c12.4-2.6,24.8-5.3,37.2-7.9c-16.8,1.2-33.5,1.7-50.1,4
		c0.1-2.4-0.7-4.9,0.6-7.2c-0.4,3.4,0.8,4.9,4.5,4.3c3.4-0.5,6.8-0.6,10.2-0.9c11.6-1,23.2-1.9,34.9-2.9
		c-16.5-1.1-32.9-1.9-49.4-1.9c-0.1-0.9,0-1.7,0.7-2.3c16.8,0.5,33.6,1.1,50.4,1.6c-16.7-3.2-33.4-6.2-50.2-8.5
		c0.1-2.5-0.7-5,0.7-7.3c-0.5,3.5,0.6,5.2,4.5,5.7c7.6,0.9,15.1,2.6,22.6,3.7c7.8,1.1,15.5,3.4,23.5,3.5c0.5,0.9,1.1,1,2.1,0.2
		c-0.8-0.1-1.5-0.1-2.1-0.2c-0.2-0.2-0.3-0.5-0.5-0.6c-15.5-5.5-31-11-46.4-16.6c-2.7-1-2.7,0.6-3.4,2.1c0.1-2-0.7-4.2,1.4-5.7
		c18.1,6.5,36.2,12.9,54.3,19.4c0-1-0.2-1.4-0.5-1.6c-16.2-11.9-32.4-23.8-48.5-35.7c-1-0.7-1.9-1.8-3.4-1.4
		c0.2-1.8-0.6-3.8,0.9-5.4c19.5,14.5,39,29,58.8,43.8c0.1-1,0.2-1.4,0.1-1.8c-7.7-20.3-15.4-40.6-23.1-61c-0.8-2.1-1.9-2.3-3.9-1.7
		c-5.4,1.5-10.9,2.6-16.4,3.9c6.1-5.6,12.5-10.6,16.1-18.1c0.4-0.7,1-0.8,1.7-0.8c0.2,0.5,0.2,1.3,0.5,1.5
		c6.5,3.7,12.9,7.6,20.1,9.7c2.3,1,4.6,2,8,3.4c-3.7,0-6.2,0-8.7,0c-3-0.2-6-0.1-9-0.6c-3.5-0.6-4.2,0-2.8,3.6
		c7.5,19.4,14.8,38.8,22.2,58.2c0.4,0.9,0.2,2.4,1.8,2.6c1.1-1.7,2.1-3.4,2.4-5.4c9.3-19.9,18.6-39.8,28.1-60
		c-6.8,0.6-13.1,1.2-19.3,1.7c9.8-4.9,19.2-9.8,28.4-15.6c3.8,7,9.1,12.3,15.1,16.9c-5-0.5-9.8-1.3-14.5-2.3c-3.2-0.7-5-0.2-6.5,3.2
		c-5.1,11.7-10.8,23.2-16,34.9c-3.8,8.5-8.3,16.8-11.5,25.7c-0.5,0.2-0.7,0.5-0.2,0.9c0,0,0.3-0.4,0.5-0.6c6.3-3.9,11.8-8.8,17.8-13
		c9.6-6.7,19-13.7,28.5-20.6c8.4-6.1,17-11.9,24.9-18.7c3.2-1.7,6-3.9,9.1-6.8c-3.6,0-6.4,0-9.2,0c-3.3-0.3-6.5-0.6-9.8-0.9
		c0.1-0.2,0.1-0.3-0.1-0.5c2.9-0.7,5.8-1.4,8.8-2.1c0.4-0.2,0.8-0.3,1.1-0.5c10-1.9,19.7-4.5,29.1-8.6h0.2c-0.5,6.1-1.7,12.1,1.4,19
		c-4.9-1.8-9-3.1-13.1-4.8c-1.8-0.7-3.2-0.9-4.7,0.3c-4.4,3.4-8.8,6.7-13.2,10c-0.6,0.4-1.3,0.9-1.9,1.3
		c-18.3,13.4-36.5,26.7-54.8,40.1c-2.6,1.9-5.2,3.9-8.3,6.2c2.3,0.4,3.5-0.5,4.8-1c12.9-5,25.9-10.1,38.8-15.2
		c7.1-2.8,14.2-5.8,21.3-8.7c11.1-4.3,22.3-8.5,33.4-12.9c7.9-3.1,15.7-6.2,23.6-9.3c0-0.3-0.1-0.6-0.1-0.8
		c-5.8-0.9-11.5-1.8-17.3-2.7c15.5-1.7,30.8-3.9,47.1-6.7c-4.8,4.3-8.5,8.2-11.5,12.8c-3.4,5.3-3.5,5.4-8.5,1.2
		c-2.8-2.3-5.2-3.1-8.8-1.4c-5.9,2.8-12.2,4.8-18.2,7.3c-13.4,5.5-27.1,10.2-40.4,16.2c-0.6,0.2-1.2,0.4-1.9,0.6
		c-18.7,7.2-37.4,14.5-56.1,21.7c7.3-0.5,14.2-1.9,21.2-3.5c11.7-2.6,23.5-4.5,35-7.8c0.6-0.2,1.2-0.3,1.8-0.5
		c3.6-0.7,7.3-1.2,10.9-2c27.2-5.8,58.9-12.4,87.3-18.5c-5.7-1.9-10.3-3.5-14.9-5.1c15.8-0.3,31.4-0.1,48.4-0.9
		c-9.4,4.5-17.6,8.4-24.9,13.9c-2.6,2-3.8,1.7-4.4-1.5c-0.6-3.6-2.1-4.7-6.2-3.8c-19.6,4.4-43.7,9.1-63.3,13.4
		c-11.2,2.5-22.6,4.3-33.7,7.6c-0.4,0-0.7,0-1.1,0.1c-16.4,3.4-32.9,6.8-49.3,10.2c0.1,0.5,0.1,1,0.2,1.4
		c16.1-1.4,32.2-2.9,48.3-4.3c0.6,0,1.1,0,1.7,0c37.1-3.1,88.5-7.3,126.1-10.4c-2.8-2.9-6.4-3.7-9-7c14.9,2.4,29.1,3.9,43.6,5.1
		c-4.7,1.6-9.4,2.9-14.1,4.3 M262.3,243.4c-0.1,0.1-0.2,0.1-0.3,0.2c0.1,0.1,0.2,0.2,0.2,0.2c0.1,0,0.2-0.1,0.3-0.2
		C262.5,243.5,262.4,243.4,262.3,243.4z"/>
	<path class="st0" d="M283.2,340.6c0.8-0.6,1.6-1.1,2.5-1.7c8.6-0.7,17.3-1.2,25.9-2.6c0.6,0,1.2,0,1.8,0c1.4-0.1,2.8-0.2,4.2-0.4
		c10.8-1.5,34.7-5.7,45.5-7.2c-7.4,15.4-16.9,29.5-27.3,43c-6.5,8.4-13.3,16.6-20.8,24c-8.9,8.8-18.4,16.8-28.6,24.1
		c-22.6,16.3-56.2,38.1-83.4,44.4c-1.3,0.3-1.1,0.2-2.4,0.1c-1.2-1.4-5.2-11.1-5.8-12.8c-2-6.6-3.9-13.2-5.9-19.8
		c-1.4-7.1-3.7-16-5.1-23.1c0.5-2.4,0.6-1.4,3-2.2c9.1-3.3,17.8-7.6,26.1-12.4c20.2-11.8,36.9-27.6,52.1-45.1
		c2.3-2.7,5.6-4.9,6.3-8.9c2.4-0.1,4.8-0.2,7.1-0.3c1.3,0,2.6,0,3.9,0.1C282.6,340.1,282.9,340.3,283.2,340.6z"/>
	<path class="st0" d="M60.5,309c2.9-0.8-7.6-3.7-8.4-4.6c-3.3-3.7-16.9-11.8-20-15.8c-8.3-10.4-13.6-22.2-17.2-34.9
		c-3.9-13.9-5.2-28.2-4.3-42.5c2-32.3,20.4-75.9,39.2-102.3c6.6-9.3,14.1-17.9,22.4-25.6c15-14,32-24.8,52.3-28.9
		c21.7-4.4,41.7-0.4,59.3,13.7c6.6,5.3,13.9,31,19.7,37c0.5,0.6,0.7,1.5,1,2.3c-0.3,8.3-3.9,15.8-5.8,23.8
		c-2.7,12-6.3,23.7-7.9,35.9c-2,11-4,22-6.1,33.1c-1.6,1.6-0.7,3.5-0.9,5.4c-0.3,4.3-0.7,8.6-1.8,12.8c-1.2,1.6-0.8,3.3-0.4,5
		c0.1,0.5,0.2,1.1,0.3,1.6c-2.1,1.5-1.3,3.7-1.4,5.7c-0.1,0.8-0.1,1.5-0.2,2.3c-1.3,2.3-0.6,4.9-0.7,7.3c-0.1,0.4-0.1,0.8-0.2,1.3
		c-1,1.4-1,2.8-0.1,4.2c0,0.5,0.1,1,0.1,1.5c-0.8,0.6-0.8,1.4-0.7,2.3c0,0.5-0.1,1-0.1,1.4c-1.3,2.3-0.6,4.8-0.6,7.2
		c-0.1,1.6-0.2,3.2-0.2,4.8c-1.4,2.2-0.4,4.6-0.6,6.8c-0.1,2-0.1,4-0.2,6c-1.3,1.5-0.5,3.4-0.8,5.1c-8.1,6-16.2,12.2-24.5,18
		c-17.8,12.5-37.1,21.2-59.5,20.5c-2.2-0.1-3.2-1.2-4.9,0.4c-0.9-0.2-2.5-1.4-3.4-1.6c-2.1-1.8-5.8-1.6-8-2.9 M40.7,204.2
		c0.3,20.7,5.1,38.5,20.1,52.5c10.9,10.2,23.9,13.5,38.2,11.8c14.7-1.7,26.7-9.2,37.1-19.3c8-7.8,14.3-16.9,19.8-26.5
		c8.6-15.2,14-31.3,14.2-48.9c0.2-12.1-2.7-23.6-7.5-34.6c-3.6-8.3-8.3-16.2-15.6-21.5c-11.6-8.5-24.8-10.6-38.9-7.3
		c-18.5,4.4-32.2,15.8-43.6,30.2C49.6,159.4,41.1,180.9,40.7,204.2z"/>
	<path class="st0" d="M176.8,355.9c0.3-4.8,0.6-9.6-0.4-14.4c0.2-1.2,0.3-2.3,0.5-3.5c9.8,0.4,19.6,1.9,29.4,1.8
		c1.7,2.9,3.4,0.5,5.1,0c1.4,1.2,3,0.7,4.5,0.7c18.5,0.2,79.2,1.3,97.6,0.5c-0.6,4-4,6.2-6.3,8.9c-15.2,17.5-31.9,33.4-52.1,45.1
		c-8.3,4.9-17,9.1-26.1,12.4c-2.4,0.9-2.6-0.6-3.1,1.8c-1.1-1.2-37.8,13.8-38.4,12.4"/>
	<path class="st0" d="M177.8,305.8l-0.1,0.2c-1.1,1-0.9,2.3-0.9,3.6c0,8.8,0,17.6,0,26.4c-1.5,0.1-2.9,0.1-4.4,0.2
		c-13.2-1.3-26.3-2.8-39.3-5.4c-15.3-3-30.6-5.8-45.3-11c1.7-1.6,3.7-1.8,5.9-1.7c22.4,0.7,41.6-8,59.5-20.5
		c8.3-5.8,16.3-12,24.5-18c0.3,0.1,0.5,0.1,0.8,0.2c-0.3,2.8-0.6,5.6-0.9,8.5c-1.3,4-1.3,8,0,12c0.1,0.2,0.1,0.4,0.1,0.6
		C177.7,302.4,177.7,304.1,177.8,305.8z"/>
	<path class="st0" d="M27.1,207.4c0.5-28.2,10.6-54.2,28.8-77.1c13.8-17.4,30.4-31.2,52.8-36.5c17.1-4,33-1.5,47.1,8.8
		c8.8,6.4,14.4,16,18.9,26c5.8,13.3,9.3,27.3,9.1,41.9c-0.2,21.3-6.8,40.8-17.2,59.2c-6.7,11.7-14.3,22.7-24,32.1
		C130,274,115.3,283,97.7,285.1c-17.3,2.1-33-1.9-46.2-14.3C33.4,254,27.5,232.5,27.1,207.4z"/>
	<path class="st0" d="M182.2,218.3c-0.1,1.7-0.2,3.3-0.4,5C181.4,221.6,180.9,219.9,182.2,218.3z"/>
	<path class="st0" d="M326.1,165.2c0.6-13.4-0.7-26.7-1.8-40c-1.5-16.1-3.9-32.2-7.3-48c0.2-0.2,0.4-0.5,0.6-0.7
		c2.8,8.3,3.8,17,5.1,25.5c2.8,18.9,4.3,38,4.7,57.1c0,2-0.1,4-0.1,5.9C326.8,165.1,326.4,165.2,326.1,165.2z"/>
	<path class="st0" d="M176.1,337.3c-0.2,0-0.5-0.1-0.7-0.1c0-8.8,0-17.6,0-26.4c0-1.2-0.3-2.6,0.9-3.6c0,3.8,0,7.6,0,11.5
		c0,1.9,0.1,3.6,2.1,3.2C174.1,326.5,177.5,332.3,176.1,337.3z"/>
	<path class="st0" d="M233.9,496c-0.7,0-1.4,0-2-0.1c-20.2-1.7-36.9-28.9-47-76.7c-9.9-47.1-12.4-108.8-6.9-173.7
		c5.4-64.9,18.1-125.4,35.7-170.2c17.9-45.4,38.8-69.6,59.1-67.8c20.2,1.7,36.9,28.9,47,76.7c9.9,47.1,12.4,108.8,6.9,173.7
		C315.4,392.7,274.9,496,233.9,496z M270.8,11C253,11,233.5,34.7,217,76.6c-17.5,44.5-30.1,104.6-35.5,169.2s-3,125.9,6.9,172.7
		c9.6,45.4,25.5,72.4,43.8,73.9c39.2,3.2,79.9-102,91-234.7l1.8,0.1l-1.8-0.1c5.4-64.6,3-125.9-6.9-172.7
		c-9.6-45.4-25.5-72.4-43.8-73.9C271.9,11,271.4,11,270.8,11z"/>
	<path class="st0" d="M252,343.3c-135.3,0-245.3-40.7-245.3-90.7s110-90.7,245.3-90.7s245.3,40.7,245.3,90.7S387.3,343.3,252,343.3z
		 M252,165.4c-133.3,0-241.7,39.1-241.7,87.1s108.4,87.1,241.7,87.1s241.7-39.1,241.7-87.1S385.3,165.4,252,165.4z"/>
	<ellipse class="st0" cx="249.9" cy="249.9" rx="25.9" ry="9.8"/>
	<path class="st0" d="M252,500C115.3,500,4,388.7,4,252S115.3,4,252,4s248,111.2,248,248C500,388.7,388.7,500,252,500z M252,9.4
		C118.2,9.4,9.4,118.2,9.4,252S118.2,494.6,252,494.6S494.6,385.8,494.6,252S385.8,9.4,252,9.4z"/>
</g>
</svg>
