<?xml version="1.0" encoding="UTF-8"?><svg id="Layer_1" xmlns="http://www.w3.org/2000/svg" viewBox="0 0 900 650"><defs><style>.cls-1,.cls-2,.cls-3{fill:#eef8ff;}.cls-4,.cls-5{stroke:#d81b60;}.cls-4,.cls-5,.cls-6,.cls-7,.cls-8,.cls-9{fill:none;stroke-linecap:round;stroke-width:10px;}.cls-4,.cls-5,.cls-6,.cls-7,.cls-8,.cls-9,.cls-2,.cls-3{stroke-miterlimit:10;}.cls-4,.cls-6,.cls-8{opacity:.5;}.cls-6,.cls-9{stroke:#ffc107;}.cls-7,.cls-8{stroke:#1e88e5;}.cls-2{stroke:#999;}.cls-2,.cls-3{stroke-width:4px;}.cls-3{stroke:#000;}.cls-10{fill:#1e88e5;}</style></defs><path class="cls-1" d="M44.91,7h810.17c20.93,0,37.91,16.99,37.91,37.91v560.17c0,20.93-16.99,37.91-37.91,37.91H44.91c-20.92,0-37.91-16.99-37.91-37.91V44.91C7,23.99,23.99,7,44.91,7Z"/><path class="cls-10" d="M855.09,14c17.05,0,30.91,13.87,30.91,30.91v560.17c0,17.05-13.87,30.91-30.91,30.91H44.91c-17.05,0-30.91-13.87-30.91-30.91V44.91c0-17.05,13.87-30.91,30.91-30.91h810.17M855.09,0H44.91C20.11,0,0,20.11,0,44.91v560.17c0,24.81,20.11,44.91,44.91,44.91h810.17c24.81,0,44.91-20.11,44.91-44.91V44.91c0-24.81-20.11-44.91-44.91-44.91h0Z"/><line class="cls-4" x1="423.93" y1="455.74" x2="531.46" y2="496.14"/><line class="cls-4" x1="597.93" y1="281.74" x2="624" y2="404.91"/><line class="cls-4" x1="408.29" y1="333.88" x2="491.71" y2="251.76"/><line class="cls-8" x1="423.93" y1="106.44" x2="408.94" y2="169"/><line class="cls-8" x1="326.55" y1="251.76" x2="249.28" y2="281.09"/><line class="cls-8" x1="491.71" y1="251.76" x2="597.93" y2="281.74"/><line class="cls-8" x1="423.93" y1="455.74" x2="408.29" y2="333.88"/><line class="cls-5" x1="458.47" y1="541.11" x2="348.34" y2="496.14"/><line class="cls-7" x1="479.33" y1="490.28" x2="458.47" y2="541.11"/><line class="cls-7" x1="377.01" y1="388.62" x2="265.58" y2="348.21"/><line class="cls-7" x1="348.34" y1="496.14" x2="257.76" y2="404.91"/><line class="cls-7" x1="580.34" y1="388.62" x2="650.72" y2="348.86"/><line class="cls-7" x1="531.46" y1="496.14" x2="624" y2="404.91"/><line class="cls-9" x1="458.47" y1="541.11" x2="531.46" y2="496.14"/><line class="cls-9" x1="479.33" y1="490.28" x2="580.34" y2="388.62"/><line class="cls-9" x1="650.72" y1="348.86" x2="624" y2="404.91"/><line class="cls-5" x1="258.41" y1="222.44" x2="249.28" y2="281.09"/><line class="cls-9" x1="348.99" y1="131.86" x2="459.12" y2="156.62"/><line class="cls-9" x1="423.93" y1="106.44" x2="529.83" y2="130.55"/><line class="cls-6" x1="408.94" y1="169" x2="491.71" y2="251.76"/><line class="cls-6" x1="597.93" y1="281.74" x2="624" y2="221.79"/><line class="cls-6" x1="326.55" y1="251.76" x2="408.29" y2="333.88"/><line class="cls-6" x1="348.34" y1="496.14" x2="423.93" y2="455.74"/><line class="cls-9" x1="249.28" y1="281.09" x2="257.76" y2="404.91"/><line class="cls-7" x1="258.41" y1="222.44" x2="348.99" y2="131.86"/><line class="cls-7" x1="529.83" y1="130.55" x2="624" y2="221.79"/><line class="cls-4" x1="326.55" y1="251.76" x2="408.94" y2="169"/><line class="cls-5" x1="348.99" y1="131.86" x2="423.93" y2="106.44"/><line class="cls-5" x1="624" y1="221.79" x2="650.72" y2="348.86"/><line class="cls-5" x1="478.67" y1="286.95" x2="580.34" y2="388.62"/><line class="cls-5" x1="459.12" y1="156.62" x2="529.83" y2="130.55"/><line class="cls-5" x1="257.76" y1="404.91" x2="265.58" y2="348.21"/><circle class="cls-3" cx="458.47" cy="541.11" r="16.29"/><circle class="cls-3" cx="348.34" cy="496.14" r="16.29"/><circle class="cls-2" cx="423.93" cy="455.74" r="16.29"/><line class="cls-5" x1="377.01" y1="388.62" x2="479.33" y2="490.28"/><circle class="cls-3" cx="479.33" cy="490.28" r="16.29"/><circle class="cls-3" cx="531.46" cy="496.14" r="16.29"/><circle class="cls-3" cx="624" cy="404.91" r="16.29"/><circle class="cls-3" cx="580.34" cy="388.62" r="16.29"/><circle class="cls-3" cx="650.72" cy="348.86" r="16.29"/><circle class="cls-2" cx="597.93" cy="281.74" r="16.29"/><circle class="cls-3" cx="624" cy="221.79" r="16.29"/><circle class="cls-2" cx="491.71" cy="251.76" r="16.29"/><line class="cls-7" x1="459.12" y1="156.62" x2="478.67" y2="286.95"/><circle class="cls-2" cx="408.29" cy="333.88" r="16.29"/><line class="cls-9" x1="377.01" y1="388.62" x2="478.67" y2="286.95"/><circle class="cls-3" cx="479.33" cy="286.84" r="16.29"/><circle class="cls-3" cx="377.01" cy="388.62" r="16.29"/><circle class="cls-3" cx="257.76" cy="404.91" r="16.29"/><circle class="cls-3" cx="249.28" cy="281.09" r="16.29"/><line class="cls-9" x1="265.58" y1="348.21" x2="258.41" y2="222.44"/><circle class="cls-3" cx="265.61" cy="348.86" r="16.29"/><circle class="cls-3" cx="257.76" cy="221.79" r="16.29"/><circle class="cls-3" cx="348.99" cy="131.86" r="16.29"/><circle class="cls-2" cx="326.55" cy="251.76" r="16.29"/><circle class="cls-2" cx="408.94" cy="169" r="16.29"/><circle class="cls-3" cx="423.93" cy="106.44" r="16.29"/><circle class="cls-3" cx="459.12" cy="156.62" r="16.29"/><circle class="cls-3" cx="531.46" cy="130.92" r="16.29"/></svg>