<?xml version="1.0" encoding="UTF-8"?><svg id="Layer_1" xmlns="http://www.w3.org/2000/svg" viewBox="0 0 900 650"><defs><style>.cls-1{fill:#ed8115;}.cls-2{fill:#050;}.cls-3{fill:#f4b271;}.cls-4{fill:#ff9f40;}.cls-5{opacity:0;}.cls-5,.cls-6,.cls-7{fill:none;stroke-miterlimit:10;}.cls-5,.cls-7{stroke:#000;}.cls-8{fill:#fff6ee;}.cls-6{stroke:#999;}.cls-6,.cls-7{stroke-linecap:round;stroke-width:5px;}.cls-9{fill:#9c9;}</style></defs><path class="cls-8" d="M44.91,7h810.17c20.93,0,37.91,16.99,37.91,37.91v560.17c0,20.93-16.99,37.91-37.91,37.91H44.91c-20.92,0-37.91-16.99-37.91-37.91V44.91C7,23.99,23.99,7,44.91,7Z"/><path class="cls-1" d="M855.09,14c17.05,0,30.91,13.87,30.91,30.91v560.17c0,17.05-13.87,30.91-30.91,30.91H44.91c-17.05,0-30.91-13.87-30.91-30.91V44.91c0-17.05,13.87-30.91,30.91-30.91h810.17M855.09,0H44.91C20.11,0,0,20.11,0,44.91v560.17c0,24.81,20.11,44.91,44.91,44.91h810.17c24.81,0,44.91-20.11,44.91-44.91V44.91c0-24.81-20.11-44.91-44.91-44.91h0Z"/><line class="cls-6" x1="406.12" y1="96.67" x2="403.92" y2="553.33"/><line class="cls-6" x1="316.16" y1="96.67" x2="313.96" y2="553.33"/><line class="cls-6" x1="496.08" y1="96.67" x2="493.88" y2="553.33"/><line class="cls-6" x1="586.04" y1="96.67" x2="583.84" y2="553.33"/><line class="cls-6" x1="226.17" y1="96.67" x2="224.03" y2="553.33"/><line class="cls-6" x1="675.97" y1="96.67" x2="673.83" y2="553.33"/><line class="cls-7" x1="130.34" y1="553.33" x2="769.66" y2="553.33"/><line class="cls-7" x1="130.34" y1="96.67" x2="769.66" y2="96.67"/><polygon class="cls-5" points="281.18 195.24 281.18 195.24 281.18 195.24 281.18 195.24 281.18 195.24 281.18 195.24 281.18 195.24 281.18 195.24 281.18 195.24 281.18 195.24 281.18 195.24 281.18 195.24 281.18 195.24 281.18 195.24 281.18 195.24 281.18 195.24 281.18 195.24 281.18 195.24 281.18 195.24 281.18 195.24 281.18 195.24 281.18 195.24 281.18 195.24 281.18 195.24 281.18 195.24 281.18 195.24 281.18 195.24 281.18 195.24 281.18 195.24 281.18 195.24 281.18 195.24 281.18 195.24 281.18 195.24 281.18 195.24 281.18 195.24 281.18 195.24 281.18 195.24 281.18 195.24 281.18 195.24 281.18 195.24 281.18 195.24 281.18 195.24 281.18 195.24 281.18 195.24 281.18 195.24 281.18 195.24 281.18 195.24 281.18 195.24 281.18 195.24 281.18 195.24 281.18 195.24 281.18 195.24 281.18 195.24 281.18 195.24 281.18 195.24 281.18 195.24 281.18 195.24 281.18 195.24 281.18 195.24 281.18 195.24 281.18 195.24 281.18 195.24 281.18 195.24 281.18 195.24 281.18 195.24 281.18 195.24 281.18 195.24 281.18 195.24 281.18 195.24 281.18 195.24 281.18 195.24 281.18 195.24 281.18 195.24 281.18 195.24 281.18 195.24 281.18 195.24 281.18 195.24 281.18 195.24 281.18 195.24 281.18 195.24 281.18 195.24 281.18 195.24 281.18 195.24 281.18 195.24 281.18 195.24 281.18 195.24 281.18 195.24 281.18 195.24 281.18 195.24 281.18 195.24"/><rect class="cls-4" x="306.54" y="167.58" width="108.31" height="47.81" rx="17.79" ry="17.79"/><rect class="cls-4" x="486.78" y="167.58" width="107.95" height="47.81" rx="17.77" ry="17.77"/><rect class="cls-3" x="396.36" y="224.61" width="107.95" height="47.81" rx="17.77" ry="17.77"/><path class="cls-9" d="M407.88,291.52h84.91c11.75,0,21.29,9.54,21.29,21.29v22.28c0,11.75-9.54,21.29-21.29,21.29h-84.91c-11.75,0-21.29-9.54-21.29-21.29v-22.28c0-11.75,9.54-21.29,21.29-21.29Z"/><path class="cls-2" d="M492.79,294.02c10.36,0,18.79,8.43,18.79,18.79v22.28c0,10.36-8.43,18.79-18.79,18.79h-84.91c-10.36,0-18.79-8.43-18.79-18.79v-22.28c0-10.36,8.43-18.79,18.79-18.79h84.91M492.79,289.02h-84.91c-13.14,0-23.79,10.65-23.79,23.79v22.28c0,13.14,10.65,23.79,23.79,23.79h84.91c13.14,0,23.79-10.65,23.79-23.79v-22.28c0-13.14-10.65-23.79-23.79-23.79h0Z"/><rect class="cls-1" x="396.53" y="110.55" width="107.95" height="47.81" rx="17.77" ry="17.77"/><rect class="cls-1" x="576.45" y="110.55" width="107.94" height="47.81" rx="17.76" ry="17.76"/><rect class="cls-1" x="216.24" y="110.55" width="108.35" height="47.81" rx="17.8" ry="17.8"/><rect class="cls-4" x="306.54" y="434.61" width="108.31" height="47.81" rx="17.79" ry="17.79"/><rect class="cls-4" x="486.78" y="434.61" width="107.95" height="47.81" rx="17.77" ry="17.77"/><rect class="cls-1" x="396.36" y="491.65" width="107.95" height="47.81" rx="17.77" ry="17.77"/><rect class="cls-1" x="576.28" y="491.65" width="107.94" height="47.81" rx="17.76" ry="17.76"/><rect class="cls-1" x="216.07" y="491.65" width="108.35" height="47.81" rx="17.8" ry="17.8"/><rect class="cls-3" x="396.36" y="377.57" width="107.95" height="47.81" rx="17.77" ry="17.77"/></svg>