<?xml version="1.0" encoding="utf-8"?>
<!-- Generator: Adobe Illustrator 25.1.0, SVG Export Plug-In . SVG Version: 6.00 Build 0)  -->
<svg version="1.1" id="Layer_1" xmlns="http://www.w3.org/2000/svg" xmlns:xlink="http://www.w3.org/1999/xlink" x="0px" y="0px"
	 viewBox="0 0 935.6 354" style="enable-background:new 0 0 935.6 354;" xml:space="preserve">
<style type="text/css">
	.st0{opacity:0.2;fill:url(#SVGID_1_);enable-background:new    ;}
	.st1{opacity:0.2;fill:url(#SVGID_2_);enable-background:new    ;}
	.st2{opacity:0.2;fill:url(#SVGID_3_);enable-background:new    ;}
	.st3{fill:none;stroke:#FF00FF;stroke-width:6;stroke-miterlimit:10;}
	.st4{fill:none;stroke:#F7931E;stroke-width:6;stroke-miterlimit:10;}
	.st5{opacity:0.2;fill:url(#SVGID_4_);enable-background:new    ;}
	.st6{opacity:0.2;fill:url(#SVGID_5_);enable-background:new    ;}
	.st7{opacity:0.502;}
	.st8{fill:#888888;}
	.st9{fill:#666666;}
	.st10{fill:#999999;}
	.st11{opacity:0.702;}
	.st12{fill:#F7931E;}
	.st13{fill:#D67A1E;}
	.st14{fill:#F4AA62;}
	.st15{fill:#3131E8;}
	.st16{fill:#2C2CBF;}
	.st17{fill:#5555E5;}
	.st18{fill:#FF00FF;}
	.st19{fill:#E000E0;}
	.st20{fill:#EB65EB;}
	.st21{fill:#FF0000;}
	.st22{fill:#CE0000;}
	.st23{fill:#FF5C5C;}
	.st24{fill:none;stroke:#000000;stroke-width:4;stroke-linecap:round;stroke-miterlimit:10;}
</style>
<g>
	
		<linearGradient id="SVGID_1_" gradientUnits="userSpaceOnUse" x1="368.3769" y1="-366.427" x2="634.9769" y2="-366.427" gradientTransform="matrix(-1.836970e-16 1 1 1.836970e-16 579.677 -289.6769)">
		<stop  offset="0" style="stop-color:#F7931E"/>
		<stop  offset="0.3821" style="stop-color:#F79420"/>
		<stop  offset="0.5198" style="stop-color:#F79727"/>
		<stop  offset="0.618" style="stop-color:#F89D32"/>
		<stop  offset="0.6973" style="stop-color:#F8A543"/>
		<stop  offset="0.7653" style="stop-color:#F9B059"/>
		<stop  offset="0.8255" style="stop-color:#FABD75"/>
		<stop  offset="0.88" style="stop-color:#FBCC95"/>
		<stop  offset="0.93" style="stop-color:#FDDEBB"/>
		<stop  offset="0.9745" style="stop-color:#FEF2E4"/>
		<stop  offset="1" style="stop-color:#FFFFFF"/>
	</linearGradient>
	<polygon class="st0" points="86.1,78.7 340.4,78.7 340.4,345.3 86.1,345.3 	"/>
	
		<linearGradient id="SVGID_2_" gradientUnits="userSpaceOnUse" x1="369.1769" y1="141.523" x2="635.7769" y2="141.523" gradientTransform="matrix(-1.836970e-16 1 1 1.836970e-16 579.677 -289.6769)">
		<stop  offset="0" style="stop-color:#F7931E"/>
		<stop  offset="0.3821" style="stop-color:#F79420"/>
		<stop  offset="0.5198" style="stop-color:#F79727"/>
		<stop  offset="0.618" style="stop-color:#F89D32"/>
		<stop  offset="0.6973" style="stop-color:#F8A543"/>
		<stop  offset="0.7653" style="stop-color:#F9B059"/>
		<stop  offset="0.8255" style="stop-color:#FABD75"/>
		<stop  offset="0.88" style="stop-color:#FBCC95"/>
		<stop  offset="0.93" style="stop-color:#FDDEBB"/>
		<stop  offset="0.9745" style="stop-color:#FEF2E4"/>
		<stop  offset="1" style="stop-color:#FFFFFF"/>
	</linearGradient>
	<polygon class="st1" points="594.1,79.5 848.3,79.5 848.3,346.1 594.1,346.1 	"/>
	
		<linearGradient id="SVGID_3_" gradientUnits="userSpaceOnUse" x1="368.3769" y1="-111.977" x2="634.9769" y2="-111.977" gradientTransform="matrix(-1.836970e-16 1 1 1.836970e-16 579.677 -289.6769)">
		<stop  offset="0" style="stop-color:#FF00FF"/>
		<stop  offset="0.3726" style="stop-color:#FF02FF"/>
		<stop  offset="0.5069" style="stop-color:#FF09FF"/>
		<stop  offset="0.6026" style="stop-color:#FF14FF"/>
		<stop  offset="0.68" style="stop-color:#FF25FF"/>
		<stop  offset="0.7463" style="stop-color:#FF3BFF"/>
		<stop  offset="0.805" style="stop-color:#FF57FF"/>
		<stop  offset="0.8581" style="stop-color:#FF77FF"/>
		<stop  offset="0.9069" style="stop-color:#FF9DFF"/>
		<stop  offset="0.9523" style="stop-color:#FFC8FF"/>
		<stop  offset="0.9926" style="stop-color:#FFF6FF"/>
		<stop  offset="1" style="stop-color:#FFFFFF"/>
	</linearGradient>
	<polygon class="st2" points="340.4,78.7 595,78.7 595,345.3 340.4,345.3 	"/>
	<line class="st3" x1="595" y1="78.7" x2="595" y2="345.3"/>
	<line class="st3" x1="340.4" y1="345.3" x2="340.4" y2="78.7"/>
	<line class="st4" x1="849.5" y1="78.7" x2="849.5" y2="345.3"/>
	<line class="st4" x1="86.1" y1="345.3" x2="86.1" y2="78.7"/>
	
		<linearGradient id="SVGID_4_" gradientUnits="userSpaceOnUse" x1="368.3769" y1="-527.727" x2="634.9769" y2="-527.727" gradientTransform="matrix(-1.836970e-16 1 1 1.836970e-16 579.677 -289.6769)">
		<stop  offset="0" style="stop-color:#6C6CFF"/>
		<stop  offset="0.4163" style="stop-color:#6E6EFF"/>
		<stop  offset="0.5662" style="stop-color:#7575FF"/>
		<stop  offset="0.673" style="stop-color:#8080FF"/>
		<stop  offset="0.7595" style="stop-color:#9191FF"/>
		<stop  offset="0.8335" style="stop-color:#A7A7FF"/>
		<stop  offset="0.8991" style="stop-color:#C3C3FF"/>
		<stop  offset="0.9569" style="stop-color:#E2E2FF"/>
		<stop  offset="1" style="stop-color:#FFFFFF"/>
	</linearGradient>
	<polygon class="st5" points="17.8,78.7 86.1,78.7 86.1,345.3 17.8,345.3 	"/>
	
		<linearGradient id="SVGID_5_" gradientUnits="userSpaceOnUse" x1="369.1769" y1="303.973" x2="635.7769" y2="303.973" gradientTransform="matrix(-1.836970e-16 1 1 1.836970e-16 579.677 -289.6769)">
		<stop  offset="0" style="stop-color:#FF0000"/>
		<stop  offset="0.3726" style="stop-color:#FF0202"/>
		<stop  offset="0.5069" style="stop-color:#FF0909"/>
		<stop  offset="0.6026" style="stop-color:#FF1414"/>
		<stop  offset="0.68" style="stop-color:#FF2525"/>
		<stop  offset="0.7463" style="stop-color:#FF3B3B"/>
		<stop  offset="0.805" style="stop-color:#FF5757"/>
		<stop  offset="0.8581" style="stop-color:#FF7777"/>
		<stop  offset="0.9069" style="stop-color:#FF9D9D"/>
		<stop  offset="0.9523" style="stop-color:#FFC8C8"/>
		<stop  offset="0.9926" style="stop-color:#FFF6F6"/>
		<stop  offset="1" style="stop-color:#FFFFFF"/>
	</linearGradient>
	<polygon class="st6" points="849.5,79.5 917.8,79.5 917.8,346.1 849.5,346.1 	"/>
</g>
<g>
	<g class="st7">
		<circle class="st8" cx="162.5" cy="302.1" r="21.1"/>
		<path class="st9" d="M161.1,319.4c-8.5-0.7-15.3-7.5-16-16c0-0.5,0.6-0.8,0.9-0.4l15.5,15.5C161.8,318.9,161.6,319.5,161.1,319.4z
			"/>
		
			<ellipse transform="matrix(0.7071 -0.7071 0.7071 0.7071 -155.7159 207.4775)" class="st10" cx="172.6" cy="291.7" rx="3" ry="4.5"/>
	</g>
	<g class="st7">
		<circle class="st8" cx="213.2" cy="302.1" r="21.1"/>
		<path class="st9" d="M211.9,319.4c-8.5-0.7-15.3-7.5-16-16c0-0.5,0.6-0.8,0.9-0.4l15.5,15.5C212.6,318.9,212.3,319.5,211.9,319.4z
			"/>
		
			<ellipse transform="matrix(0.7071 -0.7071 0.7071 0.7071 -140.8256 243.3867)" class="st10" cx="223.4" cy="291.7" rx="3" ry="4.5"/>
	</g>
	<g class="st7">
		<ellipse transform="matrix(0.1602 -0.9871 0.9871 0.1602 -76.4873 514.3)" class="st8" cx="264" cy="302.1" rx="21.1" ry="21.1"/>
		<path class="st9" d="M262.7,319.4c-8.5-0.7-15.3-7.5-16-16c0-0.5,0.6-0.8,0.9-0.4l15.5,15.5C263.4,318.9,263.1,319.5,262.7,319.4z
			"/>
		
			<ellipse transform="matrix(0.7071 -0.7071 0.7071 0.7071 -125.9452 279.3058)" class="st10" cx="274.2" cy="291.7" rx="3" ry="4.5"/>
	</g>
	<g class="st7">
		<circle class="st8" cx="314.7" cy="302.1" r="21.1"/>
		<path class="st9" d="M313.3,319.4c-8.5-0.7-15.3-7.5-16-16c0-0.5,0.6-0.8,0.9-0.4l15.5,15.5C314.1,318.9,313.8,319.5,313.3,319.4z
			"/>
		
			<ellipse transform="matrix(0.7071 -0.7071 0.7071 0.7071 -111.1528 315.1128)" class="st10" cx="324.8" cy="291.7" rx="3" ry="4.5"/>
	</g>
	<g class="st7">
		<circle class="st8" cx="365.8" cy="302.1" r="21.1"/>
		<path class="st9" d="M364.4,319.4c-8.5-0.7-15.3-7.5-16-16c0-0.5,0.6-0.8,0.9-0.4l15.5,15.5C365.1,318.9,364.9,319.5,364.4,319.4z
			"/>
		
			<ellipse transform="matrix(0.7071 -0.7071 0.7071 0.7071 -96.1686 351.2282)" class="st10" cx="375.9" cy="291.7" rx="3" ry="4.5"/>
	</g>
	<g class="st7">
		<circle class="st8" cx="416.8" cy="302.1" r="21.1"/>
		<path class="st9" d="M415.4,319.4c-8.5-0.7-15.3-7.5-16-16c0-0.5,0.6-0.8,0.9-0.4l15.5,15.5C416.1,318.9,415.9,319.5,415.4,319.4z
			"/>
		
			<ellipse transform="matrix(0.7071 -0.7071 0.7071 0.7071 -81.2317 387.2909)" class="st10" cx="426.9" cy="291.7" rx="3" ry="4.5"/>
	</g>
	<g class="st7">
		<circle class="st8" cx="467.8" cy="302.1" r="21.1"/>
		<path class="st9" d="M466.4,319.4c-8.5-0.7-15.3-7.5-16-16c0-0.5,0.6-0.8,0.9-0.4l15.5,15.5C467.2,318.9,466.9,319.5,466.4,319.4z
			"/>
		
			<ellipse transform="matrix(0.7071 -0.7071 0.7071 0.7071 -66.3147 423.3734)" class="st10" cx="477.9" cy="291.7" rx="3" ry="4.5"/>
	</g>
	<g class="st7">
		
			<ellipse transform="matrix(0.1602 -0.9871 0.9871 0.1602 137.2464 765.5138)" class="st8" cx="518.5" cy="302.1" rx="21.1" ry="21.1"/>
		<path class="st9" d="M517.2,319.4c-8.5-0.7-15.3-7.5-16-16c0-0.5,0.6-0.8,0.9-0.4l15.5,15.5C517.9,318.9,517.7,319.5,517.2,319.4z
			"/>
		
			<ellipse transform="matrix(0.7071 -0.7071 0.7071 0.7071 -51.4139 459.2744)" class="st10" cx="528.7" cy="291.7" rx="3" ry="4.5"/>
	</g>
	<g class="st7">
		<circle class="st8" cx="569.3" cy="302.1" r="21.1"/>
		<path class="st9" d="M567.9,319.4c-8.5-0.7-15.3-7.5-16-16c0-0.5,0.6-0.8,0.9-0.4l15.5,15.5C568.7,318.9,568.4,319.5,567.9,319.4z
			"/>
		
			<ellipse transform="matrix(0.7071 -0.7071 0.7071 0.7071 -36.5212 495.1788)" class="st10" cx="579.5" cy="291.7" rx="3" ry="4.5"/>
	</g>
	<g class="st7">
		<circle class="st8" cx="620.4" cy="302.1" r="21.1"/>
		<path class="st9" d="M619,319.4c-8.5-0.7-15.3-7.5-16-16c0-0.5,0.6-0.8,0.9-0.4l15.5,15.5C619.8,318.9,619.5,319.5,619,319.4z"/>
		
			<ellipse transform="matrix(0.7071 -0.7071 0.7071 0.7071 -21.5588 531.316)" class="st10" cx="630.6" cy="291.7" rx="3" ry="4.5"/>
	</g>
	<g class="st7">
		<circle class="st8" cx="671.4" cy="302.1" r="21.1"/>
		<path class="st9" d="M670,319.4c-8.5-0.7-15.3-7.5-16-16c0-0.5,0.6-0.8,0.9-0.4l15.5,15.5C670.7,318.9,670.5,319.5,670,319.4z"/>
		
			<ellipse transform="matrix(0.7071 -0.7071 0.7071 0.7071 -6.6652 567.3219)" class="st10" cx="681.5" cy="291.7" rx="3" ry="4.5"/>
	</g>
	<g class="st7">
		<circle class="st8" cx="722.2" cy="302.1" r="21.1"/>
		<path class="st9" d="M720.9,319.4c-8.5-0.7-15.3-7.5-16-16c0-0.5,0.6-0.8,0.9-0.4l15.5,15.5C721.6,318.9,721.4,319.5,720.9,319.4z
			"/>
		<ellipse transform="matrix(0.7071 -0.7071 0.7071 0.7071 8.246 603.3102)" class="st10" cx="732.4" cy="291.7" rx="3" ry="4.5"/>
	</g>
	<g class="st7">
		<circle class="st8" cx="773.1" cy="302.1" r="21.1"/>
		<path class="st9" d="M771.8,319.4c-8.5-0.7-15.3-7.5-16-16c0-0.5,0.6-0.8,0.9-0.4l15.5,15.5C772.5,318.9,772.3,319.5,771.8,319.4z
			"/>
		
			<ellipse transform="matrix(0.7071 -0.7071 0.7071 0.7071 23.1571 639.2986)" class="st10" cx="783.3" cy="291.7" rx="3" ry="4.5"/>
	</g>
	<g class="st7">
		<circle class="st8" cx="824" cy="302.1" r="21.1"/>
		<path class="st9" d="M822.7,319.4c-8.5-0.7-15.3-7.5-16-16c0-0.5,0.6-0.8,0.9-0.4l15.5,15.5C823.4,318.9,823.1,319.5,822.7,319.4z
			"/>
		<ellipse transform="matrix(0.7071 -0.7071 0.7071 0.7071 38.0683 675.287)" class="st10" cx="834.2" cy="291.7" rx="3" ry="4.5"/>
	</g>
	<g class="st7">
		<circle class="st8" cx="874.9" cy="302.1" r="21.1"/>
		<path class="st9" d="M873.6,319.4c-8.5-0.7-15.3-7.5-16-16c0-0.5,0.6-0.8,0.9-0.4l15.5,15.5C874.3,318.9,874,319.5,873.6,319.4z"
			/>
		
			<ellipse transform="matrix(0.7071 -0.7071 0.7071 0.7071 52.9794 711.2753)" class="st10" cx="885.1" cy="291.7" rx="3" ry="4.5"/>
	</g>
	<g class="st7">
		<circle class="st8" cx="111.6" cy="302.1" r="21.1"/>
		<path class="st9" d="M110.2,319.4c-8.5-0.7-15.3-7.5-16-16c0-0.5,0.6-0.8,0.9-0.4l15.5,15.5C111,318.9,110.7,319.5,110.2,319.4z"
			/>
		
			<ellipse transform="matrix(0.7071 -0.7071 0.7071 0.7071 -170.6271 171.4892)" class="st10" cx="121.7" cy="291.7" rx="3" ry="4.5"/>
	</g>
	<g class="st7">
		<circle class="st8" cx="60.7" cy="302.1" r="21.1"/>
		<path class="st9" d="M59.3,319.4c-8.5-0.7-15.3-7.5-16-16c0-0.5,0.6-0.8,0.9-0.4l15.5,15.5C60.1,318.9,59.8,319.5,59.3,319.4z"/>
		
			<ellipse transform="matrix(0.7071 -0.7071 0.7071 0.7071 -185.5382 135.5008)" class="st10" cx="70.8" cy="291.7" rx="3" ry="4.5"/>
	</g>
</g>
<g>
	<g class="st11">
		<circle class="st8" cx="722.2" cy="212" r="21.1"/>
		<path class="st9" d="M720.9,229.3c-8.5-0.7-15.3-7.5-16-16c0-0.5,0.6-0.8,0.9-0.4l15.5,15.5C721.6,228.8,721.4,229.4,720.9,229.3z
			"/>
		
			<ellipse transform="matrix(0.7071 -0.7071 0.7071 0.7071 71.9486 576.9138)" class="st10" cx="732.4" cy="201.6" rx="3" ry="4.5"/>
	</g>
	<g class="st11">
		<circle class="st8" cx="213.2" cy="212" r="21.1"/>
		<path class="st9" d="M211.9,229.3c-8.5-0.7-15.3-7.5-16-16c0-0.5,0.6-0.8,0.9-0.4l15.5,15.5C212.6,228.8,212.3,229.4,211.9,229.3z
			"/>
		
			<ellipse transform="matrix(0.7071 -0.7071 0.7071 0.7071 -77.1229 216.9901)" class="st10" cx="223.4" cy="201.6" rx="3" ry="4.5"/>
	</g>
	<g class="st11">
		<circle class="st8" cx="671.4" cy="212" r="21.1"/>
		<path class="st9" d="M670,229.3c-8.5-0.7-15.3-7.5-16-16c0-0.5,0.6-0.8,0.9-0.4l15.5,15.5C670.7,228.8,670.5,229.4,670,229.3z"/>
		
			<ellipse transform="matrix(0.7071 -0.7071 0.7071 0.7071 57.0373 540.9254)" class="st10" cx="681.5" cy="201.6" rx="3" ry="4.5"/>
	</g>
	<g class="st11">
		<ellipse transform="matrix(0.1602 -0.9871 0.9871 0.1602 12.4493 438.6324)" class="st8" cx="264" cy="212" rx="21.1" ry="21.1"/>
		<path class="st9" d="M262.7,229.3c-8.5-0.7-15.3-7.5-16-16c0-0.5,0.6-0.8,0.9-0.4l15.5,15.5C263.4,228.8,263.1,229.4,262.7,229.3z
			"/>
		
			<ellipse transform="matrix(0.7071 -0.7071 0.7071 0.7071 -62.2426 252.9092)" class="st10" cx="274.2" cy="201.6" rx="3" ry="4.5"/>
	</g>
	<g class="st11">
		<circle class="st8" cx="162.5" cy="212" r="21.1"/>
		<path class="st9" d="M161.1,229.3c-8.5-0.7-15.3-7.5-16-16c0-0.5,0.6-0.8,0.9-0.4l15.5,15.5C161.8,228.8,161.6,229.4,161.1,229.3z
			"/>
		
			<ellipse transform="matrix(0.7071 -0.7071 0.7071 0.7071 -92.0133 181.081)" class="st10" cx="172.6" cy="201.6" rx="3" ry="4.5"/>
	</g>
	<g class="st11">
		<circle class="st8" cx="773.1" cy="212" r="21.1"/>
		<path class="st9" d="M771.8,229.3c-8.5-0.7-15.3-7.5-16-16c0-0.5,0.6-0.8,0.9-0.4l15.5,15.5C772.5,228.8,772.3,229.4,771.8,229.3z
			"/>
		<ellipse transform="matrix(0.7071 -0.7071 0.7071 0.7071 86.8597 612.902)" class="st10" cx="783.3" cy="201.6" rx="3" ry="4.5"/>
	</g>
	<g class="st11">
		<circle class="st8" cx="824" cy="212" r="21.1"/>
		<path class="st9" d="M822.7,229.3c-8.5-0.7-15.3-7.5-16-16c0-0.5,0.6-0.8,0.9-0.4l15.5,15.5C823.4,228.8,823.1,229.4,822.7,229.3z
			"/>
		
			<ellipse transform="matrix(0.7071 -0.7071 0.7071 0.7071 101.771 648.8905)" class="st10" cx="834.2" cy="201.6" rx="3" ry="4.5"/>
	</g>
	<g class="st11">
		<circle class="st8" cx="874.9" cy="212" r="21.1"/>
		<path class="st9" d="M873.6,229.3c-8.5-0.7-15.3-7.5-16-16c0-0.5,0.6-0.8,0.9-0.4l15.5,15.5C874.3,228.8,874,229.4,873.6,229.3z"
			/>
		
			<ellipse transform="matrix(0.7071 -0.7071 0.7071 0.7071 116.6821 684.8788)" class="st10" cx="885.1" cy="201.6" rx="3" ry="4.5"/>
	</g>
	<g class="st11">
		<circle class="st8" cx="111.6" cy="212" r="21.1"/>
		<path class="st9" d="M110.2,229.3c-8.5-0.7-15.3-7.5-16-16c0-0.5,0.6-0.8,0.9-0.4l15.5,15.5C111,228.8,110.7,229.4,110.2,229.3z"
			/>
		
			<ellipse transform="matrix(0.7071 -0.7071 0.7071 0.7071 -106.9244 145.0927)" class="st10" cx="121.7" cy="201.6" rx="3" ry="4.5"/>
	</g>
	<g class="st11">
		<circle class="st8" cx="60.7" cy="212" r="21.1"/>
		<path class="st9" d="M59.3,229.3c-8.5-0.7-15.3-7.5-16-16c0-0.5,0.6-0.8,0.9-0.4l15.5,15.5C60.1,228.8,59.8,229.4,59.3,229.3z"/>
		
			<ellipse transform="matrix(0.7071 -0.7071 0.7071 0.7071 -121.8355 109.1043)" class="st10" cx="70.8" cy="201.6" rx="3" ry="4.5"/>
	</g>
	<g class="st11">
		<circle class="st8" cx="314.9" cy="212" r="21.1"/>
		<path class="st9" d="M313.5,229.3c-8.5-0.7-15.3-7.5-16-16c0-0.5,0.6-0.8,0.9-0.4l15.5,15.5C314.3,228.8,314,229.4,313.5,229.3z"
			/>
		
			<ellipse transform="matrix(0.7071 -0.7071 0.7071 0.7071 -47.3314 288.8976)" class="st10" cx="325.1" cy="201.6" rx="3" ry="4.5"/>
	</g>
	<g class="st11">
		<circle class="st8" cx="365.8" cy="212" r="21.1"/>
		<path class="st9" d="M364.4,229.3c-8.5-0.7-15.3-7.5-16-16c0-0.5,0.6-0.8,0.9-0.4l15.5,15.5C365.1,228.8,364.9,229.4,364.4,229.3z
			"/>
		
			<ellipse transform="matrix(0.7071 -0.7071 0.7071 0.7071 -32.466 324.8317)" class="st10" cx="375.9" cy="201.6" rx="3" ry="4.5"/>
	</g>
	<g class="st11">
		<circle class="st8" cx="416.8" cy="212" r="21.1"/>
		<path class="st9" d="M415.4,229.3c-8.5-0.7-15.3-7.5-16-16c0-0.5,0.6-0.8,0.9-0.4l15.5,15.5C416.1,228.8,415.9,229.4,415.4,229.3z
			"/>
		
			<ellipse transform="matrix(0.7071 -0.7071 0.7071 0.7071 -17.5291 360.8943)" class="st10" cx="426.9" cy="201.6" rx="3" ry="4.5"/>
	</g>
	<g class="st11">
		<circle class="st8" cx="467.8" cy="212" r="21.1"/>
		<path class="st9" d="M466.4,229.3c-8.5-0.7-15.3-7.5-16-16c0-0.5,0.6-0.8,0.9-0.4l15.5,15.5C467.2,228.8,466.9,229.4,466.4,229.3z
			"/>
		
			<ellipse transform="matrix(0.7071 -0.7071 0.7071 0.7071 -2.6121 396.9769)" class="st10" cx="477.9" cy="201.6" rx="3" ry="4.5"/>
	</g>
	<g class="st11">
		
			<ellipse transform="matrix(0.1602 -0.9871 0.9871 0.1602 226.1829 689.8462)" class="st8" cx="518.5" cy="212" rx="21.1" ry="21.1"/>
		<path class="st9" d="M517.2,229.3c-8.5-0.7-15.3-7.5-16-16c0-0.5,0.6-0.8,0.9-0.4l15.5,15.5C517.9,228.8,517.7,229.4,517.2,229.3z
			"/>
		<ellipse transform="matrix(0.7071 -0.7071 0.7071 0.7071 12.289 432.8776)" class="st10" cx="528.7" cy="201.6" rx="3" ry="4.5"/>
	</g>
	<g class="st11">
		<circle class="st8" cx="569.3" cy="212" r="21.1"/>
		<path class="st9" d="M567.9,229.3c-8.5-0.7-15.3-7.5-16-16c0-0.5,0.6-0.8,0.9-0.4l15.5,15.5C568.7,228.8,568.4,229.4,567.9,229.3z
			"/>
		
			<ellipse transform="matrix(0.7071 -0.7071 0.7071 0.7071 27.1814 468.7824)" class="st10" cx="579.5" cy="201.6" rx="3" ry="4.5"/>
	</g>
	<g class="st11">
		<circle class="st8" cx="620.4" cy="212" r="21.1"/>
		<path class="st9" d="M619,229.3c-8.5-0.7-15.3-7.5-16-16c0-0.5,0.6-0.8,0.9-0.4l15.5,15.5C619.8,228.8,619.5,229.4,619,229.3z"/>
		
			<ellipse transform="matrix(0.7071 -0.7071 0.7071 0.7071 42.1438 504.9195)" class="st10" cx="630.6" cy="201.6" rx="3" ry="4.5"/>
	</g>
</g>
<g>
	<g>
		<g>
			<circle class="st12" cx="314.9" cy="121.9" r="21.1"/>
			<path class="st13" d="M313.5,139.3c-8.5-0.7-15.3-7.5-16-16c0-0.5,0.6-0.8,0.9-0.4l15.5,15.5C314.3,138.7,314,139.3,313.5,139.3z
				"/>
			
				<ellipse transform="matrix(0.7071 -0.7071 0.7071 0.7071 16.3711 262.501)" class="st14" cx="325.1" cy="111.5" rx="3" ry="4.5"/>
		</g>
		<circle cx="314.9" cy="121.9" r="9.3"/>
	</g>
	<g>
		<g>
			<circle class="st12" cx="620.4" cy="121.9" r="21.1"/>
			<path class="st13" d="M619,139.3c-8.5-0.7-15.3-7.5-16-16c0-0.5,0.6-0.8,0.9-0.4l15.5,15.5C619.8,138.7,619.5,139.3,619,139.3z"
				/>
			
				<ellipse transform="matrix(0.7071 -0.7071 0.7071 0.7071 105.8463 478.523)" class="st14" cx="630.6" cy="111.5" rx="3" ry="4.5"/>
		</g>
		<circle cx="620.4" cy="121.9" r="9.3"/>
	</g>
	<g>
		<g>
			<circle class="st12" cx="824" cy="121.9" r="21.1"/>
			<path class="st13" d="M822.7,139.3c-8.5-0.7-15.3-7.5-16-16c0-0.5,0.6-0.8,0.9-0.4l15.5,15.5
				C823.4,138.7,823.1,139.3,822.7,139.3z"/>
			
				<ellipse transform="matrix(0.7071 -0.7071 0.7071 0.7071 165.4735 622.4938)" class="st14" cx="834.2" cy="111.5" rx="3" ry="4.5"/>
		</g>
		<circle cx="824" cy="121.9" r="9.3"/>
	</g>
	<g>
		<g>
			<circle class="st12" cx="772.9" cy="121.9" r="21.1"/>
			<path class="st13" d="M771.5,139.3c-8.5-0.7-15.3-7.5-16-16c0-0.5,0.6-0.8,0.9-0.4l15.5,15.5C772.3,138.7,772,139.3,771.5,139.3z
				"/>
			
				<ellipse transform="matrix(0.7071 -0.7071 0.7071 0.7071 150.5143 586.3535)" class="st14" cx="783" cy="111.5" rx="3" ry="4.5"/>
		</g>
		<circle cx="772.9" cy="121.9" r="9.3"/>
	</g>
	<g>
		<g>
			<circle class="st12" cx="722.2" cy="121.9" r="21.1"/>
			<path class="st13" d="M720.9,139.3c-8.5-0.7-15.3-7.5-16-16c0-0.5,0.6-0.8,0.9-0.4l15.5,15.5
				C721.6,138.7,721.4,139.3,720.9,139.3z"/>
			
				<ellipse transform="matrix(0.7071 -0.7071 0.7071 0.7071 135.6511 550.5172)" class="st14" cx="732.4" cy="111.5" rx="3" ry="4.5"/>
		</g>
		<circle cx="722.2" cy="121.9" r="9.3"/>
	</g>
	<g>
		<g>
			<circle class="st12" cx="671.4" cy="121.9" r="21.1"/>
			<path class="st13" d="M670,139.3c-8.5-0.7-15.3-7.5-16-16c0-0.5,0.6-0.8,0.9-0.4l15.5,15.5C670.7,138.7,670.5,139.3,670,139.3z"
				/>
			
				<ellipse transform="matrix(0.7071 -0.7071 0.7071 0.7071 120.7399 514.5288)" class="st14" cx="681.5" cy="111.5" rx="3" ry="4.5"/>
		</g>
		<circle cx="671.4" cy="121.9" r="9.3"/>
	</g>
	<g>
		<g>
			
				<ellipse transform="matrix(0.1602 -0.9871 0.9871 0.1602 101.4699 363.0636)" class="st12" cx="264.1" cy="121.9" rx="21.1" ry="21.1"/>
			<path class="st13" d="M262.7,139.3c-8.5-0.7-15.3-7.5-16-16c0-0.5,0.6-0.8,0.9-0.4l15.5,15.5
				C263.5,138.7,263.2,139.3,262.7,139.3z"/>
			<ellipse transform="matrix(0.7071 -0.7071 0.7071 0.7071 1.4907 226.582)" class="st14" cx="274.3" cy="111.5" rx="3" ry="4.5"/>
		</g>
		<circle cx="264.1" cy="121.9" r="9.3"/>
	</g>
	<g>
		<g>
			<circle class="st15" cx="60.7" cy="121.9" r="21.1"/>
			<path class="st16" d="M59.3,139.3c-8.5-0.7-15.3-7.5-16-16c0-0.5,0.6-0.8,0.9-0.4l15.5,15.5C60.1,138.7,59.8,139.3,59.3,139.3z"
				/>
			<ellipse transform="matrix(0.7071 -0.7071 0.7071 0.7071 -58.133 82.7077)" class="st17" cx="70.8" cy="111.5" rx="3" ry="4.5"/>
		</g>
		<circle cx="60.7" cy="121.9" r="9.3"/>
	</g>
	<g>
		<g>
			<circle class="st12" cx="213.4" cy="121.9" r="21.1"/>
			<path class="st13" d="M212,139.3c-8.5-0.7-15.3-7.5-16-16c0-0.5,0.6-0.8,0.9-0.4l15.5,15.5C212.7,138.7,212.5,139.3,212,139.3z"
				/>
			
				<ellipse transform="matrix(0.7071 -0.7071 0.7071 0.7071 -13.3996 190.6728)" class="st14" cx="223.5" cy="111.5" rx="3" ry="4.5"/>
		</g>
		<circle cx="213.4" cy="121.9" r="9.3"/>
	</g>
	<g>
		<g>
			<circle class="st12" cx="162.5" cy="121.9" r="21.1"/>
			<path class="st13" d="M161.1,139.3c-8.5-0.7-15.3-7.5-16-16c0-0.5,0.6-0.8,0.9-0.4l15.5,15.5
				C161.8,138.7,161.6,139.3,161.1,139.3z"/>
			
				<ellipse transform="matrix(0.7071 -0.7071 0.7071 0.7071 -28.3107 154.6844)" class="st14" cx="172.6" cy="111.5" rx="3" ry="4.5"/>
		</g>
		<circle cx="162.5" cy="121.9" r="9.3"/>
	</g>
	<g>
		<g>
			<circle class="st12" cx="111.6" cy="121.9" r="21.1"/>
			<path class="st13" d="M110.2,139.3c-8.5-0.7-15.3-7.5-16-16c0-0.5,0.6-0.8,0.9-0.4l15.5,15.5C111,138.7,110.7,139.3,110.2,139.3z
				"/>
			
				<ellipse transform="matrix(0.7071 -0.7071 0.7071 0.7071 -43.2219 118.696)" class="st14" cx="121.7" cy="111.5" rx="3" ry="4.5"/>
		</g>
		<circle cx="111.6" cy="121.9" r="9.3"/>
	</g>
	<g>
		<g>
			<circle class="st18" cx="365.7" cy="121.9" r="21.1"/>
			<path class="st19" d="M364.3,139.3c-8.5-0.7-15.3-7.5-16-16c0-0.5,0.6-0.8,0.9-0.4l15.5,15.5C365,138.7,364.8,139.3,364.3,139.3z
				"/>
			
				<ellipse transform="matrix(0.7071 -0.7071 0.7071 0.7071 31.2059 298.3659)" class="st20" cx="375.8" cy="111.5" rx="3" ry="4.5"/>
		</g>
		<circle cx="365.7" cy="121.9" r="9.3"/>
	</g>
	<g>
		<g>
			<circle class="st21" cx="874.9" cy="121.9" r="21.1"/>
			<path class="st22" d="M873.6,139.3c-8.5-0.7-15.3-7.5-16-16c0-0.5,0.6-0.8,0.9-0.4l15.5,15.5C874.3,138.7,874,139.3,873.6,139.3z
				"/>
			
				<ellipse transform="matrix(0.7071 -0.7071 0.7071 0.7071 180.3846 658.4823)" class="st23" cx="885.1" cy="111.5" rx="3" ry="4.5"/>
		</g>
		<circle cx="874.9" cy="121.9" r="9.3"/>
	</g>
	<g>
		<g>
			<circle class="st18" cx="416.8" cy="121.9" r="21.1"/>
			<path class="st19" d="M415.4,139.3c-8.5-0.7-15.3-7.5-16-16c0-0.5,0.6-0.8,0.9-0.4l15.5,15.5
				C416.1,138.7,415.9,139.3,415.4,139.3z"/>
			
				<ellipse transform="matrix(0.7071 -0.7071 0.7071 0.7071 46.1735 334.4977)" class="st20" cx="426.9" cy="111.5" rx="3" ry="4.5"/>
		</g>
		<circle cx="416.8" cy="121.9" r="9.3"/>
	</g>
	<g>
		<g>
			<circle class="st18" cx="467.7" cy="121.9" r="21.1"/>
			<path class="st19" d="M466.3,139.3c-8.5-0.7-15.3-7.5-16-16c0-0.5,0.6-0.8,0.9-0.4l15.5,15.5
				C467.1,138.7,466.8,139.3,466.3,139.3z"/>
			
				<ellipse transform="matrix(0.7071 -0.7071 0.7071 0.7071 61.0746 370.4961)" class="st20" cx="477.8" cy="111.5" rx="3" ry="4.5"/>
		</g>
		<circle cx="467.7" cy="121.9" r="9.3"/>
	</g>
	<g>
		<g>
			
				<ellipse transform="matrix(0.1602 -0.9871 0.9871 0.1602 315.1195 614.1786)" class="st18" cx="518.5" cy="121.9" rx="21.1" ry="21.1"/>
			<path class="st19" d="M517.2,139.3c-8.5-0.7-15.3-7.5-16-16c0-0.5,0.6-0.8,0.9-0.4l15.5,15.5
				C517.9,138.7,517.7,139.3,517.2,139.3z"/>
			
				<ellipse transform="matrix(0.7071 -0.7071 0.7071 0.7071 75.9917 406.4809)" class="st20" cx="528.7" cy="111.5" rx="3" ry="4.5"/>
		</g>
		<circle cx="518.5" cy="121.9" r="9.3"/>
	</g>
	<g>
		<g>
			<circle class="st18" cx="569.3" cy="121.9" r="21.1"/>
			<path class="st19" d="M567.9,139.3c-8.5-0.7-15.3-7.5-16-16c0-0.5,0.6-0.8,0.9-0.4l15.5,15.5
				C568.7,138.7,568.4,139.3,567.9,139.3z"/>
			
				<ellipse transform="matrix(0.7071 -0.7071 0.7071 0.7071 90.884 442.3858)" class="st20" cx="579.4" cy="111.5" rx="3" ry="4.5"/>
		</g>
		<circle cx="569.3" cy="121.9" r="9.3"/>
	</g>
	<line class="st24" x1="0" y1="121.9" x2="935.6" y2="121.9"/>
</g>
<path id="M_1_" class="st18" d="M494.3,15.2c0.6-2.2,0.7-2.8,5.3-2.8c1.4,0,2,0,2-1.2c0-0.7-0.6-0.7-1.7-0.7h-8.1
	c-1.6,0-1.7,0-2.4,1.2l-22.3,34.9L462.3,12c-0.2-1.4-0.3-1.4-1.9-1.4H452c-1.2,0-1.8,0-1.8,1.2c0,0.7,0.6,0.7,1.8,0.7
	c0.8,0,1.9,0.1,2.6,0.1c1,0.1,1.3,0.3,1.3,1c0,0.2-0.1,0.4-0.2,1.2L447.9,46c-0.6,2.4-1.7,4.4-6.6,4.6c-0.3,0-1.1,0.1-1.1,1.2
	c0,0.6,0.4,0.7,0.9,0.7c2,0,4.1-0.2,6.1-0.2c2.1,0,4.3,0.2,6.3,0.2c0.3,0,1.1,0,1.1-1.2c0-0.7-0.7-0.7-1.1-0.7
	c-3.5-0.1-4.2-1.3-4.2-2.7c0-0.4,0.1-0.7,0.2-1.4l8.3-33.4h0.1l5.3,37.9c0.1,0.7,0.2,1.4,0.9,1.4c0.7,0,1-0.7,1.3-1.1l24.7-38.7h0.1
	l-8.8,35.1c-0.6,2.4-0.7,2.9-5.6,2.9c-1,0-1.7,0-1.7,1.2c0,0.7,0.7,0.7,0.9,0.7c1.7,0,5.9-0.2,7.6-0.2c2.5,0,5.1,0.2,7.7,0.2
	c0.4,0,1.2,0,1.2-1.2c0-0.7-0.6-0.7-1.7-0.7c-2.3,0-4,0-4-1.1c0-0.2,0-0.4,0.3-1.5L494.3,15.2"/>
<path id="F_1_" class="st12" d="M716.7,32.3h5.9c4.6,0,5.1,1,5.1,2.8c0,0.4,0,1.2-0.4,3c-0.1,0.3-0.2,0.6-0.2,0.7
	c0,0.5,0.4,0.7,0.7,0.7c0.6,0,0.6-0.2,0.9-1.3l3.4-13.3c0.2-0.7,0.2-0.8,0.2-1c0-0.1-0.1-0.7-0.7-0.7s-0.7,0.3-0.9,1.3
	c-1.3,4.8-2.7,5.9-7.9,5.9h-5.6l3.9-15.5c0.6-2.1,0.6-2.4,3.3-2.4h8.1c7.5,0,8.9,2,8.9,6.7c0,1.4,0,1.7-0.2,3.3
	c-0.1,0.8-0.1,0.9-0.1,1.1c0,0.3,0.2,0.7,0.7,0.7c0.7,0,0.7-0.4,0.9-1.5l1.2-10.6c0.2-1.7-0.1-1.7-1.7-1.7h-30c-1.2,0-1.8,0-1.8,1.2
	c0,0.7,0.6,0.7,1.7,0.7c2.3,0,4,0,4,1.1c0,0.2,0,0.4-0.3,1.5l-8.1,32.4c-0.6,2.4-0.7,2.9-5.6,2.9c-1,0-1.7,0-1.7,1.2
	c0,0.7,0.7,0.7,0.9,0.7c1.8,0,6.3-0.2,8.1-0.2c2,0,7.1,0.2,9.1,0.2c0.6,0,1.3,0,1.3-1.2c0-0.5-0.4-0.6-0.4-0.7
	c-0.2-0.1-0.3-0.1-1.7-0.1c-1.3,0-1.7,0-3.2-0.1c-1.8-0.2-2-0.4-2-1.2c0-0.1,0-0.5,0.2-1.4L716.7,32.3"/>
<path id="B_1_" class="st12" d="M205.2,50.4c-0.9,0-1,0-1.3-0.1c-0.6-0.1-0.8-0.1-0.8-0.6c0-0.2,0-0.3,0.3-1.4l4.2-17.1h11.6
	c5.9,0,7,4.5,7,7.2c0,6.1-5.4,12-12.7,12L205.2,50.4 M208,29.8l3.8-15.2c0.6-2.1,0.7-2.3,3.3-2.3h7.9c5.4,0,6.7,3.6,6.7,6.3
	c0,5.4-5.3,11.2-12.7,11.2H208z M198.7,47.5c-0.6,2.4-0.7,2.9-5.6,2.9c-1,0-1.7,0-1.7,1.2c0,0.7,0.6,0.7,1.7,0.7H215
	c9.7,0,16.9-7.2,16.9-13.2c0-4.4-3.6-8-9.5-8.6c6.4-1.2,12.8-5.7,12.8-11.5c0-4.5-4-8.4-11.4-8.4h-20.6c-1.2,0-1.8,0-1.8,1.2
	c0,0.7,0.6,0.7,1.7,0.7c0.1,0,1.3,0,2.3,0.1c1.1,0.1,1.7,0.2,1.7,1c0,0.2-0.1,0.4-0.2,1.2L198.7,47.5z"/>
<path id="L_1_" class="st15" d="M62.7,13.7c0.6-2.2,0.7-2.9,6.5-2.9c1.8,0,2.3,0,2.3-1.2c0-0.7-0.7-0.7-1-0.7c-2,0-7,0.2-9.1,0.2
	c-1.8,0-6.3-0.2-8.1-0.2c-0.4,0-1.2,0-1.2,1.2c0,0.7,0.6,0.7,1.7,0.7c0.1,0,1.3,0,2.3,0.1c1.1,0.1,1.7,0.2,1.7,1
	c0,0.2-0.1,0.4-0.2,1.2L49.4,46c-0.6,2.4-0.7,2.9-5.6,2.9c-1,0-1.7,0-1.7,1.2c0,0.7,0.6,0.7,1.7,0.7h28.3c1.5,0,1.5,0,1.9-1
	l4.8-13.2c0.2-0.7,0.2-0.8,0.2-0.9c0-0.2-0.2-0.7-0.7-0.7c-0.6,0-0.6,0.3-1,1.3c-2.1,5.6-4.8,12.6-15.4,12.6h-5.8
	c-0.9,0-1,0-1.3-0.1c-0.6-0.1-0.8-0.1-0.8-0.6c0-0.2,0-0.3,0.3-1.4L62.7,13.7"/>
<path id="R_1_" class="st21" d="M882.3,30.8c6.2-1.3,13.5-5.6,13.5-11.8c0-5.3-5.5-9.2-13.5-9.2h-17.5c-1.2,0-1.8,0-1.8,1.2
	c0,0.7,0.6,0.7,1.7,0.7c0.1,0,1.3,0,2.3,0.1c1.1,0.1,1.7,0.2,1.7,1c0,0.2-0.1,0.4-0.2,1.2l-8.2,32.9c-0.6,2.4-0.7,2.9-5.6,2.9
	c-1.1,0-1.7,0-1.7,1.2c0,0.7,0.7,0.7,0.9,0.7c1.7,0,6-0.2,7.7-0.2s6.1,0.2,7.8,0.2c0.5,0,1.2,0,1.2-1.2c0-0.7-0.6-0.7-1.7-0.7
	c-2.3,0-4,0-4-1.1c0-0.4,0.1-0.7,0.2-1l4-16.2h7.3c5.6,0,6.7,3.4,6.7,5.6c0,0.9-0.5,2.8-0.9,4.2c-0.4,1.7-1,4-1,5.2
	c0,6.6,7.3,6.6,8.1,6.6c5.2,0,7.3-6.2,7.3-7c0-0.7-0.7-0.7-0.7-0.7c-0.6,0-0.7,0.4-0.8,0.9c-1.5,4.5-4.2,5.6-5.6,5.6
	c-2,0-2.4-1.3-2.4-3.7c0-1.9,0.4-5,0.6-7c0.1-0.9,0.2-2,0.2-2.9C888.1,33.3,884,31.4,882.3,30.8 M873.5,14c0.4-1.5,0.6-2.1,1.7-2.3
	c0.6-0.1,2.5-0.1,3.7-0.1c4.3,0,11.1,0,11.1,6.1c0,2.1-1,6.3-3.4,8.7c-1.6,1.6-4.8,3.5-10.3,3.5h-6.9L873.5,14z"/>
</svg>
