<?xml version="1.0" encoding="utf-8"?>
<!-- Generator: Adobe Illustrator 25.1.0, SVG Export Plug-In . SVG Version: 6.00 Build 0)  -->
<svg version="1.1" id="Layer_1" xmlns="http://www.w3.org/2000/svg" xmlns:xlink="http://www.w3.org/1999/xlink" x="0px" y="0px"
	 viewBox="0 0 935.6 347" style="enable-background:new 0 0 935.6 347;" xml:space="preserve">
<style type="text/css">
	.st0{opacity:0.2;fill:url(#SVGID_1_);enable-background:new    ;}
	.st1{opacity:0.2;fill:url(#SVGID_2_);enable-background:new    ;}
	.st2{opacity:0.2;fill:url(#SVGID_3_);enable-background:new    ;}
	.st3{fill:none;stroke:#FF00FF;stroke-width:6;stroke-miterlimit:10;}
	.st4{fill:none;stroke:#F7931E;stroke-width:6;stroke-miterlimit:10;}
	.st5{opacity:0.2;fill:url(#SVGID_4_);enable-background:new    ;}
	.st6{opacity:0.2;fill:url(#SVGID_5_);enable-background:new    ;}
	.st7{opacity:0.5;}
	.st8{fill:#888888;}
	.st9{fill:#666666;}
	.st10{fill:#999999;}
	.st11{fill:#F7931E;}
	.st12{fill:#D67A1E;}
	.st13{fill:#F4AA62;}
	.st14{opacity:0.7;}
	.st15{fill:#3131E8;}
	.st16{fill:#2C2CBF;}
	.st17{fill:#5555E5;}
	.st18{fill:#FF00FF;}
	.st19{fill:#E000E0;}
	.st20{fill:#EB65EB;}
	.st21{fill:#FF0000;}
	.st22{fill:#CE0000;}
	.st23{fill:#FF5C5C;}
	.st24{fill:none;stroke:#000000;stroke-width:4;stroke-linecap:round;stroke-miterlimit:10;}
</style>
<g>
	
		<linearGradient id="SVGID_1_" gradientUnits="userSpaceOnUse" x1="368.3769" y1="-371.427" x2="634.9769" y2="-371.427" gradientTransform="matrix(-1.836970e-16 1 1 1.836970e-16 584.677 -294.6769)">
		<stop  offset="0" style="stop-color:#F7931E"/>
		<stop  offset="0.3821" style="stop-color:#F79420"/>
		<stop  offset="0.5198" style="stop-color:#F79727"/>
		<stop  offset="0.618" style="stop-color:#F89D32"/>
		<stop  offset="0.6973" style="stop-color:#F8A543"/>
		<stop  offset="0.7653" style="stop-color:#F9B059"/>
		<stop  offset="0.8255" style="stop-color:#FABD75"/>
		<stop  offset="0.88" style="stop-color:#FBCC95"/>
		<stop  offset="0.93" style="stop-color:#FDDEBB"/>
		<stop  offset="0.9745" style="stop-color:#FEF2E4"/>
		<stop  offset="1" style="stop-color:#FFFFFF"/>
	</linearGradient>
	<polygon class="st0" points="86.1,73.7 340.4,73.7 340.4,340.3 86.1,340.3 	"/>
	
		<linearGradient id="SVGID_2_" gradientUnits="userSpaceOnUse" x1="369.1769" y1="136.523" x2="635.7769" y2="136.523" gradientTransform="matrix(-1.836970e-16 1 1 1.836970e-16 584.677 -294.6769)">
		<stop  offset="0" style="stop-color:#F7931E"/>
		<stop  offset="0.3821" style="stop-color:#F79420"/>
		<stop  offset="0.5198" style="stop-color:#F79727"/>
		<stop  offset="0.618" style="stop-color:#F89D32"/>
		<stop  offset="0.6973" style="stop-color:#F8A543"/>
		<stop  offset="0.7653" style="stop-color:#F9B059"/>
		<stop  offset="0.8255" style="stop-color:#FABD75"/>
		<stop  offset="0.88" style="stop-color:#FBCC95"/>
		<stop  offset="0.93" style="stop-color:#FDDEBB"/>
		<stop  offset="0.9745" style="stop-color:#FEF2E4"/>
		<stop  offset="1" style="stop-color:#FFFFFF"/>
	</linearGradient>
	<polygon class="st1" points="594.1,74.5 848.3,74.5 848.3,341.1 594.1,341.1 	"/>
	
		<linearGradient id="SVGID_3_" gradientUnits="userSpaceOnUse" x1="368.3769" y1="-116.977" x2="634.9769" y2="-116.977" gradientTransform="matrix(-1.836970e-16 1 1 1.836970e-16 584.677 -294.6769)">
		<stop  offset="0" style="stop-color:#FF00FF"/>
		<stop  offset="0.3726" style="stop-color:#FF02FF"/>
		<stop  offset="0.5069" style="stop-color:#FF09FF"/>
		<stop  offset="0.6026" style="stop-color:#FF14FF"/>
		<stop  offset="0.68" style="stop-color:#FF25FF"/>
		<stop  offset="0.7463" style="stop-color:#FF3BFF"/>
		<stop  offset="0.805" style="stop-color:#FF57FF"/>
		<stop  offset="0.8581" style="stop-color:#FF77FF"/>
		<stop  offset="0.9069" style="stop-color:#FF9DFF"/>
		<stop  offset="0.9523" style="stop-color:#FFC8FF"/>
		<stop  offset="0.9926" style="stop-color:#FFF6FF"/>
		<stop  offset="1" style="stop-color:#FFFFFF"/>
	</linearGradient>
	<polygon class="st2" points="340.4,73.7 595,73.7 595,340.3 340.4,340.3 	"/>
	<line class="st3" x1="595" y1="73.7" x2="595" y2="340.3"/>
	<line class="st3" x1="340.4" y1="340.3" x2="340.4" y2="73.7"/>
	<line class="st4" x1="849.5" y1="73.7" x2="849.5" y2="340.3"/>
	<line class="st4" x1="86.1" y1="340.3" x2="86.1" y2="73.7"/>
	
		<linearGradient id="SVGID_4_" gradientUnits="userSpaceOnUse" x1="368.3769" y1="-532.727" x2="634.9769" y2="-532.727" gradientTransform="matrix(-1.836970e-16 1 1 1.836970e-16 584.677 -294.6769)">
		<stop  offset="0" style="stop-color:#6C6CFF"/>
		<stop  offset="0.4163" style="stop-color:#6E6EFF"/>
		<stop  offset="0.5662" style="stop-color:#7575FF"/>
		<stop  offset="0.673" style="stop-color:#8080FF"/>
		<stop  offset="0.7595" style="stop-color:#9191FF"/>
		<stop  offset="0.8335" style="stop-color:#A7A7FF"/>
		<stop  offset="0.8991" style="stop-color:#C3C3FF"/>
		<stop  offset="0.9569" style="stop-color:#E2E2FF"/>
		<stop  offset="1" style="stop-color:#FFFFFF"/>
	</linearGradient>
	<polygon class="st5" points="17.8,73.7 86.1,73.7 86.1,340.3 17.8,340.3 	"/>
	
		<linearGradient id="SVGID_5_" gradientUnits="userSpaceOnUse" x1="369.1769" y1="298.973" x2="635.7769" y2="298.973" gradientTransform="matrix(-1.836970e-16 1 1 1.836970e-16 584.677 -294.6769)">
		<stop  offset="0" style="stop-color:#FF0000"/>
		<stop  offset="0.3726" style="stop-color:#FF0202"/>
		<stop  offset="0.5069" style="stop-color:#FF0909"/>
		<stop  offset="0.6026" style="stop-color:#FF1414"/>
		<stop  offset="0.68" style="stop-color:#FF2525"/>
		<stop  offset="0.7463" style="stop-color:#FF3B3B"/>
		<stop  offset="0.805" style="stop-color:#FF5757"/>
		<stop  offset="0.8581" style="stop-color:#FF7777"/>
		<stop  offset="0.9069" style="stop-color:#FF9D9D"/>
		<stop  offset="0.9523" style="stop-color:#FFC8C8"/>
		<stop  offset="0.9926" style="stop-color:#FFF6F6"/>
		<stop  offset="1" style="stop-color:#FFFFFF"/>
	</linearGradient>
	<polygon class="st6" points="849.5,74.5 917.8,74.5 917.8,341.1 849.5,341.1 	"/>
</g>
<g>
	<g class="st7">
		<circle class="st8" cx="467.8" cy="297.1" r="21.1"/>
		<path class="st9" d="M466.4,314.4c-8.5-0.7-15.3-7.5-16-16c0-0.5,0.6-0.8,0.9-0.4l15.5,15.5C467.2,313.9,466.9,314.5,466.4,314.4z
			"/>
		
			<ellipse transform="matrix(0.7071 -0.7071 0.7071 0.7071 -62.7792 421.909)" class="st10" cx="477.9" cy="286.7" rx="3" ry="4.5"/>
	</g>
	<g class="st7">
		<circle class="st11" cx="60.4" cy="297.1" r="21.1"/>
		<path class="st12" d="M59.1,314.4c-8.5-0.7-15.3-7.5-16-16c0-0.5,0.6-0.8,0.9-0.4l15.5,15.5C59.8,313.9,59.6,314.5,59.1,314.4z"/>
		
			<ellipse transform="matrix(0.7071 -0.7071 0.7071 0.7071 -182.0507 133.8844)" class="st13" cx="70.6" cy="286.7" rx="3" ry="4.5"/>
	</g>
	<g class="st7">
		<circle class="st11" cx="111.6" cy="297.1" r="21.1"/>
		<path class="st12" d="M110.2,314.4c-8.5-0.7-15.3-7.5-16-16c0-0.5,0.6-0.8,0.9-0.4l15.5,15.5C111,313.9,110.7,314.5,110.2,314.4z"
			/>
		
			<ellipse transform="matrix(0.7071 -0.7071 0.7071 0.7071 -167.0915 170.0247)" class="st13" cx="121.7" cy="286.7" rx="3" ry="4.5"/>
	</g>
	<g class="st7">
		<circle class="st11" cx="162.5" cy="297.1" r="21.1"/>
		<path class="st12" d="M161.1,314.4c-8.5-0.7-15.3-7.5-16-16c0-0.5,0.6-0.8,0.9-0.4l15.5,15.5C161.8,313.9,161.6,314.5,161.1,314.4
			z"/>
		
			<ellipse transform="matrix(0.7071 -0.7071 0.7071 0.7071 -152.1804 206.0131)" class="st13" cx="172.6" cy="286.7" rx="3" ry="4.5"/>
	</g>
	<g class="st7">
		<circle class="st11" cx="213.2" cy="297.1" r="21.1"/>
		<path class="st12" d="M211.9,314.4c-8.5-0.7-15.3-7.5-16-16c0-0.5,0.6-0.8,0.9-0.4l15.5,15.5C212.6,313.9,212.3,314.5,211.9,314.4
			z"/>
		
			<ellipse transform="matrix(0.7071 -0.7071 0.7071 0.7071 -137.29 241.9222)" class="st13" cx="223.4" cy="286.7" rx="3" ry="4.5"/>
	</g>
	<g class="st7">
		
			<ellipse transform="matrix(0.1602 -0.9871 0.9871 0.1602 -71.4678 510.1996)" class="st11" cx="264.1" cy="297.1" rx="21.1" ry="21.1"/>
		<path class="st12" d="M262.7,314.4c-8.5-0.7-15.3-7.5-16-16c0-0.5,0.6-0.8,0.9-0.4l15.5,15.5C263.5,313.9,263.2,314.5,262.7,314.4
			z"/>
		
			<ellipse transform="matrix(0.7071 -0.7071 0.7071 0.7071 -122.3788 277.9106)" class="st13" cx="274.3" cy="286.7" rx="3" ry="4.5"/>
	</g>
	<g class="st7">
		<circle class="st11" cx="314.9" cy="297.1" r="21.1"/>
		<path class="st12" d="M313.5,314.4c-8.5-0.7-15.3-7.5-16-16c0-0.5,0.6-0.8,0.9-0.4l15.5,15.5C314.3,313.9,314,314.5,313.5,314.4z"
			/>
		
			<ellipse transform="matrix(0.7071 -0.7071 0.7071 0.7071 -107.4985 313.8298)" class="st13" cx="325.1" cy="286.7" rx="3" ry="4.5"/>
	</g>
	<g class="st7">
		<circle class="st11" cx="365.8" cy="297.1" r="21.1"/>
		<path class="st12" d="M364.4,314.4c-8.5-0.7-15.3-7.5-16-16c0-0.5,0.6-0.8,0.9-0.4l15.5,15.5C365.1,313.9,364.9,314.5,364.4,314.4
			z"/>
		
			<ellipse transform="matrix(0.7071 -0.7071 0.7071 0.7071 -92.6331 349.7639)" class="st13" cx="375.9" cy="286.7" rx="3" ry="4.5"/>
	</g>
	<g class="st7">
		<circle class="st11" cx="416.8" cy="297.1" r="21.1"/>
		<path class="st12" d="M415.4,314.4c-8.5-0.7-15.3-7.5-16-16c0-0.5,0.6-0.8,0.9-0.4l15.5,15.5C416.1,313.9,415.9,314.5,415.4,314.4
			z"/>
		
			<ellipse transform="matrix(0.7071 -0.7071 0.7071 0.7071 -77.6962 385.8264)" class="st13" cx="426.9" cy="286.7" rx="3" ry="4.5"/>
	</g>
	<g class="st7">
		
			<ellipse transform="matrix(0.1602 -0.9871 0.9871 0.1602 142.1818 761.3147)" class="st11" cx="518.5" cy="297.1" rx="21.1" ry="21.1"/>
		<path class="st12" d="M517.2,314.4c-8.5-0.7-15.3-7.5-16-16c0-0.5,0.6-0.8,0.9-0.4l15.5,15.5C517.9,313.9,517.7,314.5,517.2,314.4
			z"/>
		
			<ellipse transform="matrix(0.7071 -0.7071 0.7071 0.7071 -47.8783 457.8098)" class="st13" cx="528.7" cy="286.7" rx="3" ry="4.5"/>
	</g>
	<g class="st7">
		<circle class="st11" cx="569.3" cy="297.1" r="21.1"/>
		<path class="st12" d="M567.9,314.4c-8.5-0.7-15.3-7.5-16-16c0-0.5,0.6-0.8,0.9-0.4l15.5,15.5C568.7,313.9,568.4,314.5,567.9,314.4
			z"/>
		
			<ellipse transform="matrix(0.7071 -0.7071 0.7071 0.7071 -32.9856 493.7144)" class="st13" cx="579.5" cy="286.7" rx="3" ry="4.5"/>
	</g>
	<g class="st7">
		<circle class="st11" cx="620.4" cy="297.1" r="21.1"/>
		<path class="st12" d="M619,314.4c-8.5-0.7-15.3-7.5-16-16c0-0.5,0.6-0.8,0.9-0.4l15.5,15.5C619.8,313.9,619.5,314.5,619,314.4z"/>
		
			<ellipse transform="matrix(0.7071 -0.7071 0.7071 0.7071 -18.0233 529.8516)" class="st13" cx="630.6" cy="286.7" rx="3" ry="4.5"/>
	</g>
	<g class="st7">
		<circle class="st11" cx="671.4" cy="297.1" r="21.1"/>
		<path class="st12" d="M670,314.4c-8.5-0.7-15.3-7.5-16-16c0-0.5,0.6-0.8,0.9-0.4l15.5,15.5C670.7,313.9,670.5,314.5,670,314.4z"/>
		
			<ellipse transform="matrix(0.7071 -0.7071 0.7071 0.7071 -3.1296 565.8574)" class="st13" cx="681.5" cy="286.7" rx="3" ry="4.5"/>
	</g>
	<g class="st7">
		<circle class="st11" cx="722.2" cy="297.1" r="21.1"/>
		<path class="st12" d="M720.9,314.4c-8.5-0.7-15.3-7.5-16-16c0-0.5,0.6-0.8,0.9-0.4l15.5,15.5C721.6,313.9,721.4,314.5,720.9,314.4
			z"/>
		
			<ellipse transform="matrix(0.7071 -0.7071 0.7071 0.7071 11.7815 601.8458)" class="st13" cx="732.4" cy="286.7" rx="3" ry="4.5"/>
	</g>
	<g class="st7">
		<circle class="st11" cx="773.1" cy="297.1" r="21.1"/>
		<path class="st12" d="M771.8,314.4c-8.5-0.7-15.3-7.5-16-16c0-0.5,0.6-0.8,0.9-0.4l15.5,15.5C772.5,313.9,772.3,314.5,771.8,314.4
			z"/>
		
			<ellipse transform="matrix(0.7071 -0.7071 0.7071 0.7071 26.6927 637.8342)" class="st13" cx="783.3" cy="286.7" rx="3" ry="4.5"/>
	</g>
	<g class="st7">
		<circle class="st11" cx="823.8" cy="297.1" r="21.1"/>
		<path class="st12" d="M822.4,314.4c-8.5-0.7-15.3-7.5-16-16c0-0.5,0.6-0.8,0.9-0.4l15.5,15.5C823.2,313.9,822.9,314.5,822.4,314.4
			z"/>
		<ellipse transform="matrix(0.7071 -0.7071 0.7071 0.7071 41.5559 673.6705)" class="st13" cx="834" cy="286.7" rx="3" ry="4.5"/>
	</g>
	<g class="st7">
		<circle class="st11" cx="874.9" cy="297.1" r="21.1"/>
		<path class="st12" d="M873.6,314.4c-8.5-0.7-15.3-7.5-16-16c0-0.5,0.6-0.8,0.9-0.4l15.5,15.5C874.3,313.9,874,314.5,873.6,314.4z"
			/>
		
			<ellipse transform="matrix(0.7071 -0.7071 0.7071 0.7071 56.5149 709.8109)" class="st13" cx="885.1" cy="286.7" rx="3" ry="4.5"/>
	</g>
</g>
<g>
	<g class="st14">
		<circle class="st8" cx="416.8" cy="207" r="21.1"/>
		<path class="st9" d="M415.4,224.3c-8.5-0.7-15.3-7.5-16-16c0-0.5,0.6-0.8,0.9-0.4l15.5,15.5C416.1,223.8,415.9,224.4,415.4,224.3z
			"/>
		
			<ellipse transform="matrix(0.7071 -0.7071 0.7071 0.7071 -13.9936 359.4299)" class="st10" cx="426.9" cy="196.6" rx="3" ry="4.5"/>
	</g>
	<g class="st14">
		<circle class="st8" cx="467.8" cy="207" r="21.1"/>
		<path class="st9" d="M466.4,224.3c-8.5-0.7-15.3-7.5-16-16c0-0.5,0.6-0.8,0.9-0.4l15.5,15.5C467.2,223.8,466.9,224.4,466.4,224.3z
			"/>
		<ellipse transform="matrix(0.7071 -0.7071 0.7071 0.7071 0.9234 395.5125)" class="st10" cx="477.9" cy="196.6" rx="3" ry="4.5"/>
	</g>
	<g class="st14">
		
			<ellipse transform="matrix(0.1602 -0.9871 0.9871 0.1602 231.1184 685.6471)" class="st8" cx="518.5" cy="207" rx="21.1" ry="21.1"/>
		<path class="st9" d="M517.2,224.3c-8.5-0.7-15.3-7.5-16-16c0-0.5,0.6-0.8,0.9-0.4l15.5,15.5C517.9,223.8,517.7,224.4,517.2,224.3z
			"/>
		
			<ellipse transform="matrix(0.7071 -0.7071 0.7071 0.7071 15.8245 431.4131)" class="st10" cx="528.7" cy="196.6" rx="3" ry="4.5"/>
	</g>
	<g class="st14">
		<circle class="st11" cx="60.7" cy="206.8" r="21.1"/>
		<path class="st12" d="M59.3,224.1c-8.5-0.7-15.3-7.5-16-16c0-0.5,0.6-0.8,0.9-0.4l15.5,15.5C60.1,223.5,59.8,224.1,59.3,224.1z"/>
		
			<ellipse transform="matrix(0.7071 -0.7071 0.7071 0.7071 -118.148 107.5918)" class="st13" cx="70.8" cy="196.4" rx="3" ry="4.5"/>
	</g>
	<g class="st14">
		<circle class="st11" cx="111.6" cy="206.8" r="21.1"/>
		<path class="st12" d="M110.2,224.1c-8.5-0.7-15.3-7.5-16-16c0-0.5,0.6-0.8,0.9-0.4l15.5,15.5C111,223.5,110.7,224.1,110.2,224.1z"
			/>
		
			<ellipse transform="matrix(0.7071 -0.7071 0.7071 0.7071 -103.2369 143.5802)" class="st13" cx="121.7" cy="196.4" rx="3" ry="4.5"/>
	</g>
	<g class="st14">
		<circle class="st11" cx="162.5" cy="206.8" r="21.1"/>
		<path class="st12" d="M161.1,224.1c-8.5-0.7-15.3-7.5-16-16c0-0.5,0.6-0.8,0.9-0.4l15.5,15.5C161.8,223.5,161.6,224.1,161.1,224.1
			z"/>
		
			<ellipse transform="matrix(0.7071 -0.7071 0.7071 0.7071 -88.3258 179.5686)" class="st13" cx="172.6" cy="196.4" rx="3" ry="4.5"/>
	</g>
	<g class="st14">
		<circle class="st11" cx="213.4" cy="206.8" r="21.1"/>
		<path class="st12" d="M212,224.1c-8.5-0.7-15.3-7.5-16-16c0-0.5,0.6-0.8,0.9-0.4l15.5,15.5C212.7,223.5,212.5,224.1,212,224.1z"/>
		
			<ellipse transform="matrix(0.7071 -0.7071 0.7071 0.7071 -73.4146 215.5569)" class="st13" cx="223.5" cy="196.4" rx="3" ry="4.5"/>
	</g>
	<g class="st14">
		
			<ellipse transform="matrix(0.1602 -0.9871 0.9871 0.1602 17.6662 434.3641)" class="st11" cx="264.1" cy="206.8" rx="21.1" ry="21.1"/>
		<path class="st12" d="M262.7,224.1c-8.5-0.7-15.3-7.5-16-16c0-0.5,0.6-0.8,0.9-0.4l15.5,15.5C263.5,223.5,263.2,224.1,262.7,224.1
			z"/>
		
			<ellipse transform="matrix(0.7071 -0.7071 0.7071 0.7071 -58.5243 251.4661)" class="st13" cx="274.3" cy="196.4" rx="3" ry="4.5"/>
	</g>
	<g class="st14">
		<circle class="st11" cx="314.9" cy="206.8" r="21.1"/>
		<path class="st12" d="M313.5,224.1c-8.5-0.7-15.3-7.5-16-16c0-0.5,0.6-0.8,0.9-0.4l15.5,15.5C314.3,223.5,314,224.1,313.5,224.1z"
			/>
		
			<ellipse transform="matrix(0.7071 -0.7071 0.7071 0.7071 -43.6439 287.3852)" class="st13" cx="325.1" cy="196.4" rx="3" ry="4.5"/>
	</g>
	<g class="st14">
		<circle class="st11" cx="365.8" cy="206.8" r="21.1"/>
		<path class="st12" d="M364.4,224.1c-8.5-0.7-15.3-7.5-16-16c0-0.5,0.6-0.8,0.9-0.4l15.5,15.5C365.1,223.5,364.9,224.1,364.4,224.1
			z"/>
		
			<ellipse transform="matrix(0.7071 -0.7071 0.7071 0.7071 -28.7785 323.3193)" class="st13" cx="375.9" cy="196.4" rx="3" ry="4.5"/>
	</g>
	<g class="st14">
		<circle class="st11" cx="569.3" cy="207" r="21.1"/>
		<path class="st12" d="M567.9,224.3c-8.5-0.7-15.3-7.5-16-16c0-0.5,0.6-0.8,0.9-0.4l15.5,15.5C568.7,223.8,568.4,224.4,567.9,224.3
			z"/>
		<ellipse transform="matrix(0.7071 -0.7071 0.7071 0.7071 30.717 467.3178)" class="st13" cx="579.5" cy="196.6" rx="3" ry="4.5"/>
	</g>
	<g class="st14">
		<circle class="st11" cx="620.4" cy="207" r="21.1"/>
		<path class="st12" d="M619,224.3c-8.5-0.7-15.3-7.5-16-16c0-0.5,0.6-0.8,0.9-0.4l15.5,15.5C619.8,223.8,619.5,224.4,619,224.3z"/>
		<ellipse transform="matrix(0.7071 -0.7071 0.7071 0.7071 45.6792 503.455)" class="st13" cx="630.6" cy="196.6" rx="3" ry="4.5"/>
	</g>
	<g class="st14">
		<circle class="st11" cx="671.1" cy="207" r="21.1"/>
		<path class="st12" d="M669.8,224.3c-8.5-0.7-15.3-7.5-16-16c0-0.5,0.6-0.8,0.9-0.4l15.5,15.5C670.5,223.8,670.2,224.4,669.8,224.3
			z"/>
		<ellipse transform="matrix(0.7071 -0.7071 0.7071 0.7071 60.5248 539.309)" class="st13" cx="681.3" cy="196.6" rx="3" ry="4.5"/>
	</g>
	<g class="st14">
		<circle class="st11" cx="722.2" cy="207" r="21.1"/>
		<path class="st12" d="M720.9,224.3c-8.5-0.7-15.3-7.5-16-16c0-0.5,0.6-0.8,0.9-0.4l15.5,15.5C721.6,223.8,721.4,224.4,720.9,224.3
			z"/>
		<ellipse transform="matrix(0.7071 -0.7071 0.7071 0.7071 75.484 575.4492)" class="st13" cx="732.4" cy="196.6" rx="3" ry="4.5"/>
	</g>
	<g class="st14">
		<circle class="st11" cx="773.1" cy="207" r="21.1"/>
		<path class="st12" d="M771.8,224.3c-8.5-0.7-15.3-7.5-16-16c0-0.5,0.6-0.8,0.9-0.4l15.5,15.5C772.5,223.8,772.3,224.4,771.8,224.3
			z"/>
		
			<ellipse transform="matrix(0.7071 -0.7071 0.7071 0.7071 90.3952 611.4376)" class="st13" cx="783.3" cy="196.6" rx="3" ry="4.5"/>
	</g>
	<g class="st14">
		<circle class="st11" cx="823.8" cy="207" r="21.1"/>
		<path class="st12" d="M822.4,224.3c-8.5-0.7-15.3-7.5-16-16c0-0.5,0.6-0.8,0.9-0.4l15.5,15.5C823.2,223.8,822.9,224.4,822.4,224.3
			z"/>
		<ellipse transform="matrix(0.7071 -0.7071 0.7071 0.7071 105.2584 647.2739)" class="st13" cx="834" cy="196.6" rx="3" ry="4.5"/>
	</g>
	<g class="st14">
		<circle class="st11" cx="874.7" cy="207" r="21.1"/>
		<path class="st12" d="M873.3,224.3c-8.5-0.7-15.3-7.5-16-16c0-0.5,0.6-0.8,0.9-0.4l15.5,15.5C874.1,223.8,873.8,224.4,873.3,224.3
			z"/>
		
			<ellipse transform="matrix(0.7071 -0.7071 0.7071 0.7071 120.0988 683.233)" class="st13" cx="884.8" cy="196.6" rx="3" ry="4.5"/>
	</g>
</g>
<g>
	<g>
		<g>
			<circle class="st11" cx="314.9" cy="116.9" r="21.1"/>
			<path class="st12" d="M313.5,134.3c-8.5-0.7-15.3-7.5-16-16c0-0.5,0.6-0.8,0.9-0.4l15.5,15.5C314.3,133.7,314,134.3,313.5,134.3z
				"/>
			
				<ellipse transform="matrix(0.7071 -0.7071 0.7071 0.7071 19.9066 261.0366)" class="st13" cx="325.1" cy="106.5" rx="3" ry="4.5"/>
		</g>
		<circle cx="314.9" cy="116.9" r="9.3"/>
	</g>
	<g>
		<g>
			<circle class="st11" cx="620.4" cy="116.9" r="21.1"/>
			<path class="st12" d="M619,134.3c-8.5-0.7-15.3-7.5-16-16c0-0.5,0.6-0.8,0.9-0.4l15.5,15.5C619.8,133.7,619.5,134.3,619,134.3z"
				/>
			
				<ellipse transform="matrix(0.7071 -0.7071 0.7071 0.7071 109.3818 477.0585)" class="st13" cx="630.6" cy="106.5" rx="3" ry="4.5"/>
		</g>
		<circle cx="620.4" cy="116.9" r="9.3"/>
	</g>
	<g>
		<g>
			<circle class="st11" cx="824" cy="116.9" r="21.1"/>
			<path class="st12" d="M822.7,134.3c-8.5-0.7-15.3-7.5-16-16c0-0.5,0.6-0.8,0.9-0.4l15.5,15.5
				C823.4,133.7,823.1,134.3,822.7,134.3z"/>
			
				<ellipse transform="matrix(0.7071 -0.7071 0.7071 0.7071 169.009 621.0294)" class="st13" cx="834.2" cy="106.5" rx="3" ry="4.5"/>
		</g>
		<circle cx="824" cy="116.9" r="9.3"/>
	</g>
	<g>
		<g>
			<circle class="st11" cx="772.9" cy="116.9" r="21.1"/>
			<path class="st12" d="M771.5,134.3c-8.5-0.7-15.3-7.5-16-16c0-0.5,0.6-0.8,0.9-0.4l15.5,15.5C772.3,133.7,772,134.3,771.5,134.3z
				"/>
			<ellipse transform="matrix(0.7071 -0.7071 0.7071 0.7071 154.0498 584.889)" class="st13" cx="783" cy="106.5" rx="3" ry="4.5"/>
		</g>
		<circle cx="772.9" cy="116.9" r="9.3"/>
	</g>
	<g>
		<g>
			<circle class="st11" cx="722.2" cy="116.9" r="21.1"/>
			<path class="st12" d="M720.9,134.3c-8.5-0.7-15.3-7.5-16-16c0-0.5,0.6-0.8,0.9-0.4l15.5,15.5
				C721.6,133.7,721.4,134.3,720.9,134.3z"/>
			
				<ellipse transform="matrix(0.7071 -0.7071 0.7071 0.7071 139.1866 549.0527)" class="st13" cx="732.4" cy="106.5" rx="3" ry="4.5"/>
		</g>
		<circle cx="722.2" cy="116.9" r="9.3"/>
	</g>
	<g>
		<g>
			<circle class="st11" cx="671.4" cy="116.9" r="21.1"/>
			<path class="st12" d="M670,134.3c-8.5-0.7-15.3-7.5-16-16c0-0.5,0.6-0.8,0.9-0.4l15.5,15.5C670.7,133.7,670.5,134.3,670,134.3z"
				/>
			
				<ellipse transform="matrix(0.7071 -0.7071 0.7071 0.7071 124.2755 513.0643)" class="st13" cx="681.5" cy="106.5" rx="3" ry="4.5"/>
		</g>
		<circle cx="671.4" cy="116.9" r="9.3"/>
	</g>
	<g>
		<g>
			
				<ellipse transform="matrix(0.1602 -0.9871 0.9871 0.1602 106.4053 358.8645)" class="st11" cx="264.1" cy="116.9" rx="21.1" ry="21.1"/>
			<path class="st12" d="M262.7,134.3c-8.5-0.7-15.3-7.5-16-16c0-0.5,0.6-0.8,0.9-0.4l15.5,15.5
				C263.5,133.7,263.2,134.3,262.7,134.3z"/>
			
				<ellipse transform="matrix(0.7071 -0.7071 0.7071 0.7071 5.0263 225.1175)" class="st13" cx="274.3" cy="106.5" rx="3" ry="4.5"/>
		</g>
		<circle cx="264.1" cy="116.9" r="9.3"/>
	</g>
	<g>
		<g>
			<circle class="st15" cx="60.7" cy="116.9" r="21.1"/>
			<path class="st16" d="M59.3,134.3c-8.5-0.7-15.3-7.5-16-16c0-0.5,0.6-0.8,0.9-0.4l15.5,15.5C60.1,133.7,59.8,134.3,59.3,134.3z"
				/>
			
				<ellipse transform="matrix(0.7071 -0.7071 0.7071 0.7071 -54.5975 81.2433)" class="st17" cx="70.8" cy="106.5" rx="3" ry="4.5"/>
		</g>
		<circle cx="60.7" cy="116.9" r="9.3"/>
	</g>
	<g>
		<g>
			<circle class="st11" cx="213.4" cy="116.9" r="21.1"/>
			<path class="st12" d="M212,134.3c-8.5-0.7-15.3-7.5-16-16c0-0.5,0.6-0.8,0.9-0.4l15.5,15.5C212.7,133.7,212.5,134.3,212,134.3z"
				/>
			
				<ellipse transform="matrix(0.7071 -0.7071 0.7071 0.7071 -9.8641 189.2083)" class="st13" cx="223.5" cy="106.5" rx="3" ry="4.5"/>
		</g>
		<circle cx="213.4" cy="116.9" r="9.3"/>
	</g>
	<g>
		<g>
			<circle class="st11" cx="162.5" cy="116.9" r="21.1"/>
			<path class="st12" d="M161.1,134.3c-8.5-0.7-15.3-7.5-16-16c0-0.5,0.6-0.8,0.9-0.4l15.5,15.5
				C161.8,133.7,161.6,134.3,161.1,134.3z"/>
			
				<ellipse transform="matrix(0.7071 -0.7071 0.7071 0.7071 -24.7752 153.2199)" class="st13" cx="172.6" cy="106.5" rx="3" ry="4.5"/>
		</g>
		<circle cx="162.5" cy="116.9" r="9.3"/>
	</g>
	<g>
		<g>
			<circle class="st11" cx="111.6" cy="116.9" r="21.1"/>
			<path class="st12" d="M110.2,134.3c-8.5-0.7-15.3-7.5-16-16c0-0.5,0.6-0.8,0.9-0.4l15.5,15.5C111,133.7,110.7,134.3,110.2,134.3z
				"/>
			
				<ellipse transform="matrix(0.7071 -0.7071 0.7071 0.7071 -39.6864 117.2316)" class="st13" cx="121.7" cy="106.5" rx="3" ry="4.5"/>
		</g>
		<circle cx="111.6" cy="116.9" r="9.3"/>
	</g>
	<g>
		<g>
			<circle class="st18" cx="365.7" cy="116.9" r="21.1"/>
			<path class="st19" d="M364.3,134.3c-8.5-0.7-15.3-7.5-16-16c0-0.5,0.6-0.8,0.9-0.4l15.5,15.5C365,133.7,364.8,134.3,364.3,134.3z
				"/>
			
				<ellipse transform="matrix(0.7071 -0.7071 0.7071 0.7071 34.7414 296.9014)" class="st20" cx="375.8" cy="106.5" rx="3" ry="4.5"/>
		</g>
		<circle cx="365.7" cy="116.9" r="9.3"/>
	</g>
	<g>
		<g>
			<circle class="st21" cx="874.9" cy="116.9" r="21.1"/>
			<path class="st22" d="M873.6,134.3c-8.5-0.7-15.3-7.5-16-16c0-0.5,0.6-0.8,0.9-0.4l15.5,15.5C874.3,133.7,874,134.3,873.6,134.3z
				"/>
			
				<ellipse transform="matrix(0.7071 -0.7071 0.7071 0.7071 183.9202 657.0178)" class="st23" cx="885.1" cy="106.5" rx="3" ry="4.5"/>
		</g>
		<circle cx="874.9" cy="116.9" r="9.3"/>
	</g>
	<g>
		<g>
			<circle class="st18" cx="416.8" cy="116.9" r="21.1"/>
			<path class="st19" d="M415.4,134.3c-8.5-0.7-15.3-7.5-16-16c0-0.5,0.6-0.8,0.9-0.4l15.5,15.5
				C416.1,133.7,415.9,134.3,415.4,134.3z"/>
			
				<ellipse transform="matrix(0.7071 -0.7071 0.7071 0.7071 49.709 333.0333)" class="st20" cx="426.9" cy="106.5" rx="3" ry="4.5"/>
		</g>
		<circle cx="416.8" cy="116.9" r="9.3"/>
	</g>
	<g>
		<g>
			<circle class="st18" cx="467.7" cy="116.9" r="21.1"/>
			<path class="st19" d="M466.3,134.3c-8.5-0.7-15.3-7.5-16-16c0-0.5,0.6-0.8,0.9-0.4l15.5,15.5
				C467.1,133.7,466.8,134.3,466.3,134.3z"/>
			
				<ellipse transform="matrix(0.7071 -0.7071 0.7071 0.7071 64.6101 369.0316)" class="st20" cx="477.8" cy="106.5" rx="3" ry="4.5"/>
		</g>
		<circle cx="467.7" cy="116.9" r="9.3"/>
	</g>
	<g>
		<g>
			
				<ellipse transform="matrix(0.1602 -0.9871 0.9871 0.1602 320.055 609.9796)" class="st18" cx="518.5" cy="116.9" rx="21.1" ry="21.1"/>
			<path class="st19" d="M517.2,134.3c-8.5-0.7-15.3-7.5-16-16c0-0.5,0.6-0.8,0.9-0.4l15.5,15.5
				C517.9,133.7,517.7,134.3,517.2,134.3z"/>
			
				<ellipse transform="matrix(0.7071 -0.7071 0.7071 0.7071 79.5272 405.0164)" class="st20" cx="528.7" cy="106.5" rx="3" ry="4.5"/>
		</g>
		<circle cx="518.5" cy="116.9" r="9.3"/>
	</g>
	<g>
		<g>
			<circle class="st18" cx="569.3" cy="116.9" r="21.1"/>
			<path class="st19" d="M567.9,134.3c-8.5-0.7-15.3-7.5-16-16c0-0.5,0.6-0.8,0.9-0.4l15.5,15.5
				C568.7,133.7,568.4,134.3,567.9,134.3z"/>
			
				<ellipse transform="matrix(0.7071 -0.7071 0.7071 0.7071 94.4196 440.9213)" class="st20" cx="579.4" cy="106.5" rx="3" ry="4.5"/>
		</g>
		<circle cx="569.3" cy="116.9" r="9.3"/>
	</g>
	<line class="st24" x1="0" y1="116.9" x2="935.6" y2="116.9"/>
</g>
<path id="F_1_" class="st11" d="M716.7,27.3h5.9c4.6,0,5.1,1,5.1,2.8c0,0.4,0,1.2-0.4,3c-0.1,0.3-0.2,0.6-0.2,0.7
	c0,0.5,0.4,0.7,0.7,0.7c0.6,0,0.6-0.2,0.9-1.3l3.4-13.3c0.2-0.7,0.2-0.8,0.2-1c0-0.1-0.1-0.7-0.7-0.7c-0.6,0-0.7,0.3-0.9,1.3
	c-1.3,4.8-2.7,5.9-7.9,5.9h-5.6l3.9-15.5c0.6-2.1,0.6-2.4,3.3-2.4h8.1c7.5,0,8.9,2,8.9,6.7c0,1.4,0,1.7-0.2,3.3
	c-0.1,0.8-0.1,0.9-0.1,1.1c0,0.3,0.2,0.7,0.7,0.7c0.7,0,0.7-0.4,0.9-1.5l1.2-10.6c0.2-1.7-0.1-1.7-1.7-1.7h-30c-1.2,0-1.8,0-1.8,1.2
	c0,0.7,0.6,0.7,1.7,0.7c2.3,0,4,0,4,1.1c0,0.2,0,0.4-0.3,1.5l-8.1,32.4c-0.6,2.4-0.7,2.9-5.6,2.9c-1,0-1.7,0-1.7,1.2
	c0,0.7,0.7,0.7,0.9,0.7c1.8,0,6.3-0.2,8.1-0.2c2,0,7.1,0.2,9.1,0.2c0.6,0,1.3,0,1.3-1.2c0-0.5-0.4-0.6-0.4-0.7
	c-0.2-0.1-0.3-0.1-1.7-0.1c-1.3,0-1.7,0-3.2-0.1c-1.8-0.2-2-0.4-2-1.2c0-0.1,0-0.5,0.2-1.4L716.7,27.3"/>
<path id="B_1_" class="st11" d="M205.2,45.4c-0.9,0-1,0-1.3-0.1c-0.6-0.1-0.8-0.1-0.8-0.6c0-0.2,0-0.3,0.3-1.4l4.2-17.1h11.6
	c5.9,0,7,4.5,7,7.2c0,6.1-5.4,12-12.7,12L205.2,45.4 M208,24.8l3.8-15.2c0.6-2.1,0.7-2.3,3.3-2.3h7.9c5.4,0,6.7,3.6,6.7,6.3
	c0,5.4-5.3,11.2-12.7,11.2H208z M198.7,42.5c-0.6,2.4-0.7,2.9-5.6,2.9c-1,0-1.7,0-1.7,1.2c0,0.7,0.6,0.7,1.7,0.7H215
	c9.7,0,16.9-7.2,16.9-13.2c0-4.4-3.6-8-9.5-8.6c6.4-1.2,12.8-5.7,12.8-11.5c0-4.5-4-8.4-11.4-8.4h-20.6c-1.2,0-1.8,0-1.8,1.2
	c0,0.7,0.6,0.7,1.7,0.7c0.1,0,1.3,0,2.3,0.1c1.1,0.1,1.7,0.2,1.7,1c0,0.2-0.1,0.4-0.2,1.2L198.7,42.5z"/>
</svg>
