<?xml version="1.0" encoding="utf-8"?>
<!-- Generator: Adobe Illustrator 25.1.0, SVG Export Plug-In . SVG Version: 6.00 Build 0)  -->
<svg version="1.1" id="Layer_1" xmlns="http://www.w3.org/2000/svg" xmlns:xlink="http://www.w3.org/1999/xlink" x="0px" y="0px"
	 viewBox="0 0 900 650" style="enable-background:new 0 0 900 650;" xml:space="preserve">
<style type="text/css">
	.st0{fill:#EEEEEE;}
	.st1{fill:#FF00FF;}
	.st2{opacity:0.2;fill:url(#SVGID_1_);enable-background:new    ;}
	.st3{fill:none;stroke:#FF00FF;stroke-width:4;stroke-miterlimit:10;}
	.st4{opacity:0.502;}
	.st5{fill:#E000E0;}
	.st6{fill:#EB65EB;}
	.st7{opacity:0.5;}
	.st8{fill:#888888;}
	.st9{fill:#666666;}
	.st10{fill:#999999;}
	.st11{opacity:0.702;}
	.st12{fill:none;stroke:#000000;stroke-width:4;stroke-linecap:round;stroke-miterlimit:10;}
</style>
<g>
	<path class="st0" d="M25,645c-11,0-20-9-20-20V25C5,14,14,5,25,5h850c11,0,20,9,20,20v600c0,11-9,20-20,20H25z"/>
	<path class="st1" d="M875,10c8.3,0,15,6.7,15,15v600c0,8.3-6.7,15-15,15H25c-8.3,0-15-6.7-15-15V25c0-8.3,6.7-15,15-15H875 M875,0
		H25C11.2,0,0,11.2,0,25v600c0,13.8,11.2,25,25,25h850c13.8,0,25-11.2,25-25V25C900,11.2,888.8,0,875,0L875,0z"/>
</g>
<g>
	
		<linearGradient id="SVGID_1_" gradientUnits="userSpaceOnUse" x1="279.5769" y1="0.973" x2="686.9769" y2="0.973" gradientTransform="matrix(-1.836970e-16 1 1 1.836970e-16 448.877 -158.8769)">
		<stop  offset="0" style="stop-color:#FF00FF"/>
		<stop  offset="0.3726" style="stop-color:#FF02FF"/>
		<stop  offset="0.5069" style="stop-color:#FF09FF"/>
		<stop  offset="0.6026" style="stop-color:#FF14FF"/>
		<stop  offset="0.68" style="stop-color:#FF25FF"/>
		<stop  offset="0.7463" style="stop-color:#FF3BFF"/>
		<stop  offset="0.805" style="stop-color:#FF57FF"/>
		<stop  offset="0.8581" style="stop-color:#FF77FF"/>
		<stop  offset="0.9069" style="stop-color:#FF9DFF"/>
		<stop  offset="0.9523" style="stop-color:#FFC8FF"/>
		<stop  offset="0.9926" style="stop-color:#FFF6FF"/>
		<stop  offset="1" style="stop-color:#FFFFFF"/>
	</linearGradient>
	<polygon class="st2" points="177.6,120.7 722.1,120.7 722.1,528.1 177.6,528.1 	"/>
	<line class="st3" x1="722.1" y1="120.7" x2="722.1" y2="528.1"/>
	<line class="st3" x1="177.6" y1="528.1" x2="177.6" y2="120.7"/>
</g>
<g>
	<g class="st4">
		<circle class="st1" cx="216.5" cy="462" r="32.2"/>
		<path class="st5" d="M214.4,488.5c-13-1-23.4-11.4-24.4-24.4c-0.1-0.7,0.9-1.2,1.4-0.6l23.6,23.6
			C215.6,487.7,215.1,488.6,214.4,488.5z"/>
		
			<ellipse transform="matrix(0.7071 -0.7071 0.7071 0.7071 -247.5508 294.7426)" class="st6" cx="232" cy="446.2" rx="4.5" ry="6.8"/>
	</g>
	<g class="st4">
		<circle class="st1" cx="294" cy="462" r="32.2"/>
		<path class="st5" d="M291.9,488.5c-13-1-23.4-11.4-24.4-24.4c-0.1-0.7,0.9-1.2,1.4-0.6l23.6,23.6
			C293.1,487.7,292.7,488.6,291.9,488.5z"/>
		
			<ellipse transform="matrix(0.7071 -0.7071 0.7071 0.7071 -224.8608 349.5519)" class="st6" cx="309.5" cy="446.2" rx="4.5" ry="6.8"/>
	</g>
	<g class="st4">
		<circle class="st1" cx="372.1" cy="462" r="32.2"/>
		<path class="st5" d="M370,488.5c-13-1-23.4-11.4-24.4-24.4c-0.1-0.7,0.9-1.2,1.4-0.6l23.6,23.6C371.2,487.7,370.7,488.6,370,488.5
			z"/>
		
			<ellipse transform="matrix(0.7071 -0.7071 0.7071 0.7071 -201.9755 404.7658)" class="st6" cx="387.6" cy="446.2" rx="4.5" ry="6.8"/>
	</g>
	<g class="st4">
		<circle class="st1" cx="450" cy="462" r="32.2"/>
		<path class="st5" d="M447.9,488.5c-13-1-23.4-11.4-24.4-24.4c-0.1-0.7,0.9-1.2,1.4-0.6l23.6,23.6
			C449,487.7,448.6,488.6,447.9,488.5z"/>
		
			<ellipse transform="matrix(0.7071 -0.7071 0.7071 0.7071 -179.1475 459.8371)" class="st6" cx="465.5" cy="446.2" rx="4.5" ry="6.8"/>
	</g>
	<g class="st4">
		<circle class="st1" cx="527.6" cy="462" r="32.2"/>
		<path class="st5" d="M525.5,488.5c-13-1-23.4-11.4-24.4-24.4c-0.1-0.7,0.9-1.2,1.4-0.6l23.6,23.6
			C526.7,487.7,526.3,488.6,525.5,488.5z"/>
		
			<ellipse transform="matrix(0.7071 -0.7071 0.7071 0.7071 -156.4403 514.7291)" class="st6" cx="543.1" cy="446.2" rx="4.5" ry="6.8"/>
	</g>
	<g class="st4">
		<circle class="st1" cx="605.2" cy="462" r="32.2"/>
		<path class="st5" d="M603.1,488.5c-13-1-23.4-11.4-24.4-24.4c-0.1-0.7,0.9-1.2,1.4-0.6l23.6,23.6
			C604.2,487.7,603.8,488.6,603.1,488.5z"/>
		
			<ellipse transform="matrix(0.7071 -0.7071 0.7071 0.7071 -133.6981 569.5862)" class="st6" cx="620.7" cy="446.2" rx="4.5" ry="6.8"/>
	</g>
	<g class="st4">
		<circle class="st1" cx="683.2" cy="462" r="32.2"/>
		<path class="st5" d="M681.1,488.5c-13-1-23.4-11.4-24.4-24.4c-0.1-0.7,0.9-1.2,1.4-0.6l23.6,23.6
			C682.3,487.7,681.9,488.6,681.1,488.5z"/>
		
			<ellipse transform="matrix(0.7071 -0.7071 0.7071 0.7071 -110.8648 624.7522)" class="st6" cx="698.7" cy="446.2" rx="4.5" ry="6.8"/>
	</g>
	<g class="st7">
		<circle class="st8" cx="761.1" cy="462" r="32.2"/>
		<path class="st9" d="M759,488.5c-13-1-23.4-11.4-24.4-24.4c-0.1-0.7,0.9-1.2,1.4-0.6l23.6,23.6C760.2,487.7,759.8,488.6,759,488.5
			z"/>
		
			<ellipse transform="matrix(0.7071 -0.7071 0.7071 0.7071 -88.0522 679.8388)" class="st10" cx="776.6" cy="446.2" rx="4.5" ry="6.8"/>
	</g>
	<g class="st7">
		<circle class="st8" cx="138.9" cy="462" r="32.2"/>
		<path class="st9" d="M136.8,488.5c-13-1-23.4-11.4-24.4-24.4c-0.1-0.7,0.9-1.2,1.4-0.6l23.6,23.6
			C137.9,487.7,137.5,488.6,136.8,488.5z"/>
		
			<ellipse transform="matrix(0.7071 -0.7071 0.7071 0.7071 -270.2734 239.866)" class="st10" cx="154.4" cy="446.2" rx="4.5" ry="6.8"/>
	</g>
</g>
<g>
	<g class="st11">
		<circle class="st1" cx="371.9" cy="324.4" r="32.2"/>
		<path class="st5" d="M369.8,350.9c-13-1-23.4-11.4-24.4-24.4c-0.1-0.7,0.9-1.2,1.4-0.6l23.6,23.6C371,350,370.6,350.9,369.8,350.9
			z"/>
		
			<ellipse transform="matrix(0.7071 -0.7071 0.7071 0.7071 -104.7124 364.2909)" class="st6" cx="387.4" cy="308.5" rx="4.5" ry="6.8"/>
	</g>
	<g class="st11">
		<circle class="st1" cx="294.2" cy="324.4" r="32.2"/>
		<path class="st5" d="M292.1,350.9c-13-1-23.4-11.4-24.4-24.4c-0.1-0.7,0.9-1.2,1.4-0.6l23.6,23.6
			C293.2,350,292.8,350.9,292.1,350.9z"/>
		
			<ellipse transform="matrix(0.7071 -0.7071 0.7071 0.7071 -127.437 309.3163)" class="st6" cx="309.7" cy="308.5" rx="4.5" ry="6.8"/>
	</g>
	<g class="st11">
		<circle class="st1" cx="449.9" cy="324.4" r="32.2"/>
		<path class="st5" d="M447.8,350.9c-13-1-23.4-11.4-24.4-24.4c-0.1-0.7,0.9-1.2,1.4-0.6l23.6,23.6
			C448.9,350,448.5,350.9,447.8,350.9z"/>
		
			<ellipse transform="matrix(0.7071 -0.7071 0.7071 0.7071 -81.829 419.4069)" class="st6" cx="465.4" cy="308.5" rx="4.5" ry="6.8"/>
	</g>
	<g class="st11">
		<circle class="st1" cx="527.6" cy="324.4" r="32.2"/>
		<path class="st5" d="M525.5,350.9c-13-1-23.4-11.4-24.4-24.4c-0.1-0.7,0.9-1.2,1.4-0.6l23.6,23.6
			C526.7,350,526.3,350.9,525.5,350.9z"/>
		
			<ellipse transform="matrix(0.7071 -0.7071 0.7071 0.7071 -59.0968 474.3739)" class="st6" cx="543.1" cy="308.5" rx="4.5" ry="6.8"/>
	</g>
	<g class="st11">
		<circle class="st1" cx="605.2" cy="324.4" r="32.2"/>
		<path class="st5" d="M603.1,350.9c-13-1-23.4-11.4-24.4-24.4c-0.1-0.7,0.9-1.2,1.4-0.6l23.6,23.6
			C604.2,350,603.8,350.9,603.1,350.9z"/>
		
			<ellipse transform="matrix(0.7071 -0.7071 0.7071 0.7071 -36.3546 529.2309)" class="st6" cx="620.7" cy="308.5" rx="4.5" ry="6.8"/>
	</g>
	<g class="st11">
		<circle class="st8" cx="761.1" cy="324.4" r="32.2"/>
		<path class="st9" d="M759,350.9c-13-1-23.4-11.4-24.4-24.4c-0.1-0.7,0.9-1.2,1.4-0.6l23.6,23.6C760.2,350,759.8,350.9,759,350.9z"
			/>
		
			<ellipse transform="matrix(0.7071 -0.7071 0.7071 0.7071 9.2912 639.4835)" class="st10" cx="776.6" cy="308.5" rx="4.5" ry="6.8"/>
	</g>
	<g class="st11">
		<circle class="st8" cx="683.3" cy="324.4" r="32.2"/>
		<path class="st9" d="M681.2,350.9c-13-1-23.4-11.4-24.4-24.4c-0.1-0.7,0.9-1.2,1.4-0.6l23.6,23.6
			C682.3,350,681.9,350.9,681.2,350.9z"/>
		
			<ellipse transform="matrix(0.7071 -0.7071 0.7071 0.7071 -13.4851 584.4605)" class="st10" cx="698.8" cy="308.5" rx="4.5" ry="6.8"/>
	</g>
	<g class="st11">
		<circle class="st8" cx="138.7" cy="324.4" r="32.2"/>
		<path class="st9" d="M136.6,350.9c-13-1-23.4-11.4-24.4-24.4c-0.1-0.7,0.9-1.2,1.4-0.6l23.6,23.6
			C137.8,350,137.4,350.9,136.6,350.9z"/>
		
			<ellipse transform="matrix(0.7071 -0.7071 0.7071 0.7071 -173.0103 199.3912)" class="st10" cx="154.2" cy="308.5" rx="4.5" ry="6.8"/>
	</g>
	<g class="st11">
		<circle class="st8" cx="216.5" cy="324.4" r="32.2"/>
		<path class="st9" d="M214.4,350.9c-13-1-23.4-11.4-24.4-24.4c-0.1-0.7,0.9-1.2,1.4-0.6l23.6,23.6
			C215.6,350,215.1,350.9,214.4,350.9z"/>
		
			<ellipse transform="matrix(0.7071 -0.7071 0.7071 0.7071 -150.2074 254.3875)" class="st10" cx="232" cy="308.5" rx="4.5" ry="6.8"/>
	</g>
</g>
<g>
	<g>
		<g>
			<circle class="st8" cx="216.5" cy="186.7" r="32.2"/>
			<path class="st9" d="M214.4,213.2c-13-1-23.4-11.4-24.4-24.4c-0.1-0.7,0.9-1.2,1.4-0.6l23.6,23.6
				C215.6,212.4,215.1,213.3,214.4,213.2z"/>
			
				<ellipse transform="matrix(0.7071 -0.7071 0.7071 0.7071 -52.8933 214.1029)" class="st10" cx="232" cy="170.9" rx="4.5" ry="6.8"/>
		</g>
		<circle cx="216.5" cy="186.7" r="14.3"/>
	</g>
	<g>
		<g>
			<circle class="st8" cx="294" cy="186.7" r="32.2"/>
			<path class="st9" d="M291.9,213.2c-13-1-23.4-11.4-24.4-24.4c-0.1-0.7,0.9-1.2,1.4-0.6l23.6,23.6
				C293.1,212.4,292.7,213.3,291.9,213.2z"/>
			
				<ellipse transform="matrix(0.7071 -0.7071 0.7071 0.7071 -30.2033 268.912)" class="st10" cx="309.5" cy="170.9" rx="4.5" ry="6.8"/>
		</g>
		<circle cx="294" cy="186.7" r="14.3"/>
	</g>
	<g>
		<g>
			<circle class="st8" cx="138.9" cy="186.7" r="32.2"/>
			<path class="st9" d="M136.8,213.2c-13-1-23.4-11.4-24.4-24.4c-0.1-0.7,0.9-1.2,1.4-0.6l23.6,23.6
				C137.9,212.4,137.5,213.3,136.8,213.2z"/>
			
				<ellipse transform="matrix(0.7071 -0.7071 0.7071 0.7071 -75.6159 159.2262)" class="st10" cx="154.4" cy="170.9" rx="4.5" ry="6.8"/>
		</g>
		<circle cx="138.9" cy="186.7" r="14.3"/>
	</g>
	<g>
		<g>
			<circle class="st1" cx="372.1" cy="186.7" r="32.2"/>
			<path class="st5" d="M370,213.2c-13-1-23.4-11.4-24.4-24.4c-0.1-0.7,0.9-1.2,1.4-0.6l23.6,23.6
				C371.2,212.4,370.7,213.3,370,213.2z"/>
			
				<ellipse transform="matrix(0.7071 -0.7071 0.7071 0.7071 -7.3179 324.126)" class="st6" cx="387.6" cy="170.9" rx="4.5" ry="6.8"/>
		</g>
		<circle cx="372.1" cy="186.7" r="14.3"/>
	</g>
	<g>
		<g>
			<circle class="st1" cx="449.9" cy="186.7" r="32.2"/>
			<path class="st5" d="M447.8,213.2c-13-1-23.4-11.4-24.4-24.4c-0.1-0.7,0.9-1.2,1.4-0.6l23.6,23.6
				C448.9,212.4,448.5,213.3,447.8,213.2z"/>
			
				<ellipse transform="matrix(0.7071 -0.7071 0.7071 0.7071 15.4698 379.1375)" class="st6" cx="465.4" cy="170.9" rx="4.5" ry="6.8"/>
		</g>
		<circle cx="449.9" cy="186.7" r="14.3"/>
	</g>
	<g>
		<g>
			<circle class="st1" cx="527.6" cy="186.7" r="32.2"/>
			<path class="st5" d="M525.5,213.2c-13-1-23.4-11.4-24.4-24.4c-0.1-0.7,0.9-1.2,1.4-0.6l23.6,23.6
				C526.7,212.4,526.3,213.3,525.5,213.2z"/>
			
				<ellipse transform="matrix(0.7071 -0.7071 0.7071 0.7071 38.2097 434.0969)" class="st6" cx="543.1" cy="170.9" rx="4.5" ry="6.8"/>
		</g>
		<circle cx="527.6" cy="186.7" r="14.3"/>
	</g>
	<g>
		<g>
			<circle class="st8" cx="683.3" cy="186.7" r="32.2"/>
			<path class="st9" d="M681.2,213.2c-13-1-23.4-11.4-24.4-24.4c-0.1-0.7,0.9-1.2,1.4-0.6l23.6,23.6
				C682.3,212.4,681.9,213.3,681.2,213.2z"/>
			
				<ellipse transform="matrix(0.7071 -0.7071 0.7071 0.7071 83.8291 544.176)" class="st10" cx="698.8" cy="170.9" rx="4.5" ry="6.8"/>
		</g>
		<circle cx="683.3" cy="186.7" r="14.3"/>
	</g>
	<g>
		<g>
			<circle class="st8" cx="605.2" cy="186.7" r="32.2"/>
			<path class="st9" d="M603.1,213.2c-13-1-23.4-11.4-24.4-24.4c-0.1-0.7,0.9-1.2,1.4-0.6l23.6,23.6
				C604.3,212.4,603.8,213.3,603.1,213.2z"/>
			
				<ellipse transform="matrix(0.7071 -0.7071 0.7071 0.7071 60.9519 488.954)" class="st10" cx="620.7" cy="170.9" rx="4.5" ry="6.8"/>
		</g>
		<circle cx="605.2" cy="186.7" r="14.3"/>
	</g>
	<g>
		<g>
			<circle class="st8" cx="761.1" cy="186.7" r="32.2"/>
			<path class="st9" d="M759,213.2c-13-1-23.4-11.4-24.4-24.4c-0.1-0.7,0.9-1.2,1.4-0.6l23.6,23.6
				C760.2,212.4,759.8,213.3,759,213.2z"/>
			
				<ellipse transform="matrix(0.7071 -0.7071 0.7071 0.7071 106.6054 599.199)" class="st10" cx="776.6" cy="170.9" rx="4.5" ry="6.8"/>
		</g>
		<circle cx="761.1" cy="186.7" r="14.3"/>
	</g>
	<line class="st12" x1="61.1" y1="186.7" x2="838.9" y2="186.7"/>
</g>
</svg>
