<?xml version="1.0" encoding="utf-8"?>
<!-- Generator: Adobe Illustrator 25.1.0, SVG Export Plug-In . SVG Version: 6.00 Build 0)  -->
<svg version="1.1" id="Layer_1" xmlns="http://www.w3.org/2000/svg" xmlns:xlink="http://www.w3.org/1999/xlink" x="0px" y="0px"
	 viewBox="0 0 935.6 353" style="enable-background:new 0 0 935.6 353;" xml:space="preserve">
<style type="text/css">
	.st0{opacity:0.2;fill:url(#SVGID_1_);enable-background:new    ;}
	.st1{opacity:0.2;fill:url(#SVGID_2_);enable-background:new    ;}
	.st2{opacity:0.2;fill:url(#SVGID_3_);enable-background:new    ;}
	.st3{fill:none;stroke:#FF00FF;stroke-width:6;stroke-miterlimit:10;}
	.st4{fill:none;stroke:#F7931E;stroke-width:6;stroke-miterlimit:10;}
	.st5{opacity:0.2;fill:url(#SVGID_4_);enable-background:new    ;}
	.st6{opacity:0.2;fill:url(#SVGID_5_);enable-background:new    ;}
	.st7{opacity:0.502;}
	.st8{fill:#888888;}
	.st9{fill:#666666;}
	.st10{fill:#999999;}
	.st11{opacity:0.5;}
	.st12{fill:#3131E8;}
	.st13{fill:#2C2CBF;}
	.st14{fill:#5555E5;}
	.st15{fill:#FF0000;}
	.st16{fill:#CE0000;}
	.st17{fill:#FF5C5C;}
	.st18{fill:#FF00FF;}
	.st19{fill:#E000E0;}
	.st20{fill:#EB65EB;}
	.st21{opacity:0.702;}
	.st22{opacity:0.7;}
	.st23{fill:#F7931E;}
	.st24{fill:#D67A1E;}
	.st25{fill:#F4AA62;}
	.st26{fill:none;stroke:#000000;stroke-width:4;stroke-linecap:round;stroke-miterlimit:10;}
</style>
<g>
	
		<linearGradient id="SVGID_1_" gradientUnits="userSpaceOnUse" x1="368.3769" y1="-364.427" x2="634.9769" y2="-364.427" gradientTransform="matrix(-1.836970e-16 1 1 1.836970e-16 577.677 -287.6769)">
		<stop  offset="0" style="stop-color:#F7931E"/>
		<stop  offset="0.3821" style="stop-color:#F79420"/>
		<stop  offset="0.5198" style="stop-color:#F79727"/>
		<stop  offset="0.618" style="stop-color:#F89D32"/>
		<stop  offset="0.6973" style="stop-color:#F8A543"/>
		<stop  offset="0.7653" style="stop-color:#F9B059"/>
		<stop  offset="0.8255" style="stop-color:#FABD75"/>
		<stop  offset="0.88" style="stop-color:#FBCC95"/>
		<stop  offset="0.93" style="stop-color:#FDDEBB"/>
		<stop  offset="0.9745" style="stop-color:#FEF2E4"/>
		<stop  offset="1" style="stop-color:#FFFFFF"/>
	</linearGradient>
	<polygon class="st0" points="86.1,80.7 340.4,80.7 340.4,347.3 86.1,347.3 	"/>
	
		<linearGradient id="SVGID_2_" gradientUnits="userSpaceOnUse" x1="369.1769" y1="143.523" x2="635.7769" y2="143.523" gradientTransform="matrix(-1.836970e-16 1 1 1.836970e-16 577.677 -287.6769)">
		<stop  offset="0" style="stop-color:#F7931E"/>
		<stop  offset="0.3821" style="stop-color:#F79420"/>
		<stop  offset="0.5198" style="stop-color:#F79727"/>
		<stop  offset="0.618" style="stop-color:#F89D32"/>
		<stop  offset="0.6973" style="stop-color:#F8A543"/>
		<stop  offset="0.7653" style="stop-color:#F9B059"/>
		<stop  offset="0.8255" style="stop-color:#FABD75"/>
		<stop  offset="0.88" style="stop-color:#FBCC95"/>
		<stop  offset="0.93" style="stop-color:#FDDEBB"/>
		<stop  offset="0.9745" style="stop-color:#FEF2E4"/>
		<stop  offset="1" style="stop-color:#FFFFFF"/>
	</linearGradient>
	<polygon class="st1" points="594.1,81.5 848.3,81.5 848.3,348.1 594.1,348.1 	"/>
	
		<linearGradient id="SVGID_3_" gradientUnits="userSpaceOnUse" x1="368.3769" y1="-109.977" x2="634.9769" y2="-109.977" gradientTransform="matrix(-1.836970e-16 1 1 1.836970e-16 577.677 -287.6769)">
		<stop  offset="0" style="stop-color:#FF00FF"/>
		<stop  offset="0.3726" style="stop-color:#FF02FF"/>
		<stop  offset="0.5069" style="stop-color:#FF09FF"/>
		<stop  offset="0.6026" style="stop-color:#FF14FF"/>
		<stop  offset="0.68" style="stop-color:#FF25FF"/>
		<stop  offset="0.7463" style="stop-color:#FF3BFF"/>
		<stop  offset="0.805" style="stop-color:#FF57FF"/>
		<stop  offset="0.8581" style="stop-color:#FF77FF"/>
		<stop  offset="0.9069" style="stop-color:#FF9DFF"/>
		<stop  offset="0.9523" style="stop-color:#FFC8FF"/>
		<stop  offset="0.9926" style="stop-color:#FFF6FF"/>
		<stop  offset="1" style="stop-color:#FFFFFF"/>
	</linearGradient>
	<polygon class="st2" points="340.4,80.7 595,80.7 595,347.3 340.4,347.3 	"/>
	<line class="st3" x1="595" y1="80.7" x2="595" y2="347.3"/>
	<line class="st3" x1="340.4" y1="347.3" x2="340.4" y2="80.7"/>
	<line class="st4" x1="849.5" y1="80.7" x2="849.5" y2="347.3"/>
	<line class="st4" x1="86.1" y1="347.3" x2="86.1" y2="80.7"/>
	
		<linearGradient id="SVGID_4_" gradientUnits="userSpaceOnUse" x1="368.3769" y1="-525.727" x2="634.9769" y2="-525.727" gradientTransform="matrix(-1.836970e-16 1 1 1.836970e-16 577.677 -287.6769)">
		<stop  offset="0" style="stop-color:#6C6CFF"/>
		<stop  offset="0.4163" style="stop-color:#6E6EFF"/>
		<stop  offset="0.5662" style="stop-color:#7575FF"/>
		<stop  offset="0.673" style="stop-color:#8080FF"/>
		<stop  offset="0.7595" style="stop-color:#9191FF"/>
		<stop  offset="0.8335" style="stop-color:#A7A7FF"/>
		<stop  offset="0.8991" style="stop-color:#C3C3FF"/>
		<stop  offset="0.9569" style="stop-color:#E2E2FF"/>
		<stop  offset="1" style="stop-color:#FFFFFF"/>
	</linearGradient>
	<polygon class="st5" points="17.8,80.7 86.1,80.7 86.1,347.3 17.8,347.3 	"/>
	
		<linearGradient id="SVGID_5_" gradientUnits="userSpaceOnUse" x1="369.1769" y1="305.973" x2="635.7769" y2="305.973" gradientTransform="matrix(-1.836970e-16 1 1 1.836970e-16 577.677 -287.6769)">
		<stop  offset="0" style="stop-color:#FF0000"/>
		<stop  offset="0.3726" style="stop-color:#FF0202"/>
		<stop  offset="0.5069" style="stop-color:#FF0909"/>
		<stop  offset="0.6026" style="stop-color:#FF1414"/>
		<stop  offset="0.68" style="stop-color:#FF2525"/>
		<stop  offset="0.7463" style="stop-color:#FF3B3B"/>
		<stop  offset="0.805" style="stop-color:#FF5757"/>
		<stop  offset="0.8581" style="stop-color:#FF7777"/>
		<stop  offset="0.9069" style="stop-color:#FF9D9D"/>
		<stop  offset="0.9523" style="stop-color:#FFC8C8"/>
		<stop  offset="0.9926" style="stop-color:#FFF6F6"/>
		<stop  offset="1" style="stop-color:#FFFFFF"/>
	</linearGradient>
	<polygon class="st6" points="849.5,81.5 917.8,81.5 917.8,348.1 849.5,348.1 	"/>
</g>
<g>
	<g class="st7">
		<circle class="st8" cx="213.2" cy="304.1" r="21.1"/>
		<path class="st9" d="M211.9,321.4c-8.5-0.7-15.3-7.5-16-16c0-0.5,0.6-0.8,0.9-0.4l15.5,15.5C212.6,320.9,212.3,321.5,211.9,321.4z
			"/>
		
			<ellipse transform="matrix(0.7071 -0.7071 0.7071 0.7071 -142.2398 243.9725)" class="st10" cx="223.4" cy="293.7" rx="3" ry="4.5"/>
	</g>
	<g class="st7">
		<circle class="st8" cx="722.2" cy="304.1" r="21.1"/>
		<path class="st9" d="M720.9,321.4c-8.5-0.7-15.3-7.5-16-16c0-0.5,0.6-0.8,0.9-0.4l15.5,15.5C721.6,320.9,721.4,321.5,720.9,321.4z
			"/>
		<ellipse transform="matrix(0.7071 -0.7071 0.7071 0.7071 6.8317 603.896)" class="st10" cx="732.4" cy="293.7" rx="3" ry="4.5"/>
	</g>
	<g class="st11">
		<circle class="st12" cx="60.7" cy="304.1" r="21.1"/>
		<path class="st13" d="M59.3,321.4c-8.5-0.7-15.3-7.5-16-16c0-0.5,0.6-0.8,0.9-0.4l15.5,15.5C60.1,320.9,59.8,321.5,59.3,321.4z"/>
		
			<ellipse transform="matrix(0.7071 -0.7071 0.7071 0.7071 -186.9525 136.0865)" class="st14" cx="70.8" cy="293.7" rx="3" ry="4.5"/>
	</g>
	<g class="st11">
		<circle class="st12" cx="111.6" cy="304.1" r="21.1"/>
		<path class="st13" d="M110.2,321.4c-8.5-0.7-15.3-7.5-16-16c0-0.5,0.6-0.8,0.9-0.4l15.5,15.5C111,320.9,110.7,321.5,110.2,321.4z"
			/>
		
			<ellipse transform="matrix(0.7071 -0.7071 0.7071 0.7071 -172.0413 172.0749)" class="st14" cx="121.7" cy="293.7" rx="3" ry="4.5"/>
	</g>
	<g class="st11">
		<circle class="st12" cx="162.5" cy="304.1" r="21.1"/>
		<path class="st13" d="M161.1,321.4c-8.5-0.7-15.3-7.5-16-16c0-0.5,0.6-0.8,0.9-0.4l15.5,15.5C161.8,320.9,161.6,321.5,161.1,321.4
			z"/>
		
			<ellipse transform="matrix(0.7071 -0.7071 0.7071 0.7071 -157.1301 208.0633)" class="st14" cx="172.6" cy="293.7" rx="3" ry="4.5"/>
	</g>
	<g class="st11">
		<circle class="st15" cx="874.9" cy="304.1" r="21.1"/>
		<path class="st16" d="M873.6,321.4c-8.5-0.7-15.3-7.5-16-16c0-0.5,0.6-0.8,0.9-0.4l15.5,15.5C874.3,320.9,874,321.5,873.6,321.4z"
			/>
		
			<ellipse transform="matrix(0.7071 -0.7071 0.7071 0.7071 51.5652 711.8611)" class="st17" cx="885.1" cy="293.7" rx="3" ry="4.5"/>
	</g>
	<g class="st11">
		<circle class="st15" cx="824.4" cy="304.1" r="21.1"/>
		<path class="st16" d="M823.1,321.4c-8.5-0.7-15.3-7.5-16-16c0-0.5,0.6-0.8,0.9-0.4l15.5,15.5C823.8,320.9,823.6,321.5,823.1,321.4
			z"/>
		<ellipse transform="matrix(0.7071 -0.7071 0.7071 0.7071 36.765 676.1617)" class="st17" cx="834.6" cy="293.7" rx="3" ry="4.5"/>
	</g>
	<g class="st11">
		<circle class="st15" cx="773.1" cy="304.1" r="21.1"/>
		<path class="st16" d="M771.8,321.4c-8.5-0.7-15.3-7.5-16-16c0-0.5,0.6-0.8,0.9-0.4l15.5,15.5C772.5,320.9,772.3,321.5,771.8,321.4
			z"/>
		
			<ellipse transform="matrix(0.7071 -0.7071 0.7071 0.7071 21.7429 639.8843)" class="st17" cx="783.3" cy="293.7" rx="3" ry="4.5"/>
	</g>
	<g class="st11">
		<circle class="st18" cx="365.5" cy="304.1" r="21.1"/>
		<path class="st19" d="M364.2,321.4c-8.5-0.7-15.3-7.5-16-16c0-0.5,0.6-0.8,0.9-0.4l15.5,15.5C364.9,320.9,364.6,321.5,364.2,321.4
			z"/>
		
			<ellipse transform="matrix(0.7071 -0.7071 0.7071 0.7071 -97.6308 351.6621)" class="st20" cx="375.7" cy="293.7" rx="3" ry="4.5"/>
	</g>
	<g class="st11">
		<circle class="st18" cx="314.9" cy="304.1" r="21.1"/>
		<path class="st19" d="M313.5,321.4c-8.5-0.7-15.3-7.5-16-16c0-0.5,0.6-0.8,0.9-0.4l15.5,15.5C314.3,320.9,314,321.5,313.5,321.4z"
			/>
		
			<ellipse transform="matrix(0.7071 -0.7071 0.7071 0.7071 -112.4483 315.8799)" class="st20" cx="325.1" cy="293.7" rx="3" ry="4.5"/>
	</g>
	<g class="st11">
		
			<ellipse transform="matrix(0.1602 -0.9871 0.9871 0.1602 -78.3774 516.0784)" class="st18" cx="264.1" cy="304.1" rx="21.1" ry="21.1"/>
		<path class="st19" d="M262.7,321.4c-8.5-0.7-15.3-7.5-16-16c0-0.5,0.6-0.8,0.9-0.4l15.5,15.5C263.5,320.9,263.2,321.5,262.7,321.4
			z"/>
		
			<ellipse transform="matrix(0.7071 -0.7071 0.7071 0.7071 -127.3286 279.9608)" class="st20" cx="274.3" cy="293.7" rx="3" ry="4.5"/>
	</g>
	<g class="st11">
		<circle class="st18" cx="416.8" cy="304.1" r="21.1"/>
		<path class="st19" d="M415.4,321.4c-8.5-0.7-15.3-7.5-16-16c0-0.5,0.6-0.8,0.9-0.4l15.5,15.5C416.1,320.9,415.9,321.5,415.4,321.4
			z"/>
		
			<ellipse transform="matrix(0.7071 -0.7071 0.7071 0.7071 -82.6459 387.8766)" class="st20" cx="426.9" cy="293.7" rx="3" ry="4.5"/>
	</g>
	<g class="st11">
		<circle class="st18" cx="467.8" cy="304.1" r="21.1"/>
		<path class="st19" d="M466.4,321.4c-8.5-0.7-15.3-7.5-16-16c0-0.5,0.6-0.8,0.9-0.4l15.5,15.5C467.2,320.9,466.9,321.5,466.4,321.4
			z"/>
		
			<ellipse transform="matrix(0.7071 -0.7071 0.7071 0.7071 -67.7289 423.9592)" class="st20" cx="477.9" cy="293.7" rx="3" ry="4.5"/>
	</g>
	<g class="st11">
		
			<ellipse transform="matrix(0.1602 -0.9871 0.9871 0.1602 135.2722 767.1934)" class="st18" cx="518.5" cy="304.1" rx="21.1" ry="21.1"/>
		<path class="st19" d="M517.2,321.4c-8.5-0.7-15.3-7.5-16-16c0-0.5,0.6-0.8,0.9-0.4l15.5,15.5C517.9,320.9,517.7,321.5,517.2,321.4
			z"/>
		
			<ellipse transform="matrix(0.7071 -0.7071 0.7071 0.7071 -52.8281 459.8601)" class="st20" cx="528.7" cy="293.7" rx="3" ry="4.5"/>
	</g>
	<g class="st11">
		<circle class="st18" cx="569.3" cy="304.1" r="21.1"/>
		<path class="st19" d="M567.9,321.4c-8.5-0.7-15.3-7.5-16-16c0-0.5,0.6-0.8,0.9-0.4l15.5,15.5C568.7,320.9,568.4,321.5,567.9,321.4
			z"/>
		
			<ellipse transform="matrix(0.7071 -0.7071 0.7071 0.7071 -37.9354 495.7646)" class="st20" cx="579.5" cy="293.7" rx="3" ry="4.5"/>
	</g>
	<g class="st11">
		<circle class="st18" cx="620.2" cy="304.1" r="21.1"/>
		<path class="st19" d="M618.8,321.4c-8.5-0.7-15.3-7.5-16-16c0-0.5,0.6-0.8,0.9-0.4l15.5,15.5C619.6,320.9,619.3,321.5,618.8,321.4
			z"/>
		
			<ellipse transform="matrix(0.7071 -0.7071 0.7071 0.7071 -23.0918 531.7206)" class="st20" cx="630.3" cy="293.7" rx="3" ry="4.5"/>
	</g>
	<g class="st11">
		<circle class="st18" cx="671.4" cy="304.1" r="21.1"/>
		<path class="st19" d="M670,321.4c-8.5-0.7-15.3-7.5-16-16c0-0.5,0.6-0.8,0.9-0.4l15.5,15.5C670.7,320.9,670.5,321.5,670,321.4z"/>
		
			<ellipse transform="matrix(0.7071 -0.7071 0.7071 0.7071 -8.0794 567.9077)" class="st20" cx="681.5" cy="293.7" rx="3" ry="4.5"/>
	</g>
</g>
<g>
	<g class="st21">
		<circle class="st8" cx="722.2" cy="214" r="21.1"/>
		<path class="st9" d="M720.9,231.3c-8.5-0.7-15.3-7.5-16-16c0-0.5,0.6-0.8,0.9-0.4l15.5,15.5C721.6,230.8,721.4,231.4,720.9,231.3z
			"/>
		
			<ellipse transform="matrix(0.7071 -0.7071 0.7071 0.7071 70.5344 577.4995)" class="st10" cx="732.4" cy="203.6" rx="3" ry="4.5"/>
	</g>
	<g class="st21">
		<circle class="st8" cx="213.2" cy="214" r="21.1"/>
		<path class="st9" d="M211.9,231.3c-8.5-0.7-15.3-7.5-16-16c0-0.5,0.6-0.8,0.9-0.4l15.5,15.5C212.6,230.8,212.3,231.4,211.9,231.3z
			"/>
		
			<ellipse transform="matrix(0.7071 -0.7071 0.7071 0.7071 -78.5372 217.5759)" class="st10" cx="223.4" cy="203.6" rx="3" ry="4.5"/>
	</g>
	<g class="st21">
		<circle class="st8" cx="671.4" cy="214" r="21.1"/>
		<path class="st9" d="M670,231.3c-8.5-0.7-15.3-7.5-16-16c0-0.5,0.6-0.8,0.9-0.4l15.5,15.5C670.7,230.8,670.5,231.4,670,231.3z"/>
		
			<ellipse transform="matrix(0.7071 -0.7071 0.7071 0.7071 55.6231 541.5111)" class="st10" cx="681.5" cy="203.6" rx="3" ry="4.5"/>
	</g>
	<g class="st21">
		<ellipse transform="matrix(0.1602 -0.9871 0.9871 0.1602 10.4752 440.3121)" class="st8" cx="264" cy="214" rx="21.1" ry="21.1"/>
		<path class="st9" d="M262.7,231.3c-8.5-0.7-15.3-7.5-16-16c0-0.5,0.6-0.8,0.9-0.4l15.5,15.5C263.4,230.8,263.1,231.4,262.7,231.3z
			"/>
		
			<ellipse transform="matrix(0.7071 -0.7071 0.7071 0.7071 -63.6568 253.495)" class="st10" cx="274.2" cy="203.6" rx="3" ry="4.5"/>
	</g>
	<g class="st21">
		<circle class="st8" cx="162.5" cy="214" r="21.1"/>
		<path class="st9" d="M161.1,231.3c-8.5-0.7-15.3-7.5-16-16c0-0.5,0.6-0.8,0.9-0.4l15.5,15.5C161.8,230.8,161.6,231.4,161.1,231.3z
			"/>
		
			<ellipse transform="matrix(0.7071 -0.7071 0.7071 0.7071 -93.4275 181.6668)" class="st10" cx="172.6" cy="203.6" rx="3" ry="4.5"/>
	</g>
	<g class="st21">
		<circle class="st8" cx="773.1" cy="214" r="21.1"/>
		<path class="st9" d="M771.8,231.3c-8.5-0.7-15.3-7.5-16-16c0-0.5,0.6-0.8,0.9-0.4l15.5,15.5C772.5,230.8,772.3,231.4,771.8,231.3z
			"/>
		
			<ellipse transform="matrix(0.7071 -0.7071 0.7071 0.7071 85.4455 613.4879)" class="st10" cx="783.3" cy="203.6" rx="3" ry="4.5"/>
	</g>
	<g class="st22">
		<circle class="st12" cx="60.7" cy="213.8" r="21.1"/>
		<path class="st13" d="M59.3,231.1c-8.5-0.7-15.3-7.5-16-16c0-0.5,0.6-0.8,0.9-0.4l15.5,15.5C60.1,230.5,59.8,231.1,59.3,231.1z"/>
		
			<ellipse transform="matrix(0.7071 -0.7071 0.7071 0.7071 -123.0978 109.6421)" class="st14" cx="70.8" cy="203.4" rx="3" ry="4.5"/>
	</g>
	<g class="st22">
		<circle class="st12" cx="111.6" cy="213.8" r="21.1"/>
		<path class="st13" d="M110.2,231.1c-8.5-0.7-15.3-7.5-16-16c0-0.5,0.6-0.8,0.9-0.4l15.5,15.5C111,230.5,110.7,231.1,110.2,231.1z"
			/>
		
			<ellipse transform="matrix(0.7071 -0.7071 0.7071 0.7071 -108.1866 145.6305)" class="st14" cx="121.7" cy="203.4" rx="3" ry="4.5"/>
	</g>
	<g class="st22">
		<circle class="st15" cx="824.4" cy="214" r="21.1"/>
		<path class="st16" d="M823.1,231.3c-8.5-0.7-15.3-7.5-16-16c0-0.5,0.6-0.8,0.9-0.4l15.5,15.5C823.8,230.8,823.6,231.4,823.1,231.3
			z"/>
		
			<ellipse transform="matrix(0.7071 -0.7071 0.7071 0.7071 100.4676 649.7651)" class="st17" cx="834.6" cy="203.6" rx="3" ry="4.5"/>
	</g>
	<g class="st22">
		<circle class="st15" cx="874.9" cy="214" r="21.1"/>
		<path class="st16" d="M873.6,231.3c-8.5-0.7-15.3-7.5-16-16c0-0.5,0.6-0.8,0.9-0.4l15.5,15.5C874.3,230.8,874,231.4,873.6,231.3z"
			/>
		
			<ellipse transform="matrix(0.7071 -0.7071 0.7071 0.7071 115.2678 685.4645)" class="st17" cx="885.1" cy="203.6" rx="3" ry="4.5"/>
	</g>
	<g class="st22">
		<circle class="st18" cx="365.8" cy="214" r="21.1"/>
		<path class="st19" d="M364.4,231.3c-8.5-0.7-15.3-7.5-16-16c0-0.5,0.6-0.8,0.9-0.4l15.5,15.5C365.1,230.8,364.9,231.4,364.4,231.3
			z"/>
		
			<ellipse transform="matrix(0.7071 -0.7071 0.7071 0.7071 -33.8803 325.4174)" class="st20" cx="375.9" cy="203.6" rx="3" ry="4.5"/>
	</g>
	<g class="st22">
		<circle class="st18" cx="314.9" cy="214" r="21.1"/>
		<path class="st19" d="M313.5,231.3c-8.5-0.7-15.3-7.5-16-16c0-0.5,0.6-0.8,0.9-0.4l15.5,15.5C314.3,230.8,314,231.4,313.5,231.3z"
			/>
		
			<ellipse transform="matrix(0.7071 -0.7071 0.7071 0.7071 -48.7457 289.4834)" class="st20" cx="325.1" cy="203.6" rx="3" ry="4.5"/>
	</g>
	<g class="st22">
		<circle class="st18" cx="416.5" cy="214" r="21.1"/>
		<path class="st19" d="M415.2,231.3c-8.5-0.7-15.3-7.5-16-16c0-0.5,0.6-0.8,0.9-0.4l15.5,15.5C415.9,230.8,415.6,231.4,415.2,231.3
			z"/>
		
			<ellipse transform="matrix(0.7071 -0.7071 0.7071 0.7071 -18.9914 361.3281)" class="st20" cx="426.7" cy="203.6" rx="3" ry="4.5"/>
	</g>
	<g class="st22">
		<circle class="st18" cx="467.6" cy="214" r="21.1"/>
		<path class="st19" d="M466.2,231.3c-8.5-0.7-15.3-7.5-16-16c0-0.5,0.6-0.8,0.9-0.4l15.5,15.5C467,230.8,466.7,231.4,466.2,231.3z"
			/>
		
			<ellipse transform="matrix(0.7071 -0.7071 0.7071 0.7071 -4.0744 397.4106)" class="st20" cx="477.7" cy="203.6" rx="3" ry="4.5"/>
	</g>
	<g class="st22">
		
			<ellipse transform="matrix(0.1602 -0.9871 0.9871 0.1602 224.2088 691.5258)" class="st18" cx="518.5" cy="214" rx="21.1" ry="21.1"/>
		<path class="st19" d="M517.2,231.3c-8.5-0.7-15.3-7.5-16-16c0-0.5,0.6-0.8,0.9-0.4l15.5,15.5C517.9,230.8,517.7,231.4,517.2,231.3
			z"/>
		
			<ellipse transform="matrix(0.7071 -0.7071 0.7071 0.7071 10.8746 433.4634)" class="st20" cx="528.7" cy="203.6" rx="3" ry="4.5"/>
	</g>
	<g class="st22">
		<circle class="st18" cx="569.3" cy="214" r="21.1"/>
		<path class="st19" d="M567.9,231.3c-8.5-0.7-15.3-7.5-16-16c0-0.5,0.6-0.8,0.9-0.4l15.5,15.5C568.7,230.8,568.4,231.4,567.9,231.3
			z"/>
		<ellipse transform="matrix(0.7071 -0.7071 0.7071 0.7071 25.7672 469.368)" class="st20" cx="579.5" cy="203.6" rx="3" ry="4.5"/>
	</g>
	<g class="st22">
		<circle class="st18" cx="620.4" cy="214" r="21.1"/>
		<path class="st19" d="M619,231.3c-8.5-0.7-15.3-7.5-16-16c0-0.5,0.6-0.8,0.9-0.4l15.5,15.5C619.8,230.8,619.5,231.4,619,231.3z"/>
		
			<ellipse transform="matrix(0.7071 -0.7071 0.7071 0.7071 40.7295 505.5052)" class="st20" cx="630.6" cy="203.6" rx="3" ry="4.5"/>
	</g>
</g>
<g>
	<g>
		<g>
			<circle class="st23" cx="314.9" cy="123.9" r="21.1"/>
			<path class="st24" d="M313.5,141.3c-8.5-0.7-15.3-7.5-16-16c0-0.5,0.6-0.8,0.9-0.4l15.5,15.5C314.3,140.7,314,141.3,313.5,141.3z
				"/>
			
				<ellipse transform="matrix(0.7071 -0.7071 0.7071 0.7071 14.9569 263.0868)" class="st25" cx="325.1" cy="113.5" rx="3" ry="4.5"/>
		</g>
		<circle cx="314.9" cy="123.9" r="9.3"/>
	</g>
	<g>
		<g>
			<circle class="st23" cx="620.4" cy="123.9" r="21.1"/>
			<path class="st24" d="M619,141.3c-8.5-0.7-15.3-7.5-16-16c0-0.5,0.6-0.8,0.9-0.4l15.5,15.5C619.8,140.7,619.5,141.3,619,141.3z"
				/>
			
				<ellipse transform="matrix(0.7071 -0.7071 0.7071 0.7071 104.4321 479.1088)" class="st25" cx="630.6" cy="113.5" rx="3" ry="4.5"/>
		</g>
		<circle cx="620.4" cy="123.9" r="9.3"/>
	</g>
	<g>
		<g>
			<circle class="st23" cx="824" cy="123.9" r="21.1"/>
			<path class="st24" d="M822.7,141.3c-8.5-0.7-15.3-7.5-16-16c0-0.5,0.6-0.8,0.9-0.4l15.5,15.5
				C823.4,140.7,823.1,141.3,822.7,141.3z"/>
			
				<ellipse transform="matrix(0.7071 -0.7071 0.7071 0.7071 164.0592 623.0797)" class="st25" cx="834.2" cy="113.5" rx="3" ry="4.5"/>
		</g>
		<circle cx="824" cy="123.9" r="9.3"/>
	</g>
	<g>
		<g>
			<circle class="st23" cx="772.9" cy="123.9" r="21.1"/>
			<path class="st24" d="M771.5,141.3c-8.5-0.7-15.3-7.5-16-16c0-0.5,0.6-0.8,0.9-0.4l15.5,15.5C772.3,140.7,772,141.3,771.5,141.3z
				"/>
			
				<ellipse transform="matrix(0.7071 -0.7071 0.7071 0.7071 149.1001 586.9393)" class="st25" cx="783" cy="113.5" rx="3" ry="4.5"/>
		</g>
		<circle cx="772.9" cy="123.9" r="9.3"/>
	</g>
	<g>
		<g>
			<circle class="st23" cx="722.2" cy="123.9" r="21.1"/>
			<path class="st24" d="M720.9,141.3c-8.5-0.7-15.3-7.5-16-16c0-0.5,0.6-0.8,0.9-0.4l15.5,15.5
				C721.6,140.7,721.4,141.3,720.9,141.3z"/>
			
				<ellipse transform="matrix(0.7071 -0.7071 0.7071 0.7071 134.2369 551.103)" class="st25" cx="732.4" cy="113.5" rx="3" ry="4.5"/>
		</g>
		<circle cx="722.2" cy="123.9" r="9.3"/>
	</g>
	<g>
		<g>
			<circle class="st23" cx="671.4" cy="123.9" r="21.1"/>
			<path class="st24" d="M670,141.3c-8.5-0.7-15.3-7.5-16-16c0-0.5,0.6-0.8,0.9-0.4l15.5,15.5C670.7,140.7,670.5,141.3,670,141.3z"
				/>
			
				<ellipse transform="matrix(0.7071 -0.7071 0.7071 0.7071 119.3257 515.1146)" class="st25" cx="681.5" cy="113.5" rx="3" ry="4.5"/>
		</g>
		<circle cx="671.4" cy="123.9" r="9.3"/>
	</g>
	<g>
		<g>
			
				<ellipse transform="matrix(0.1602 -0.9871 0.9871 0.1602 99.4957 364.7432)" class="st23" cx="264.1" cy="123.9" rx="21.1" ry="21.1"/>
			<path class="st24" d="M262.7,141.3c-8.5-0.7-15.3-7.5-16-16c0-0.5,0.6-0.8,0.9-0.4l15.5,15.5
				C263.5,140.7,263.2,141.3,262.7,141.3z"/>
			
				<ellipse transform="matrix(0.7071 -0.7071 0.7071 0.7071 7.652378e-02 227.1677)" class="st25" cx="274.3" cy="113.5" rx="3" ry="4.5"/>
		</g>
		<circle cx="264.1" cy="123.9" r="9.3"/>
	</g>
	<g>
		<g>
			<circle class="st12" cx="60.7" cy="123.9" r="21.1"/>
			<path class="st13" d="M59.3,141.3c-8.5-0.7-15.3-7.5-16-16c0-0.5,0.6-0.8,0.9-0.4l15.5,15.5C60.1,140.7,59.8,141.3,59.3,141.3z"
				/>
			
				<ellipse transform="matrix(0.7071 -0.7071 0.7071 0.7071 -59.5472 83.2935)" class="st14" cx="70.8" cy="113.5" rx="3" ry="4.5"/>
		</g>
		<circle cx="60.7" cy="123.9" r="9.3"/>
	</g>
	<g>
		<g>
			<circle class="st23" cx="213.4" cy="123.9" r="21.1"/>
			<path class="st24" d="M212,141.3c-8.5-0.7-15.3-7.5-16-16c0-0.5,0.6-0.8,0.9-0.4l15.5,15.5C212.7,140.7,212.5,141.3,212,141.3z"
				/>
			
				<ellipse transform="matrix(0.7071 -0.7071 0.7071 0.7071 -14.8138 191.2586)" class="st25" cx="223.5" cy="113.5" rx="3" ry="4.5"/>
		</g>
		<circle cx="213.4" cy="123.9" r="9.3"/>
	</g>
	<g>
		<g>
			<circle class="st23" cx="162.5" cy="123.9" r="21.1"/>
			<path class="st24" d="M161.1,141.3c-8.5-0.7-15.3-7.5-16-16c0-0.5,0.6-0.8,0.9-0.4l15.5,15.5
				C161.8,140.7,161.6,141.3,161.1,141.3z"/>
			
				<ellipse transform="matrix(0.7071 -0.7071 0.7071 0.7071 -29.7249 155.2702)" class="st25" cx="172.6" cy="113.5" rx="3" ry="4.5"/>
		</g>
		<circle cx="162.5" cy="123.9" r="9.3"/>
	</g>
	<g>
		<g>
			<circle class="st23" cx="111.6" cy="123.9" r="21.1"/>
			<path class="st24" d="M110.2,141.3c-8.5-0.7-15.3-7.5-16-16c0-0.5,0.6-0.8,0.9-0.4l15.5,15.5C111,140.7,110.7,141.3,110.2,141.3z
				"/>
			
				<ellipse transform="matrix(0.7071 -0.7071 0.7071 0.7071 -44.6361 119.2818)" class="st25" cx="121.7" cy="113.5" rx="3" ry="4.5"/>
		</g>
		<circle cx="111.6" cy="123.9" r="9.3"/>
	</g>
	<g>
		<g>
			<circle class="st18" cx="365.7" cy="123.9" r="21.1"/>
			<path class="st19" d="M364.3,141.3c-8.5-0.7-15.3-7.5-16-16c0-0.5,0.6-0.8,0.9-0.4l15.5,15.5C365,140.7,364.8,141.3,364.3,141.3z
				"/>
			
				<ellipse transform="matrix(0.7071 -0.7071 0.7071 0.7071 29.7916 298.9517)" class="st20" cx="375.8" cy="113.5" rx="3" ry="4.5"/>
		</g>
		<circle cx="365.7" cy="123.9" r="9.3"/>
	</g>
	<g>
		<g>
			<circle class="st15" cx="874.9" cy="123.9" r="21.1"/>
			<path class="st16" d="M873.6,141.3c-8.5-0.7-15.3-7.5-16-16c0-0.5,0.6-0.8,0.9-0.4l15.5,15.5C874.3,140.7,874,141.3,873.6,141.3z
				"/>
			
				<ellipse transform="matrix(0.7071 -0.7071 0.7071 0.7071 178.9704 659.0681)" class="st17" cx="885.1" cy="113.5" rx="3" ry="4.5"/>
		</g>
		<circle cx="874.9" cy="123.9" r="9.3"/>
	</g>
	<g>
		<g>
			<circle class="st18" cx="416.8" cy="123.9" r="21.1"/>
			<path class="st19" d="M415.4,141.3c-8.5-0.7-15.3-7.5-16-16c0-0.5,0.6-0.8,0.9-0.4l15.5,15.5
				C416.1,140.7,415.9,141.3,415.4,141.3z"/>
			
				<ellipse transform="matrix(0.7071 -0.7071 0.7071 0.7071 44.7593 335.0835)" class="st20" cx="426.9" cy="113.5" rx="3" ry="4.5"/>
		</g>
		<circle cx="416.8" cy="123.9" r="9.3"/>
	</g>
	<g>
		<g>
			<circle class="st18" cx="467.7" cy="123.9" r="21.1"/>
			<path class="st19" d="M466.3,141.3c-8.5-0.7-15.3-7.5-16-16c0-0.5,0.6-0.8,0.9-0.4l15.5,15.5
				C467.1,140.7,466.8,141.3,466.3,141.3z"/>
			
				<ellipse transform="matrix(0.7071 -0.7071 0.7071 0.7071 59.6604 371.0819)" class="st20" cx="477.8" cy="113.5" rx="3" ry="4.5"/>
		</g>
		<circle cx="467.7" cy="123.9" r="9.3"/>
	</g>
	<g>
		<g>
			
				<ellipse transform="matrix(0.1602 -0.9871 0.9871 0.1602 313.1454 615.8583)" class="st18" cx="518.5" cy="123.9" rx="21.1" ry="21.1"/>
			<path class="st19" d="M517.2,141.3c-8.5-0.7-15.3-7.5-16-16c0-0.5,0.6-0.8,0.9-0.4l15.5,15.5
				C517.9,140.7,517.7,141.3,517.2,141.3z"/>
			
				<ellipse transform="matrix(0.7071 -0.7071 0.7071 0.7071 74.5775 407.0667)" class="st20" cx="528.7" cy="113.5" rx="3" ry="4.5"/>
		</g>
		<circle cx="518.5" cy="123.9" r="9.3"/>
	</g>
	<g>
		<g>
			<circle class="st18" cx="569.3" cy="123.9" r="21.1"/>
			<path class="st19" d="M567.9,141.3c-8.5-0.7-15.3-7.5-16-16c0-0.5,0.6-0.8,0.9-0.4l15.5,15.5
				C568.7,140.7,568.4,141.3,567.9,141.3z"/>
			
				<ellipse transform="matrix(0.7071 -0.7071 0.7071 0.7071 89.4698 442.9716)" class="st20" cx="579.4" cy="113.5" rx="3" ry="4.5"/>
		</g>
		<circle cx="569.3" cy="123.9" r="9.3"/>
	</g>
	<line class="st26" x1="0" y1="123.9" x2="935.6" y2="123.9"/>
</g>
<path id="M_1_" class="st18" d="M494.3,17.2c0.6-2.2,0.7-2.8,5.3-2.8c1.4,0,2,0,2-1.2c0-0.7-0.6-0.7-1.7-0.7h-8.1
	c-1.6,0-1.7,0-2.4,1.2l-22.3,34.9L462.3,14c-0.2-1.4-0.3-1.4-1.9-1.4H452c-1.2,0-1.8,0-1.8,1.2c0,0.7,0.6,0.7,1.8,0.7
	c0.8,0,1.9,0.1,2.6,0.1c1,0.1,1.3,0.3,1.3,1c0,0.2-0.1,0.4-0.2,1.2L447.9,48c-0.6,2.4-1.7,4.4-6.6,4.6c-0.3,0-1.1,0.1-1.1,1.2
	c0,0.6,0.4,0.7,0.9,0.7c2,0,4.1-0.2,6.1-0.2c2.1,0,4.3,0.2,6.3,0.2c0.3,0,1.1,0,1.1-1.2c0-0.7-0.7-0.7-1.1-0.7
	c-3.5-0.1-4.2-1.3-4.2-2.7c0-0.4,0.1-0.7,0.2-1.4l8.3-33.4h0.1l5.3,37.9c0.1,0.7,0.2,1.4,0.9,1.4c0.7,0,1-0.7,1.3-1.1l24.7-38.7h0.1
	l-8.8,35.1c-0.6,2.4-0.7,2.9-5.6,2.9c-1,0-1.7,0-1.7,1.2c0,0.7,0.7,0.7,0.9,0.7c1.7,0,5.9-0.2,7.6-0.2c2.5,0,5.1,0.2,7.7,0.2
	c0.4,0,1.2,0,1.2-1.2c0-0.7-0.6-0.7-1.7-0.7c-2.3,0-4,0-4-1.1c0-0.2,0-0.4,0.3-1.5L494.3,17.2"/>
<path id="L_1_" class="st12" d="M62.7,15.7c0.6-2.2,0.7-2.9,6.5-2.9c1.8,0,2.3,0,2.3-1.2c0-0.7-0.7-0.7-1-0.7c-2,0-7,0.2-9.1,0.2
	c-1.8,0-6.3-0.2-8.1-0.2c-0.4,0-1.2,0-1.2,1.2c0,0.7,0.6,0.7,1.7,0.7c0.1,0,1.3,0,2.3,0.1c1.1,0.1,1.7,0.2,1.7,1
	c0,0.2-0.1,0.4-0.2,1.2L49.4,48c-0.6,2.4-0.7,2.9-5.6,2.9c-1,0-1.7,0-1.7,1.2c0,0.7,0.6,0.7,1.7,0.7h28.3c1.5,0,1.5,0,1.9-1
	l4.8-13.2c0.2-0.7,0.2-0.8,0.2-0.9c0-0.2-0.2-0.7-0.7-0.7c-0.6,0-0.6,0.3-1,1.3c-2.1,5.6-4.8,12.6-15.4,12.6h-5.8
	c-0.9,0-1,0-1.3-0.1c-0.6-0.1-0.8-0.1-0.8-0.6c0-0.2,0-0.3,0.3-1.4L62.7,15.7"/>
<path id="R_1_" class="st15" d="M882.3,32.8c6.2-1.3,13.5-5.6,13.5-11.8c0-5.3-5.5-9.2-13.5-9.2h-17.5c-1.2,0-1.8,0-1.8,1.2
	c0,0.7,0.6,0.7,1.7,0.7c0.1,0,1.3,0,2.3,0.1c1.1,0.1,1.7,0.2,1.7,1c0,0.2-0.1,0.4-0.2,1.2l-8.2,32.9c-0.6,2.4-0.7,2.9-5.6,2.9
	c-1.1,0-1.7,0-1.7,1.2c0,0.7,0.7,0.7,0.9,0.7c1.7,0,6-0.2,7.7-0.2s6.1,0.2,7.8,0.2c0.5,0,1.2,0,1.2-1.2c0-0.7-0.6-0.7-1.7-0.7
	c-2.3,0-4,0-4-1.1c0-0.4,0.1-0.7,0.2-1l4-16.2h7.3c5.6,0,6.7,3.4,6.7,5.6c0,0.9-0.5,2.8-0.9,4.2c-0.4,1.7-1,4-1,5.2
	c0,6.6,7.3,6.6,8.1,6.6c5.2,0,7.3-6.2,7.3-7c0-0.7-0.7-0.7-0.7-0.7c-0.6,0-0.7,0.4-0.8,0.9c-1.5,4.5-4.2,5.6-5.6,5.6
	c-2,0-2.4-1.3-2.4-3.7c0-1.9,0.4-5,0.6-7c0.1-0.9,0.2-2,0.2-2.9C888.1,35.3,884,33.4,882.3,32.8 M873.5,16c0.4-1.5,0.6-2.1,1.7-2.3
	c0.6-0.1,2.5-0.1,3.7-0.1c4.3,0,11.1,0,11.1,6.1c0,2.1-1,6.3-3.4,8.7c-1.6,1.6-4.8,3.5-10.3,3.5h-6.9L873.5,16z"/>
</svg>
