<?xml version="1.0" encoding="utf-8"?>
<!-- Generator: Adobe Illustrator 25.1.0, SVG Export Plug-In . SVG Version: 6.00 Build 0)  -->
<svg version="1.1" id="Layer_1" xmlns="http://www.w3.org/2000/svg" xmlns:xlink="http://www.w3.org/1999/xlink" x="0px" y="0px"
	 viewBox="0 0 935.6 241" style="enable-background:new 0 0 935.6 241;" xml:space="preserve">
<style type="text/css">
	.st0{opacity:0.502;}
	.st1{fill:#888888;}
	.st2{fill:#666666;}
	.st3{fill:#999999;}
	.st4{opacity:0.5;}
	.st5{fill:#FF00FF;}
	.st6{fill:#E000E0;}
	.st7{fill:#EB65EB;}
	.st8{opacity:0.702;}
	.st9{opacity:0.7;}
	.st10{fill:none;stroke:#000000;stroke-width:4;stroke-linecap:round;stroke-miterlimit:10;}
</style>
<g>
	<g class="st0">
		<circle class="st1" cx="162.5" cy="210.1" r="21.1"/>
		<path class="st2" d="M161.1,227.4c-8.5-0.7-15.3-7.5-16-16c0-0.5,0.6-0.8,0.9-0.4l15.5,15.5C161.8,226.9,161.6,227.5,161.1,227.4z
			"/>
		
			<ellipse transform="matrix(0.7071 -0.7071 0.7071 0.7071 -90.6621 180.5313)" class="st3" cx="172.6" cy="199.7" rx="3" ry="4.5"/>
	</g>
	<g class="st0">
		<circle class="st1" cx="213.2" cy="210.1" r="21.1"/>
		<path class="st2" d="M211.9,227.4c-8.5-0.7-15.3-7.5-16-16c0-0.5,0.6-0.8,0.9-0.4l15.5,15.5C212.6,226.9,212.3,227.5,211.9,227.4z
			"/>
		
			<ellipse transform="matrix(0.7071 -0.7071 0.7071 0.7071 -75.7717 216.4405)" class="st3" cx="223.4" cy="199.7" rx="3" ry="4.5"/>
	</g>
	<g class="st0">
		
			<ellipse transform="matrix(0.1602 -0.9871 0.9871 0.1602 228.0584 688.2505)" class="st1" cx="518.5" cy="210.1" rx="21.1" ry="21.1"/>
		<path class="st2" d="M517.2,227.4c-8.5-0.7-15.3-7.5-16-16c0-0.5,0.6-0.8,0.9-0.4l15.5,15.5C517.9,226.9,517.7,227.5,517.2,227.4z
			"/>
		<ellipse transform="matrix(0.7071 -0.7071 0.7071 0.7071 13.6401 432.328)" class="st3" cx="528.7" cy="199.7" rx="3" ry="4.5"/>
	</g>
	<g class="st0">
		<circle class="st1" cx="569.3" cy="210.1" r="21.1"/>
		<path class="st2" d="M567.9,227.4c-8.5-0.7-15.3-7.5-16-16c0-0.5,0.6-0.8,0.9-0.4l15.5,15.5C568.7,226.9,568.4,227.5,567.9,227.4z
			"/>
		<ellipse transform="matrix(0.7071 -0.7071 0.7071 0.7071 28.5326 468.2327)" class="st3" cx="579.5" cy="199.7" rx="3" ry="4.5"/>
	</g>
	<g class="st0">
		<circle class="st1" cx="620.4" cy="210.1" r="21.1"/>
		<path class="st2" d="M619,227.4c-8.5-0.7-15.3-7.5-16-16c0-0.5,0.6-0.8,0.9-0.4l15.5,15.5C619.8,226.9,619.5,227.5,619,227.4z"/>
		<ellipse transform="matrix(0.7071 -0.7071 0.7071 0.7071 43.495 504.3698)" class="st3" cx="630.6" cy="199.7" rx="3" ry="4.5"/>
	</g>
	<g class="st0">
		<circle class="st1" cx="671.4" cy="210.1" r="21.1"/>
		<path class="st2" d="M670,227.4c-8.5-0.7-15.3-7.5-16-16c0-0.5,0.6-0.8,0.9-0.4l15.5,15.5C670.7,226.9,670.5,227.5,670,227.4z"/>
		<ellipse transform="matrix(0.7071 -0.7071 0.7071 0.7071 58.3887 540.3757)" class="st3" cx="681.5" cy="199.7" rx="3" ry="4.5"/>
	</g>
	<g class="st0">
		<circle class="st1" cx="722.2" cy="210.1" r="21.1"/>
		<path class="st2" d="M720.9,227.4c-8.5-0.7-15.3-7.5-16-16c0-0.5,0.6-0.8,0.9-0.4l15.5,15.5C721.6,226.9,721.4,227.5,720.9,227.4z
			"/>
		<ellipse transform="matrix(0.7071 -0.7071 0.7071 0.7071 73.2998 576.364)" class="st3" cx="732.4" cy="199.7" rx="3" ry="4.5"/>
	</g>
	<g class="st0">
		<circle class="st1" cx="773.1" cy="210.1" r="21.1"/>
		<path class="st2" d="M771.8,227.4c-8.5-0.7-15.3-7.5-16-16c0-0.5,0.6-0.8,0.9-0.4l15.5,15.5C772.5,226.9,772.3,227.5,771.8,227.4z
			"/>
		<ellipse transform="matrix(0.7071 -0.7071 0.7071 0.7071 88.2109 612.3524)" class="st3" cx="783.3" cy="199.7" rx="3" ry="4.5"/>
	</g>
	<g class="st0">
		<circle class="st1" cx="824" cy="210.1" r="21.1"/>
		<path class="st2" d="M822.7,227.4c-8.5-0.7-15.3-7.5-16-16c0-0.5,0.6-0.8,0.9-0.4l15.5,15.5C823.4,226.9,823.1,227.5,822.7,227.4z
			"/>
		
			<ellipse transform="matrix(0.7071 -0.7071 0.7071 0.7071 103.1221 648.3409)" class="st3" cx="834.2" cy="199.7" rx="3" ry="4.5"/>
	</g>
	<g class="st0">
		<circle class="st1" cx="874.9" cy="210.1" r="21.1"/>
		<path class="st2" d="M873.6,227.4c-8.5-0.7-15.3-7.5-16-16c0-0.5,0.6-0.8,0.9-0.4l15.5,15.5C874.3,226.9,874,227.5,873.6,227.4z"
			/>
		
			<ellipse transform="matrix(0.7071 -0.7071 0.7071 0.7071 118.0332 684.3292)" class="st3" cx="885.1" cy="199.7" rx="3" ry="4.5"/>
	</g>
	<g class="st0">
		<circle class="st1" cx="111.6" cy="210.1" r="21.1"/>
		<path class="st2" d="M110.2,227.4c-8.5-0.7-15.3-7.5-16-16c0-0.5,0.6-0.8,0.9-0.4l15.5,15.5C111,226.9,110.7,227.5,110.2,227.4z"
			/>
		
			<ellipse transform="matrix(0.7071 -0.7071 0.7071 0.7071 -105.5732 144.543)" class="st3" cx="121.7" cy="199.7" rx="3" ry="4.5"/>
	</g>
	<g class="st0">
		<circle class="st1" cx="60.7" cy="210.1" r="21.1"/>
		<path class="st2" d="M59.3,227.4c-8.5-0.7-15.3-7.5-16-16c0-0.5,0.6-0.8,0.9-0.4l15.5,15.5C60.1,226.9,59.8,227.5,59.3,227.4z"/>
		
			<ellipse transform="matrix(0.7071 -0.7071 0.7071 0.7071 -120.4844 108.5547)" class="st3" cx="70.8" cy="199.7" rx="3" ry="4.5"/>
	</g>
	<g class="st4">
		<circle class="st5" cx="365.5" cy="210.1" r="21.1"/>
		<path class="st6" d="M364.2,227.4c-8.5-0.7-15.3-7.5-16-16c0-0.5,0.6-0.8,0.9-0.4l15.5,15.5C364.9,226.9,364.6,227.5,364.2,227.4z
			"/>
		
			<ellipse transform="matrix(0.7071 -0.7071 0.7071 0.7071 -31.1628 324.1301)" class="st7" cx="375.7" cy="199.7" rx="3" ry="4.5"/>
	</g>
	<g class="st4">
		<circle class="st5" cx="314.9" cy="210.1" r="21.1"/>
		<path class="st6" d="M313.5,227.4c-8.5-0.7-15.3-7.5-16-16c0-0.5,0.6-0.8,0.9-0.4l15.5,15.5C314.3,226.9,314,227.5,313.5,227.4z"
			/>
		<ellipse transform="matrix(0.7071 -0.7071 0.7071 0.7071 -45.9803 288.348)" class="st7" cx="325.1" cy="199.7" rx="3" ry="4.5"/>
	</g>
	<g class="st4">
		
			<ellipse transform="matrix(0.1602 -0.9871 0.9871 0.1602 14.3248 437.0368)" class="st5" cx="264" cy="210.1" rx="21.1" ry="21.1"/>
		<path class="st6" d="M262.7,227.4c-8.5-0.7-15.3-7.5-16-16c0-0.5,0.6-0.8,0.9-0.4l15.5,15.5C263.4,226.9,263.1,227.5,262.7,227.4z
			"/>
		
			<ellipse transform="matrix(0.7071 -0.7071 0.7071 0.7071 -60.8913 252.3596)" class="st7" cx="274.2" cy="199.7" rx="3" ry="4.5"/>
	</g>
	<g class="st4">
		<circle class="st5" cx="416.8" cy="210.1" r="21.1"/>
		<path class="st6" d="M415.4,227.4c-8.5-0.7-15.3-7.5-16-16c0-0.5,0.6-0.8,0.9-0.4l15.5,15.5C416.1,226.9,415.9,227.5,415.4,227.4z
			"/>
		
			<ellipse transform="matrix(0.7071 -0.7071 0.7071 0.7071 -16.1779 360.3447)" class="st7" cx="426.9" cy="199.7" rx="3" ry="4.5"/>
	</g>
	<g class="st4">
		<circle class="st5" cx="467.8" cy="210.1" r="21.1"/>
		<path class="st6" d="M466.4,227.4c-8.5-0.7-15.3-7.5-16-16c0-0.5,0.6-0.8,0.9-0.4l15.5,15.5C467.2,226.9,466.9,227.5,466.4,227.4z
			"/>
		<ellipse transform="matrix(0.7071 -0.7071 0.7071 0.7071 -1.2609 396.4272)" class="st7" cx="477.9" cy="199.7" rx="3" ry="4.5"/>
	</g>
</g>
<g>
	<g class="st8">
		<circle class="st1" cx="722.2" cy="120" r="21.1"/>
		<path class="st2" d="M720.9,137.3c-8.5-0.7-15.3-7.5-16-16c0-0.5,0.6-0.8,0.9-0.4l15.5,15.5C721.6,136.8,721.4,137.4,720.9,137.3z
			"/>
		
			<ellipse transform="matrix(0.7071 -0.7071 0.7071 0.7071 137.0024 549.9676)" class="st3" cx="732.4" cy="109.6" rx="3" ry="4.5"/>
	</g>
	<g class="st8">
		<circle class="st1" cx="213.2" cy="120" r="21.1"/>
		<path class="st2" d="M211.9,137.3c-8.5-0.7-15.3-7.5-16-16c0-0.5,0.6-0.8,0.9-0.4l15.5,15.5C212.6,136.8,212.3,137.4,211.9,137.3z
			"/>
		<ellipse transform="matrix(0.7071 -0.7071 0.7071 0.7071 -12.0691 190.044)" class="st3" cx="223.4" cy="109.6" rx="3" ry="4.5"/>
	</g>
	<g class="st8">
		<circle class="st1" cx="671.4" cy="120" r="21.1"/>
		<path class="st2" d="M670,137.3c-8.5-0.7-15.3-7.5-16-16c0-0.5,0.6-0.8,0.9-0.4l15.5,15.5C670.7,136.8,670.5,137.4,670,137.3z"/>
		
			<ellipse transform="matrix(0.7071 -0.7071 0.7071 0.7071 122.0912 513.9792)" class="st3" cx="681.5" cy="109.6" rx="3" ry="4.5"/>
	</g>
	<g class="st8">
		
			<ellipse transform="matrix(0.1602 -0.9871 0.9871 0.1602 103.2614 361.3692)" class="st1" cx="264" cy="120" rx="21.1" ry="21.1"/>
		<path class="st2" d="M262.7,137.3c-8.5-0.7-15.3-7.5-16-16c0-0.5,0.6-0.8,0.9-0.4l15.5,15.5C263.4,136.8,263.1,137.4,262.7,137.3z
			"/>
		<ellipse transform="matrix(0.7071 -0.7071 0.7071 0.7071 2.8113 225.9631)" class="st3" cx="274.2" cy="109.6" rx="3" ry="4.5"/>
	</g>
	<g class="st8">
		<circle class="st1" cx="162.5" cy="120" r="21.1"/>
		<path class="st2" d="M161.1,137.3c-8.5-0.7-15.3-7.5-16-16c0-0.5,0.6-0.8,0.9-0.4l15.5,15.5C161.8,136.8,161.6,137.4,161.1,137.3z
			"/>
		
			<ellipse transform="matrix(0.7071 -0.7071 0.7071 0.7071 -26.9595 154.1348)" class="st3" cx="172.6" cy="109.6" rx="3" ry="4.5"/>
	</g>
	<g class="st8">
		<circle class="st1" cx="773.1" cy="120" r="21.1"/>
		<path class="st2" d="M771.8,137.3c-8.5-0.7-15.3-7.5-16-16c0-0.5,0.6-0.8,0.9-0.4l15.5,15.5C772.5,136.8,772.3,137.4,771.8,137.3z
			"/>
		
			<ellipse transform="matrix(0.7071 -0.7071 0.7071 0.7071 151.9136 585.9559)" class="st3" cx="783.3" cy="109.6" rx="3" ry="4.5"/>
	</g>
	<g class="st8">
		<circle class="st1" cx="824" cy="120" r="21.1"/>
		<path class="st2" d="M822.7,137.3c-8.5-0.7-15.3-7.5-16-16c0-0.5,0.6-0.8,0.9-0.4l15.5,15.5C823.4,136.8,823.1,137.4,822.7,137.3z
			"/>
		
			<ellipse transform="matrix(0.7071 -0.7071 0.7071 0.7071 166.8248 621.9443)" class="st3" cx="834.2" cy="109.6" rx="3" ry="4.5"/>
	</g>
	<g class="st8">
		<circle class="st1" cx="874.9" cy="120" r="21.1"/>
		<path class="st2" d="M873.6,137.3c-8.5-0.7-15.3-7.5-16-16c0-0.5,0.6-0.8,0.9-0.4l15.5,15.5C874.3,136.8,874,137.4,873.6,137.3z"
			/>
		
			<ellipse transform="matrix(0.7071 -0.7071 0.7071 0.7071 181.7359 657.9327)" class="st3" cx="885.1" cy="109.6" rx="3" ry="4.5"/>
	</g>
	<g class="st8">
		<circle class="st1" cx="111.6" cy="120" r="21.1"/>
		<path class="st2" d="M110.2,137.3c-8.5-0.7-15.3-7.5-16-16c0-0.5,0.6-0.8,0.9-0.4l15.5,15.5C111,136.8,110.7,137.4,110.2,137.3z"
			/>
		
			<ellipse transform="matrix(0.7071 -0.7071 0.7071 0.7071 -41.8706 118.1465)" class="st3" cx="121.7" cy="109.6" rx="3" ry="4.5"/>
	</g>
	<g class="st8">
		<circle class="st1" cx="60.7" cy="120" r="21.1"/>
		<path class="st2" d="M59.3,137.3c-8.5-0.7-15.3-7.5-16-16c0-0.5,0.6-0.8,0.9-0.4l15.5,15.5C60.1,136.8,59.8,137.4,59.3,137.3z"/>
		<ellipse transform="matrix(0.7071 -0.7071 0.7071 0.7071 -56.7817 82.1581)" class="st3" cx="70.8" cy="109.6" rx="3" ry="4.5"/>
	</g>
	<g class="st8">
		<circle class="st1" cx="467.8" cy="120" r="21.1"/>
		<path class="st2" d="M466.4,137.3c-8.5-0.7-15.3-7.5-16-16c0-0.5,0.6-0.8,0.9-0.4l15.5,15.5C467.2,136.8,466.9,137.4,466.4,137.3z
			"/>
		<ellipse transform="matrix(0.7071 -0.7071 0.7071 0.7071 62.4417 370.0307)" class="st3" cx="477.9" cy="109.6" rx="3" ry="4.5"/>
	</g>
	<g class="st8">
		
			<ellipse transform="matrix(0.1602 -0.9871 0.9871 0.1602 316.995 612.5829)" class="st1" cx="518.5" cy="120" rx="21.1" ry="21.1"/>
		<path class="st2" d="M517.2,137.3c-8.5-0.7-15.3-7.5-16-16c0-0.5,0.6-0.8,0.9-0.4l15.5,15.5C517.9,136.8,517.7,137.4,517.2,137.3z
			"/>
		<ellipse transform="matrix(0.7071 -0.7071 0.7071 0.7071 77.343 405.9312)" class="st3" cx="528.7" cy="109.6" rx="3" ry="4.5"/>
	</g>
	<g class="st8">
		<circle class="st1" cx="569.3" cy="120" r="21.1"/>
		<path class="st2" d="M567.9,137.3c-8.5-0.7-15.3-7.5-16-16c0-0.5,0.6-0.8,0.9-0.4l15.5,15.5C568.7,136.8,568.4,137.4,567.9,137.3z
			"/>
		<ellipse transform="matrix(0.7071 -0.7071 0.7071 0.7071 92.2353 441.8362)" class="st3" cx="579.5" cy="109.6" rx="3" ry="4.5"/>
	</g>
	<g class="st8">
		<circle class="st1" cx="620.4" cy="120" r="21.1"/>
		<path class="st2" d="M619,137.3c-8.5-0.7-15.3-7.5-16-16c0-0.5,0.6-0.8,0.9-0.4l15.5,15.5C619.8,136.8,619.5,137.4,619,137.3z"/>
		
			<ellipse transform="matrix(0.7071 -0.7071 0.7071 0.7071 107.1976 477.9733)" class="st3" cx="630.6" cy="109.6" rx="3" ry="4.5"/>
	</g>
	<g class="st9">
		<circle class="st5" cx="365.7" cy="120" r="21.1"/>
		<path class="st6" d="M364.3,137.3c-8.5-0.7-15.3-7.5-16-16c0-0.5,0.6-0.8,0.9-0.4l15.5,15.5C365,136.8,364.8,137.4,364.3,137.3z"
			/>
		<ellipse transform="matrix(0.7071 -0.7071 0.7071 0.7071 32.5571 297.8163)" class="st7" cx="375.8" cy="109.6" rx="3" ry="4.5"/>
	</g>
	<g class="st9">
		<circle class="st5" cx="314.9" cy="120" r="21.1"/>
		<path class="st6" d="M313.5,137.3c-8.5-0.7-15.3-7.5-16-16c0-0.5,0.6-0.8,0.9-0.4l15.5,15.5C314.3,136.8,314,137.4,313.5,137.3z"
			/>
		<ellipse transform="matrix(0.7071 -0.7071 0.7071 0.7071 17.7224 261.9514)" class="st7" cx="325.1" cy="109.6" rx="3" ry="4.5"/>
	</g>
	<g class="st9">
		<circle class="st5" cx="416.8" cy="120" r="21.1"/>
		<path class="st6" d="M415.4,137.3c-8.5-0.7-15.3-7.5-16-16c0-0.5,0.6-0.8,0.9-0.4l15.5,15.5C416.1,136.8,415.9,137.4,415.4,137.3z
			"/>
		<ellipse transform="matrix(0.7071 -0.7071 0.7071 0.7071 47.5247 333.9482)" class="st7" cx="426.9" cy="109.6" rx="3" ry="4.5"/>
	</g>
</g>
<g>
	<g>
		<g>
			<circle class="st5" cx="365.7" cy="29.9" r="21.1"/>
			<path class="st6" d="M364.3,47.3c-8.5-0.7-15.3-7.5-16-16c0-0.5,0.6-0.8,0.9-0.4l15.5,15.5C365,46.7,364.8,47.3,364.3,47.3z"/>
			<ellipse transform="matrix(0.7071 -0.7071 0.7071 0.7071 96.2597 271.4197)" class="st7" cx="375.8" cy="19.5" rx="3" ry="4.5"/>
		</g>
		<circle cx="365.7" cy="29.9" r="9.3"/>
	</g>
	<g>
		<g>
			<circle class="st1" cx="467.8" cy="29.9" r="21.1"/>
			<path class="st2" d="M466.4,47.3c-8.5-0.7-15.3-7.5-16-16c0-0.5,0.6-0.8,0.9-0.4l15.5,15.5C467.2,46.7,466.9,47.3,466.4,47.3z"/>
			
				<ellipse transform="matrix(0.7071 -0.7071 0.7071 0.7071 126.1443 343.6341)" class="st3" cx="477.9" cy="19.5" rx="3" ry="4.5"/>
		</g>
		<circle cx="467.7" cy="29.9" r="9.3"/>
	</g>
	<g>
		<g>
			
				<ellipse transform="matrix(0.1602 -0.9871 0.9871 0.1602 405.9316 536.9154)" class="st1" cx="518.5" cy="29.9" rx="21.1" ry="21.1"/>
			<path class="st2" d="M517.2,47.3c-8.5-0.7-15.3-7.5-16-16c0-0.5,0.6-0.8,0.9-0.4l15.5,15.5C517.9,46.7,517.7,47.3,517.2,47.3z"/>
			
				<ellipse transform="matrix(0.7071 -0.7071 0.7071 0.7071 141.0458 379.5345)" class="st3" cx="528.7" cy="19.5" rx="3" ry="4.5"/>
		</g>
		<circle cx="518.4" cy="29.9" r="9.3"/>
	</g>
	<g>
		<g>
			<circle class="st1" cx="620.4" cy="29.9" r="21.1"/>
			<path class="st2" d="M619,47.3c-8.5-0.7-15.3-7.5-16-16c0-0.5,0.6-0.8,0.9-0.4l15.5,15.5C619.8,46.7,619.5,47.3,619,47.3z"/>
			
				<ellipse transform="matrix(0.7071 -0.7071 0.7071 0.7071 170.9002 451.5768)" class="st3" cx="630.6" cy="19.5" rx="3" ry="4.5"/>
		</g>
		<circle cx="620.3" cy="29.9" r="9.3"/>
	</g>
	<g>
		<g>
			<circle class="st1" cx="671.4" cy="29.9" r="21.1"/>
			<path class="st2" d="M670,47.3c-8.5-0.7-15.3-7.5-16-16c0-0.5,0.6-0.8,0.9-0.4l15.5,15.5C670.7,46.7,670.5,47.3,670,47.3z"/>
			
				<ellipse transform="matrix(0.7071 -0.7071 0.7071 0.7071 185.7939 487.5826)" class="st3" cx="681.5" cy="19.5" rx="3" ry="4.5"/>
		</g>
		<circle cx="671.2" cy="29.9" r="9.3"/>
	</g>
	<g>
		<g>
			<circle class="st1" cx="722.2" cy="29.9" r="21.1"/>
			<path class="st2" d="M720.9,47.3c-8.5-0.7-15.3-7.5-16-16c0-0.5,0.6-0.8,0.9-0.4l15.5,15.5C721.6,46.7,721.4,47.3,720.9,47.3z"/>
			<ellipse transform="matrix(0.7071 -0.7071 0.7071 0.7071 200.705 523.571)" class="st3" cx="732.4" cy="19.5" rx="3" ry="4.5"/>
		</g>
		<circle cx="722.1" cy="29.9" r="9.3"/>
	</g>
	<g>
		<g>
			<circle class="st1" cx="773.1" cy="29.9" r="21.1"/>
			<path class="st2" d="M771.8,47.3c-8.5-0.7-15.3-7.5-16-16c0-0.5,0.6-0.8,0.9-0.4l15.5,15.5C772.5,46.7,772.3,47.3,771.8,47.3z"/>
			
				<ellipse transform="matrix(0.7071 -0.7071 0.7071 0.7071 215.6162 559.5593)" class="st3" cx="783.3" cy="19.5" rx="3" ry="4.5"/>
		</g>
		<circle cx="773" cy="29.9" r="9.3"/>
	</g>
	<g>
		<g>
			<circle class="st1" cx="824" cy="29.9" r="21.1"/>
			<path class="st2" d="M822.7,47.3c-8.5-0.7-15.3-7.5-16-16c0-0.5,0.6-0.8,0.9-0.4l15.5,15.5C823.4,46.7,823.1,47.3,822.7,47.3z"/>
			
				<ellipse transform="matrix(0.7071 -0.7071 0.7071 0.7071 230.5273 595.5477)" class="st3" cx="834.2" cy="19.5" rx="3" ry="4.5"/>
		</g>
		<circle cx="823.9" cy="29.9" r="9.3"/>
	</g>
	<g>
		<g>
			<circle class="st1" cx="874.9" cy="29.9" r="21.1"/>
			<path class="st2" d="M873.6,47.3c-8.5-0.7-15.3-7.5-16-16c0-0.5,0.6-0.8,0.9-0.4L874,46.4C874.3,46.7,874,47.3,873.6,47.3z"/>
			
				<ellipse transform="matrix(0.7071 -0.7071 0.7071 0.7071 245.4385 631.5361)" class="st3" cx="885.1" cy="19.5" rx="3" ry="4.5"/>
		</g>
		<circle cx="874.8" cy="29.9" r="9.3"/>
	</g>
	<g>
		<g>
			<circle class="st1" cx="569.3" cy="29.9" r="21.1"/>
			<path class="st2" d="M567.9,47.3c-8.5-0.7-15.3-7.5-16-16c0-0.5,0.6-0.8,0.9-0.4l15.5,15.5C568.7,46.7,568.4,47.3,567.9,47.3z"/>
			
				<ellipse transform="matrix(0.7071 -0.7071 0.7071 0.7071 155.9379 415.4396)" class="st3" cx="579.4" cy="19.5" rx="3" ry="4.5"/>
		</g>
		<circle cx="569.2" cy="29.9" r="9.3"/>
	</g>
	<g>
		<g>
			<circle class="st1" cx="416.5" cy="29.9" r="21.1"/>
			<path class="st2" d="M415.2,47.3c-8.5-0.7-15.3-7.5-16-16c0-0.5,0.6-0.8,0.9-0.4l15.5,15.5C415.9,46.7,415.6,47.3,415.2,47.3z"/>
			
				<ellipse transform="matrix(0.7071 -0.7071 0.7071 0.7071 111.1793 307.3996)" class="st3" cx="426.7" cy="19.5" rx="3" ry="4.5"/>
		</g>
		<circle cx="416.4" cy="29.9" r="9.3"/>
	</g>
	<g>
		<g>
			<circle class="st1" cx="314.9" cy="29.9" r="21.1"/>
			<path class="st2" d="M313.5,47.3c-8.5-0.7-15.3-7.5-16-16c0-0.5,0.6-0.8,0.9-0.4l15.5,15.5C314.3,46.7,314,47.3,313.5,47.3z"/>
			<ellipse transform="matrix(0.7071 -0.7071 0.7071 0.7071 81.4251 235.5549)" class="st3" cx="325.1" cy="19.5" rx="3" ry="4.5"/>
		</g>
		<circle cx="314.8" cy="29.9" r="9.3"/>
	</g>
	<g>
		<g>
			
				<ellipse transform="matrix(0.1602 -0.9871 0.9871 0.1602 192.282 285.8004)" class="st1" cx="264.1" cy="29.9" rx="21.1" ry="21.1"/>
			<path class="st2" d="M262.7,47.3c-8.5-0.7-15.3-7.5-16-16c0-0.5,0.6-0.8,0.9-0.4l15.5,15.5C263.5,46.7,263.2,47.3,262.7,47.3z"/>
			<ellipse transform="matrix(0.7071 -0.7071 0.7071 0.7071 66.5446 199.6358)" class="st3" cx="274.3" cy="19.5" rx="3" ry="4.5"/>
		</g>
		<circle cx="264" cy="29.9" r="9.3"/>
	</g>
	<g>
		<g>
			<circle class="st1" cx="213.4" cy="29.9" r="21.1"/>
			<path class="st2" d="M212,47.3c-8.5-0.7-15.3-7.5-16-16c0-0.5,0.6-0.8,0.9-0.4l15.5,15.5C212.7,46.7,212.5,47.3,212,47.3z"/>
			<ellipse transform="matrix(0.7071 -0.7071 0.7071 0.7071 51.6542 163.7267)" class="st3" cx="223.5" cy="19.5" rx="3" ry="4.5"/>
		</g>
		<circle cx="213.2" cy="29.9" r="9.3"/>
	</g>
	<g>
		<g>
			<circle class="st1" cx="162.5" cy="29.9" r="21.1"/>
			<path class="st2" d="M161.1,47.3c-8.5-0.7-15.3-7.5-16-16c0-0.5,0.6-0.8,0.9-0.4l15.5,15.5C161.8,46.7,161.6,47.3,161.1,47.3z"/>
			<ellipse transform="matrix(0.7071 -0.7071 0.7071 0.7071 36.7431 127.7383)" class="st3" cx="172.6" cy="19.5" rx="3" ry="4.5"/>
		</g>
		<circle cx="162.3" cy="29.9" r="9.3"/>
	</g>
	<g>
		<g>
			<circle class="st1" cx="111.6" cy="29.9" r="21.1"/>
			<path class="st2" d="M110.2,47.3c-8.5-0.7-15.3-7.5-16-16c0-0.5,0.6-0.8,0.9-0.4l15.5,15.5C111,46.7,110.7,47.3,110.2,47.3z"/>
			<ellipse transform="matrix(0.7071 -0.7071 0.7071 0.7071 21.832 91.7499)" class="st3" cx="121.7" cy="19.5" rx="3" ry="4.5"/>
		</g>
		<circle cx="111.4" cy="29.9" r="9.3"/>
	</g>
	<g>
		<g>
			<circle class="st1" cx="60.7" cy="29.9" r="21.1"/>
			<path class="st2" d="M59.3,47.3c-8.5-0.7-15.3-7.5-16-16c0-0.5,0.6-0.8,0.9-0.4l15.5,15.5C60.1,46.7,59.8,47.3,59.3,47.3z"/>
			<ellipse transform="matrix(0.7071 -0.7071 0.7071 0.7071 6.9208 55.7616)" class="st3" cx="70.8" cy="19.5" rx="3" ry="4.5"/>
		</g>
		<circle cx="60.5" cy="29.9" r="9.3"/>
	</g>
	<line class="st10" x1="0" y1="29.9" x2="935.6" y2="29.9"/>
</g>
</svg>
