<?xml version="1.0" encoding="UTF-8"?><svg id="Layer_1" xmlns="http://www.w3.org/2000/svg" viewBox="0 0 900 650"><defs><style>.cls-1{fill:#aeaeff;}.cls-1,.cls-2,.cls-3,.cls-4,.cls-5,.cls-6,.cls-7,.cls-8,.cls-9,.cls-10,.cls-11,.cls-12,.cls-13,.cls-14,.cls-15,.cls-16,.cls-17,.cls-18,.cls-19{stroke-miterlimit:10;}.cls-1,.cls-6{stroke:#2b2bbc;}.cls-1,.cls-13,.cls-19{stroke-width:4px;}.cls-20{fill:#2b2bbc;}.cls-2,.cls-3,.cls-4,.cls-5,.cls-6,.cls-7,.cls-8,.cls-9,.cls-10,.cls-11,.cls-12,.cls-14,.cls-15,.cls-16,.cls-17,.cls-18{fill:none;}.cls-2,.cls-4,.cls-5,.cls-7,.cls-8,.cls-9,.cls-10,.cls-11,.cls-12,.cls-14,.cls-15,.cls-16,.cls-17,.cls-18{stroke-linecap:round;}.cls-2,.cls-8,.cls-10,.cls-12{stroke-width:5px;}.cls-2,.cls-13{stroke:#555;}.cls-3{stroke:#6c6cff;}.cls-3,.cls-4,.cls-5,.cls-6,.cls-7,.cls-9,.cls-11,.cls-14,.cls-15,.cls-16,.cls-17,.cls-18{stroke-width:10px;}.cls-4{stroke-dasharray:14.8 9.87;}.cls-4,.cls-5,.cls-15{stroke:#f93877;}.cls-5{stroke-dasharray:15.04 10.03;}.cls-7{stroke-dasharray:14.21 9.47;}.cls-7,.cls-9,.cls-16,.cls-18{stroke:#ff6194;}.cls-8{stroke:#8c8b8b;}.cls-21{fill:#d80041;}.cls-9{stroke-dasharray:15 10;}.cls-10{stroke:#333;}.cls-11{stroke-dasharray:15.25 10.17;}.cls-11,.cls-14,.cls-17,.cls-19{stroke:#d80041;}.cls-12{stroke:#777;}.cls-13,.cls-22{fill:#fff0f5;}.cls-16{stroke-dasharray:14.6 9.73;}.cls-17{stroke-dasharray:14.08 9.39;}.cls-19{fill:#ffabc9;}</style></defs><path class="cls-22" d="M44.91,7h810.17c20.93,0,37.91,16.99,37.91,37.91v560.17c0,20.93-16.99,37.91-37.91,37.91H44.91c-20.92,0-37.91-16.99-37.91-37.91V44.91C7,23.99,23.99,7,44.91,7Z"/><path class="cls-21" d="M855.09,14c17.05,0,30.91,13.87,30.91,30.91v560.17c0,17.05-13.87,30.91-30.91,30.91H44.91c-17.05,0-30.91-13.87-30.91-30.91V44.91c0-17.05,13.87-30.91,30.91-30.91h810.17M855.09,0H44.91C20.11,0,0,20.11,0,44.91v560.17c0,24.81,20.11,44.91,44.91,44.91h810.17c24.81,0,44.91-20.11,44.91-44.91V44.91c0-24.81-20.11-44.91-44.91-44.91h0Z"/><line class="cls-10" x1="380.16" y1="394.84" x2="659.53" y2="394.84"/><line class="cls-14" x1="380.16" y1="394.84" x2="380.16" y2="387.34"/><line class="cls-11" x1="380.16" y1="377.17" x2="380.16" y2="128.06"/><line class="cls-14" x1="380.16" y1="122.98" x2="380.16" y2="115.48"/><line class="cls-2" x1="659.53" y1="394.84" x2="659.53" y2="115.48"/><line class="cls-18" x1="380.16" y1="115.48" x2="382.84" y2="122.48"/><line class="cls-7" x1="386.22" y1="131.33" x2="418.35" y2="215.4"/><line class="cls-18" x1="420.04" y1="219.83" x2="422.72" y2="226.83"/><line class="cls-3" x1="564.48" y1="226.83" x2="659.53" y2="115.48"/><line class="cls-8" x1="564.48" y1="368.59" x2="659.53" y2="394.84"/><line class="cls-18" x1="380.16" y1="394.84" x2="386.55" y2="390.9"/><line class="cls-9" x1="395.06" y1="385.65" x2="412.08" y2="375.15"/><line class="cls-18" x1="416.33" y1="372.53" x2="422.72" y2="368.59"/><line class="cls-15" x1="240.48" y1="535.17" x2="245.79" y2="529.87"/><line class="cls-4" x1="252.76" y1="522.89" x2="371.37" y2="404.28"/><line class="cls-15" x1="374.86" y1="400.79" x2="380.16" y2="395.49"/><line class="cls-10" x1="422.72" y1="226.83" x2="564.48" y2="226.83"/><line class="cls-10" x1="422.72" y1="368.59" x2="564.48" y2="368.59"/><line class="cls-2" x1="564.48" y1="368.59" x2="564.48" y2="226.83"/><line class="cls-14" x1="422.72" y1="368.59" x2="422.72" y2="361.09"/><line class="cls-17" x1="422.72" y1="351.7" x2="422.72" y2="239.03"/><line class="cls-14" x1="422.72" y1="234.33" x2="422.72" y2="226.83"/><line class="cls-15" x1="351.84" y1="297.71" x2="357.14" y2="292.41"/><line class="cls-5" x1="364.23" y1="285.32" x2="413.87" y2="235.68"/><line class="cls-15" x1="417.41" y1="232.14" x2="422.72" y2="226.83"/><line class="cls-6" x1="493.6" y1="297.71" x2="564.48" y2="226.83"/><line class="cls-12" x1="493.6" y1="439.47" x2="564.48" y2="368.59"/><circle class="cls-19" cx="380.16" cy="394.84" r="22.51"/><line class="cls-15" x1="351.84" y1="439.47" x2="357.14" y2="434.17"/><line class="cls-5" x1="364.23" y1="427.08" x2="413.87" y2="377.44"/><line class="cls-15" x1="417.41" y1="373.9" x2="422.72" y2="368.59"/><line class="cls-2" x1="493.6" y1="439.47" x2="493.6" y2="297.71"/><line class="cls-14" x1="351.84" y1="439.47" x2="351.84" y2="431.97"/><line class="cls-17" x1="351.84" y1="422.58" x2="351.84" y2="309.91"/><line class="cls-14" x1="351.84" y1="305.21" x2="351.84" y2="297.71"/><line class="cls-10" x1="351.84" y1="439.47" x2="493.6" y2="439.47"/><line class="cls-10" x1="351.84" y1="297.71" x2="493.6" y2="297.71"/><line class="cls-10" x1="380.16" y1="115.48" x2="659.53" y2="115.48"/><line class="cls-15" x1="241.13" y1="255.81" x2="246.43" y2="250.5"/><line class="cls-4" x1="253.41" y1="243.53" x2="372.02" y2="124.92"/><line class="cls-15" x1="375.51" y1="121.43" x2="380.81" y2="116.13"/><line class="cls-12" x1="519.84" y1="534.52" x2="659.53" y2="394.84"/><line class="cls-18" x1="240.48" y1="255.16" x2="247.49" y2="257.84"/><line class="cls-7" x1="256.34" y1="261.22" x2="340.41" y2="293.35"/><line class="cls-18" x1="344.83" y1="295.04" x2="351.84" y2="297.71"/><line class="cls-8" x1="493.6" y1="439.47" x2="519.84" y2="534.52"/><line class="cls-18" x1="351.84" y1="439.47" x2="346.13" y2="444.34"/><line class="cls-16" x1="338.73" y1="450.66" x2="249.89" y2="526.49"/><line class="cls-18" x1="246.19" y1="529.65" x2="240.48" y2="534.52"/><line class="cls-3" x1="493.6" y1="297.71" x2="519.84" y2="255.16"/><line class="cls-14" x1="240.48" y1="534.52" x2="240.48" y2="527.02"/><line class="cls-11" x1="240.48" y1="516.85" x2="240.48" y2="267.74"/><line class="cls-14" x1="240.48" y1="262.66" x2="240.48" y2="255.16"/><line class="cls-10" x1="240.48" y1="534.52" x2="519.84" y2="534.52"/><circle class="cls-19" cx="351.84" cy="297.71" r="22.49"/><circle class="cls-1" cx="493.6" cy="297.71" r="22.49"/><circle class="cls-19" cx="351.84" cy="439.47" r="22.49"/><circle class="cls-13" cx="493.6" cy="439.47" r="22.49"/><circle class="cls-19" cx="422.72" cy="226.83" r="22.49"/><line class="cls-10" x1="240.48" y1="255.16" x2="519.84" y2="255.16"/><circle class="cls-1" cx="564.48" cy="226.83" r="22.49"/><circle class="cls-19" cx="422.72" cy="368.59" r="22.51"/><circle class="cls-13" cx="564.48" cy="368.59" r="22.49"/><circle class="cls-19" cx="240.47" cy="255.16" r="22.49"/><circle class="cls-19" cx="240.47" cy="534.52" r="22.49"/><circle class="cls-19" cx="380.16" cy="115.48" r="22.49"/><circle class="cls-13" cx="659.53" cy="394.84" r="22.49"/><line class="cls-6" x1="519.84" y1="255.16" x2="659.53" y2="115.48"/><circle class="cls-1" cx="659.53" cy="115.48" r="22.49"/><line class="cls-2" x1="519.84" y1="534.52" x2="519.84" y2="255.16"/><circle class="cls-13" cx="519.84" cy="534.52" r="22.49"/><circle class="cls-1" cx="519.84" cy="255.16" r="22.49"/><path class="cls-20" d="M521.88,253.1l-2.46-5.83c-.09-.23-.15-.35-.15-.38,0-.18.5-.73,1.73-.85.3-.03.59-.06.59-.55,0-.35-.35-.35-.44-.35-1.2,0-2.46.09-3.69.09-.73,0-2.55-.09-3.28-.09-.17,0-.52,0-.52.59,0,.32.29.32.67.32,1.76,0,1.93.3,2.2.94l3.46,8.17-6.18,6.65-.38.32c-1.44,1.55-2.81,2.02-4.31,2.11-.38.03-.64.03-.64.59,0,.03,0,.32.38.32.88,0,1.84-.09,2.75-.09,1.08,0,2.23.09,3.28.09.18,0,.53,0,.53-.59,0-.29-.29-.32-.35-.32-.27-.03-1.17-.09-1.17-.91,0-.47.44-.94.79-1.32l2.99-3.16,2.64-2.87,2.96,7c.12.32.15.35.15.41,0,.24-.56.74-1.7.85-.32.03-.59.06-.59.55,0,.35.32.35.44.35.82,0,2.87-.09,3.69-.09.73,0,2.52.09,3.25.09.2,0,.56,0,.56-.56,0-.35-.3-.35-.53-.35-1.96-.03-2.02-.12-2.52-1.29-1.14-2.72-3.1-7.3-3.78-9.05,1.99-2.05,5.07-5.54,6.01-6.36.85-.7,1.96-1.41,3.72-1.5.38-.03.64-.03.64-.58,0-.03,0-.32-.38-.32-.88,0-1.84.09-2.75.09-1.08,0-2.2-.09-3.25-.09-.18,0-.56,0-.56.59,0,.2.15.29.35.32.27.03,1.17.09,1.17.91,0,.41-.32.79-.56,1.05l-4.75,5.1"/><path class="cls-20" d="M495.18,294.84l-2.46-5.83c-.09-.23-.15-.35-.15-.38,0-.18.5-.73,1.73-.85.3-.03.59-.06.59-.55,0-.35-.35-.35-.44-.35-1.2,0-2.46.09-3.69.09-.73,0-2.55-.09-3.28-.09-.17,0-.52,0-.52.59,0,.32.29.32.67.32,1.76,0,1.93.3,2.2.94l3.46,8.17-6.18,6.65-.38.32c-1.44,1.55-2.81,2.02-4.31,2.11-.38.03-.64.03-.64.59,0,.03,0,.32.38.32.88,0,1.84-.09,2.75-.09,1.08,0,2.23.09,3.28.09.18,0,.53,0,.53-.59,0-.29-.29-.32-.35-.32-.27-.03-1.17-.09-1.17-.91,0-.47.44-.94.79-1.32l2.99-3.16,2.64-2.87,2.96,7c.12.32.15.35.15.41,0,.24-.56.74-1.7.85-.32.03-.59.06-.59.55,0,.35.32.35.44.35.82,0,2.87-.09,3.69-.09.73,0,2.52.09,3.25.09.2,0,.56,0,.56-.56,0-.35-.3-.35-.53-.35-1.96-.03-2.02-.12-2.52-1.29-1.14-2.72-3.1-7.3-3.78-9.05,1.99-2.05,5.07-5.54,6.01-6.36.85-.7,1.96-1.41,3.72-1.5.38-.03.64-.03.64-.58,0-.03,0-.32-.38-.32-.88,0-1.84.09-2.75.09-1.08,0-2.2-.09-3.25-.09-.18,0-.56,0-.56.59,0,.2.15.29.35.32.27.03,1.17.09,1.17.91,0,.41-.32.79-.56,1.05l-4.75,5.1"/><path class="cls-20" d="M566.06,223.96l-2.46-5.83c-.09-.23-.15-.35-.15-.38,0-.18.5-.73,1.73-.85.3-.03.59-.06.59-.55,0-.35-.35-.35-.44-.35-1.2,0-2.46.09-3.69.09-.73,0-2.55-.09-3.28-.09-.17,0-.52,0-.52.59,0,.32.29.32.67.32,1.76,0,1.93.3,2.2.94l3.46,8.17-6.18,6.65-.38.32c-1.44,1.55-2.81,2.02-4.31,2.11-.38.03-.64.03-.64.59,0,.03,0,.32.38.32.88,0,1.84-.09,2.75-.09,1.08,0,2.23.09,3.28.09.18,0,.53,0,.53-.59,0-.29-.29-.32-.35-.32-.27-.03-1.17-.09-1.17-.91,0-.47.44-.94.79-1.32l2.99-3.16,2.64-2.87,2.96,7c.12.32.15.35.15.41,0,.24-.56.74-1.7.85-.32.03-.59.06-.59.55,0,.35.32.35.44.35.82,0,2.87-.09,3.69-.09.73,0,2.52.09,3.25.09.2,0,.56,0,.56-.56,0-.35-.3-.35-.53-.35-1.96-.03-2.02-.12-2.52-1.29-1.14-2.72-3.1-7.3-3.78-9.05,1.99-2.05,5.07-5.54,6.01-6.36.85-.7,1.96-1.41,3.72-1.5.38-.03.64-.03.64-.58,0-.03,0-.32-.38-.32-.88,0-1.84.09-2.75.09-1.08,0-2.2-.09-3.25-.09-.18,0-.56,0-.56.59,0,.2.15.29.35.32.27.03,1.17.09,1.17.91,0,.41-.32.79-.56,1.05l-4.75,5.1"/><path class="cls-20" d="M661.11,112.61l-2.46-5.83c-.09-.23-.15-.35-.15-.38,0-.18.5-.73,1.73-.85.3-.03.59-.06.59-.55,0-.35-.35-.35-.44-.35-1.2,0-2.46.09-3.69.09-.73,0-2.55-.09-3.28-.09-.17,0-.52,0-.52.59,0,.32.29.32.67.32,1.76,0,1.93.3,2.2.94l3.46,8.17-6.18,6.65-.38.32c-1.44,1.55-2.81,2.02-4.31,2.11-.38.03-.64.03-.64.59,0,.03,0,.32.38.32.88,0,1.84-.09,2.75-.09,1.08,0,2.23.09,3.28.09.18,0,.53,0,.53-.59,0-.29-.29-.32-.35-.32-.27-.03-1.17-.09-1.17-.91,0-.47.44-.94.79-1.32l2.99-3.16,2.64-2.87,2.96,7c.12.32.15.35.15.41,0,.24-.56.74-1.7.85-.32.03-.59.06-.59.55,0,.35.32.35.44.35.82,0,2.87-.09,3.69-.09.73,0,2.52.09,3.25.09.2,0,.56,0,.56-.56,0-.35-.3-.35-.53-.35-1.96-.03-2.02-.12-2.52-1.29-1.14-2.72-3.1-7.3-3.78-9.05,1.99-2.05,5.07-5.54,6.01-6.36.85-.7,1.96-1.41,3.72-1.5.38-.03.64-.03.64-.58,0-.03,0-.32-.38-.32-.88,0-1.84.09-2.75.09-1.08,0-2.2-.09-3.25-.09-.18,0-.56,0-.56.59,0,.2.15.29.35.32.27.03,1.17.09,1.17.91,0,.41-.32.79-.56,1.05l-4.75,5.1"/><path class="cls-21" d="M243.23,253.8l-3.75-.91c-1.81-.44-2.96-2.02-2.96-3.72,0-2.05,1.58-3.84,3.87-3.84,4.89,0,5.54,4.8,5.71,6.12.03.17.03.35.35.35.38,0,.38-.15.38-.7v-5.89c0-.49,0-.7-.32-.7-.2,0-.23.03-.44.38l-1.03,1.67c-.88-.85-2.08-2.05-4.68-2.05-3.25,0-5.72,2.58-5.72,5.68,0,2.43,1.56,4.57,3.84,5.36.32.12,1.82.47,3.86.97.79.2,1.67.41,2.49,1.49.62.76.91,1.73.91,2.7,0,2.08-1.46,4.19-3.92,4.19-.85,0-3.08-.15-4.63-1.59-1.7-1.58-1.79-3.46-1.82-4.51-.03-.3-.26-.3-.35-.3-.38,0-.38.21-.38.73v5.86c0,.5,0,.7.32.7.2,0,.23-.06.44-.38,0-.03.09-.12,1.06-1.67.91.99,2.78,2.05,5.39,2.05,3.43,0,5.77-2.87,5.77-6.09,0-2.93-1.93-5.33-4.39-5.92"/><path class="cls-21" d="M382.26,114.12l-3.75-.91c-1.81-.44-2.96-2.02-2.96-3.72,0-2.05,1.58-3.84,3.87-3.84,4.89,0,5.54,4.8,5.71,6.12.03.17.03.35.35.35.38,0,.38-.15.38-.7v-5.89c0-.49,0-.7-.32-.7-.2,0-.23.03-.44.38l-1.03,1.67c-.88-.85-2.08-2.05-4.68-2.05-3.25,0-5.72,2.58-5.72,5.68,0,2.43,1.56,4.57,3.84,5.36.32.12,1.82.47,3.86.97.79.2,1.67.41,2.49,1.49.62.76.91,1.73.91,2.7,0,2.08-1.46,4.19-3.92,4.19-.85,0-3.08-.15-4.63-1.59-1.7-1.58-1.79-3.46-1.82-4.51-.03-.3-.26-.3-.35-.3-.38,0-.38.21-.38.73v5.86c0,.5,0,.7.32.7.2,0,.23-.06.44-.38,0-.03.09-.12,1.06-1.67.91.99,2.78,2.05,5.39,2.05,3.43,0,5.77-2.87,5.77-6.09,0-2.93-1.93-5.33-4.39-5.92"/><path class="cls-21" d="M424.81,225.47l-3.75-.91c-1.81-.44-2.96-2.02-2.96-3.72,0-2.05,1.58-3.84,3.87-3.84,4.89,0,5.54,4.8,5.71,6.12.03.17.03.35.35.35.38,0,.38-.15.38-.7v-5.89c0-.49,0-.7-.32-.7-.2,0-.23.03-.44.38l-1.03,1.67c-.88-.85-2.08-2.05-4.68-2.05-3.25,0-5.72,2.58-5.72,5.68,0,2.43,1.56,4.57,3.84,5.36.32.12,1.82.47,3.86.97.79.2,1.67.41,2.49,1.49.62.76.91,1.73.91,2.7,0,2.08-1.46,4.19-3.92,4.19-.85,0-3.08-.15-4.63-1.59-1.7-1.58-1.79-3.46-1.82-4.51-.03-.3-.26-.3-.35-.3-.38,0-.38.21-.38.73v5.86c0,.5,0,.7.32.7.2,0,.23-.06.44-.38,0-.03.09-.12,1.06-1.67.91.99,2.78,2.05,5.39,2.05,3.43,0,5.77-2.87,5.77-6.09,0-2.93-1.93-5.33-4.39-5.92"/><path class="cls-21" d="M353.93,296.35l-3.75-.91c-1.81-.44-2.96-2.02-2.96-3.72,0-2.05,1.58-3.84,3.87-3.84,4.89,0,5.54,4.8,5.71,6.12.03.17.03.35.35.35.38,0,.38-.15.38-.7v-5.89c0-.49,0-.7-.32-.7-.2,0-.23.03-.44.38l-1.03,1.67c-.88-.85-2.08-2.05-4.68-2.05-3.25,0-5.72,2.58-5.72,5.68,0,2.43,1.56,4.57,3.84,5.36.32.12,1.82.47,3.86.97.79.2,1.67.41,2.49,1.49.62.76.91,1.73.91,2.7,0,2.08-1.46,4.19-3.92,4.19-.85,0-3.08-.15-4.63-1.59-1.7-1.58-1.79-3.46-1.82-4.51-.03-.3-.26-.3-.35-.3-.38,0-.38.21-.38.73v5.86c0,.5,0,.7.32.7.2,0,.23-.06.44-.38,0-.03.09-.12,1.06-1.67.91.99,2.78,2.05,5.39,2.05,3.43,0,5.77-2.87,5.77-6.09,0-2.93-1.93-5.33-4.39-5.92"/><path class="cls-21" d="M424.81,367.23l-3.75-.91c-1.81-.44-2.96-2.02-2.96-3.72,0-2.05,1.58-3.84,3.87-3.84,4.89,0,5.54,4.8,5.71,6.12.03.17.03.35.35.35.38,0,.38-.15.38-.7v-5.89c0-.49,0-.7-.32-.7-.2,0-.23.03-.44.38l-1.03,1.67c-.88-.85-2.08-2.05-4.68-2.05-3.25,0-5.72,2.58-5.72,5.68,0,2.43,1.56,4.57,3.84,5.36.32.12,1.82.47,3.86.97.79.2,1.67.41,2.49,1.49.62.76.91,1.73.91,2.7,0,2.08-1.46,4.19-3.92,4.19-.85,0-3.08-.15-4.63-1.59-1.7-1.58-1.79-3.46-1.82-4.51-.03-.3-.26-.3-.35-.3-.38,0-.38.21-.38.73v5.86c0,.5,0,.7.32.7.2,0,.23-.06.44-.38,0-.03.09-.12,1.06-1.67.91.99,2.78,2.05,5.39,2.05,3.43,0,5.77-2.87,5.77-6.09,0-2.93-1.93-5.33-4.39-5.92"/><path class="cls-21" d="M382.26,393.48l-3.75-.91c-1.81-.44-2.96-2.02-2.96-3.72,0-2.05,1.58-3.84,3.87-3.84,4.89,0,5.54,4.8,5.71,6.12.03.17.03.35.35.35.38,0,.38-.15.38-.7v-5.89c0-.49,0-.7-.32-.7-.2,0-.23.03-.44.38l-1.03,1.67c-.88-.85-2.08-2.05-4.68-2.05-3.25,0-5.72,2.58-5.72,5.68,0,2.43,1.56,4.57,3.84,5.36.32.12,1.82.47,3.86.97.79.2,1.67.41,2.49,1.49.62.76.91,1.73.91,2.7,0,2.08-1.46,4.19-3.92,4.19-.85,0-3.08-.15-4.63-1.59-1.7-1.58-1.79-3.46-1.82-4.51-.03-.3-.26-.3-.35-.3-.38,0-.38.21-.38.73v5.86c0,.5,0,.7.32.7.2,0,.23-.06.44-.38,0-.03.09-.12,1.06-1.67.91.99,2.78,2.05,5.39,2.05,3.43,0,5.77-2.87,5.77-6.09,0-2.93-1.93-5.33-4.39-5.92"/><path class="cls-21" d="M353.93,438.11l-3.75-.91c-1.81-.44-2.96-2.02-2.96-3.72,0-2.05,1.58-3.84,3.87-3.84,4.89,0,5.54,4.8,5.71,6.12.03.17.03.35.35.35.38,0,.38-.15.38-.7v-5.89c0-.49,0-.7-.32-.7-.2,0-.23.03-.44.38l-1.03,1.67c-.88-.85-2.08-2.05-4.68-2.05-3.25,0-5.72,2.58-5.72,5.68,0,2.43,1.56,4.57,3.84,5.36.32.12,1.82.47,3.86.97.79.2,1.67.41,2.49,1.49.62.76.91,1.73.91,2.7,0,2.08-1.46,4.19-3.92,4.19-.85,0-3.08-.15-4.63-1.59-1.7-1.58-1.79-3.46-1.82-4.51-.03-.3-.26-.3-.35-.3-.38,0-.38.21-.38.73v5.86c0,.5,0,.7.32.7.2,0,.23-.06.44-.38,0-.03.09-.12,1.06-1.67.91.99,2.78,2.05,5.39,2.05,3.43,0,5.77-2.87,5.77-6.09,0-2.93-1.93-5.33-4.39-5.92"/><path class="cls-21" d="M242.58,533.16l-3.75-.91c-1.81-.44-2.96-2.02-2.96-3.72,0-2.05,1.58-3.84,3.87-3.84,4.89,0,5.54,4.8,5.71,6.12.03.17.03.35.35.35.38,0,.38-.15.38-.7v-5.89c0-.49,0-.7-.32-.7-.2,0-.23.03-.44.38l-1.03,1.67c-.88-.85-2.08-2.05-4.68-2.05-3.25,0-5.72,2.58-5.72,5.68,0,2.43,1.56,4.57,3.84,5.36.32.12,1.82.47,3.86.97.79.2,1.67.41,2.49,1.49.62.76.91,1.73.91,2.7,0,2.08-1.46,4.19-3.92,4.19-.85,0-3.08-.15-4.63-1.59-1.7-1.58-1.79-3.46-1.82-4.51-.03-.3-.26-.3-.35-.3-.38,0-.38.21-.38.73v5.86c0,.5,0,.7.32.7.2,0,.23-.06.44-.38,0-.03.09-.12,1.06-1.67.91.99,2.78,2.05,5.39,2.05,3.43,0,5.77-2.87,5.77-6.09,0-2.93-1.93-5.33-4.39-5.92"/></svg>