<?xml version="1.0" encoding="utf-8"?>
<!-- Generator: Adobe Illustrator 25.1.0, SVG Export Plug-In . SVG Version: 6.00 Build 0)  -->
<svg version="1.1" id="Layer_1" xmlns="http://www.w3.org/2000/svg" xmlns:xlink="http://www.w3.org/1999/xlink" x="0px" y="0px"
	 viewBox="0 0 900 650" style="enable-background:new 0 0 900 650;" xml:space="preserve">
<style type="text/css">
	.st0{opacity:0.3;fill:#FFFFFF;}
	.st1{opacity:0.6;fill:none;stroke:#000000;stroke-width:13;stroke-miterlimit:10;}
	.st2{font-family:'Avenir-Black';}
	.st3{font-size:91.3145px;}
</style>
<path class="st0" d="M25,645c-11,0-20-9-20-20V25C5,14,14,5,25,5h850c11,0,20,9,20,20v600c0,11-9,20-20,20H25z"/>
<path d="M875,10c8.3,0,15,6.7,15,15v600c0,8.3-6.7,15-15,15H25c-8.3,0-15-6.7-15-15V25c0-8.3,6.7-15,15-15H875 M875,0H25
	C11.2,0,0,11.2,0,25v600c0,13.8,11.2,25,25,25h850c13.8,0,25-11.2,25-25V25C900,11.2,888.8,0,875,0L875,0z"/>
<line class="st1" x1="10" y1="10" x2="888.2" y2="640"/>
<line class="st1" x1="10" y1="638.2" x2="890" y2="11.8"/>
<text transform="matrix(1 0 0 1 285.9556 295.6919)"><tspan x="0" y="0" class="st2 st3">UNDER</tspan><tspan x="-204.5" y="109.6" class="st2 st3">CONSTRUCTION</tspan></text>
</svg>
